G04 #@! TF.GenerationSoftware,KiCad,Pcbnew,(5.1.6)-1*
G04 #@! TF.CreationDate,2021-02-25T15:27:45+08:00*
G04 #@! TF.ProjectId,Light_detector_V1.0,4c696768-745f-4646-9574-6563746f725f,rev?*
G04 #@! TF.SameCoordinates,Original*
G04 #@! TF.FileFunction,Soldermask,Bot*
G04 #@! TF.FilePolarity,Negative*
%FSLAX46Y46*%
G04 Gerber Fmt 4.6, Leading zero omitted, Abs format (unit mm)*
G04 Created by KiCad (PCBNEW (5.1.6)-1) date 2021-02-25 15:27:45*
%MOMM*%
%LPD*%
G01*
G04 APERTURE LIST*
%ADD10O,1.800000X2.100000*%
%ADD11C,3.100000*%
%ADD12R,3.100000X3.100000*%
%ADD13C,1.900000*%
%ADD14O,1.800000X2.050000*%
%ADD15O,1.800000X1.800000*%
%ADD16R,1.800000X1.800000*%
%ADD17O,1.100000X1.100000*%
%ADD18R,1.100000X1.100000*%
%ADD19O,2.050000X1.800000*%
%ADD20O,1.300000X2.000000*%
%ADD21C,1.550000*%
G04 APERTURE END LIST*
D10*
X71856000Y-24699000D03*
G36*
G01*
X75256000Y-23913706D02*
X75256000Y-25484294D01*
G75*
G02*
X74991294Y-25749000I-264706J0D01*
G01*
X73720706Y-25749000D01*
G75*
G02*
X73456000Y-25484294I0J264706D01*
G01*
X73456000Y-23913706D01*
G75*
G02*
X73720706Y-23649000I264706J0D01*
G01*
X74991294Y-23649000D01*
G75*
G02*
X75256000Y-23913706I0J-264706D01*
G01*
G37*
D11*
X62348000Y-25080000D03*
D12*
X66228000Y-25080000D03*
D13*
X32573000Y-57846000D03*
X30033000Y-57846000D03*
G36*
G01*
X26543000Y-58531900D02*
X26543000Y-57160100D01*
G75*
G02*
X26807100Y-56896000I264100J0D01*
G01*
X28178900Y-56896000D01*
G75*
G02*
X28443000Y-57160100I0J-264100D01*
G01*
X28443000Y-58531900D01*
G75*
G02*
X28178900Y-58796000I-264100J0D01*
G01*
X26807100Y-58796000D01*
G75*
G02*
X26543000Y-58531900I0J264100D01*
G01*
G37*
D14*
X76612001Y-52641997D03*
X74112001Y-52641997D03*
G36*
G01*
X70712001Y-53402291D02*
X70712001Y-51881703D01*
G75*
G02*
X70976707Y-51616997I264706J0D01*
G01*
X72247295Y-51616997D01*
G75*
G02*
X72512001Y-51881703I0J-264706D01*
G01*
X72512001Y-53402291D01*
G75*
G02*
X72247295Y-53666997I-264706J0D01*
G01*
X70976707Y-53666997D01*
G75*
G02*
X70712001Y-53402291I0J264706D01*
G01*
G37*
D15*
X43876000Y-50480000D03*
X46416000Y-50480000D03*
D16*
X48956000Y-50480000D03*
D14*
X97073404Y-52544495D03*
X94573404Y-52544495D03*
G36*
G01*
X91173404Y-53304789D02*
X91173404Y-51784201D01*
G75*
G02*
X91438110Y-51519495I264706J0D01*
G01*
X92708698Y-51519495D01*
G75*
G02*
X92973404Y-51784201I0J-264706D01*
G01*
X92973404Y-53304789D01*
G75*
G02*
X92708698Y-53569495I-264706J0D01*
G01*
X91438110Y-53569495D01*
G75*
G02*
X91173404Y-53304789I0J264706D01*
G01*
G37*
X86861997Y-52591999D03*
X84361997Y-52591999D03*
G36*
G01*
X80961997Y-53352293D02*
X80961997Y-51831705D01*
G75*
G02*
X81226703Y-51566999I264706J0D01*
G01*
X82497291Y-51566999D01*
G75*
G02*
X82761997Y-51831705I0J-264706D01*
G01*
X82761997Y-53352293D01*
G75*
G02*
X82497291Y-53616999I-264706J0D01*
G01*
X81226703Y-53616999D01*
G75*
G02*
X80961997Y-53352293I0J264706D01*
G01*
G37*
X66412004Y-52667000D03*
X63912004Y-52667000D03*
G36*
G01*
X60512004Y-53427294D02*
X60512004Y-51906706D01*
G75*
G02*
X60776710Y-51642000I264706J0D01*
G01*
X62047298Y-51642000D01*
G75*
G02*
X62312004Y-51906706I0J-264706D01*
G01*
X62312004Y-53427294D01*
G75*
G02*
X62047298Y-53692000I-264706J0D01*
G01*
X60776710Y-53692000D01*
G75*
G02*
X60512004Y-53427294I0J264706D01*
G01*
G37*
D15*
X52004000Y-50480000D03*
X54544000Y-50480000D03*
D16*
X57084000Y-50480000D03*
D17*
X29718000Y-49403000D03*
X30988000Y-49403000D03*
X32258000Y-49403000D03*
D18*
X33528000Y-49403000D03*
D19*
X91840000Y-36840000D03*
X91840000Y-39340000D03*
G36*
G01*
X92600294Y-42740000D02*
X91079706Y-42740000D01*
G75*
G02*
X90815000Y-42475294I0J264706D01*
G01*
X90815000Y-41204706D01*
G75*
G02*
X91079706Y-40940000I264706J0D01*
G01*
X92600294Y-40940000D01*
G75*
G02*
X92865000Y-41204706I0J-264706D01*
G01*
X92865000Y-42475294D01*
G75*
G02*
X92600294Y-42740000I-264706J0D01*
G01*
G37*
D20*
X91907502Y-22018895D03*
X98907502Y-22018895D03*
D21*
X92907502Y-24718895D03*
X97907502Y-24718895D03*
D13*
X36977000Y-57785000D03*
X39477000Y-57785000D03*
M02*
