G04 #@! TF.GenerationSoftware,KiCad,Pcbnew,(5.1.6)-1*
G04 #@! TF.CreationDate,2021-02-25T15:27:45+08:00*
G04 #@! TF.ProjectId,Light_detector_V1.0,4c696768-745f-4646-9574-6563746f725f,rev?*
G04 #@! TF.SameCoordinates,Original*
G04 #@! TF.FileFunction,Soldermask,Top*
G04 #@! TF.FilePolarity,Negative*
%FSLAX46Y46*%
G04 Gerber Fmt 4.6, Leading zero omitted, Abs format (unit mm)*
G04 Created by KiCad (PCBNEW (5.1.6)-1) date 2021-02-25 15:27:45*
%MOMM*%
%LPD*%
G01*
G04 APERTURE LIST*
%ADD10O,1.800000X2.100000*%
%ADD11C,3.100000*%
%ADD12R,3.100000X3.100000*%
%ADD13R,1.250000X1.100000*%
%ADD14R,0.850000X0.350000*%
%ADD15R,3.550000X4.450000*%
%ADD16R,1.050000X0.550000*%
%ADD17C,1.900000*%
%ADD18R,5.700000X5.700000*%
%ADD19R,1.000000X0.900000*%
%ADD20R,2.200000X2.200000*%
%ADD21C,1.100000*%
%ADD22R,0.900000X1.000000*%
%ADD23R,4.200000X3.700000*%
%ADD24R,3.500000X2.100000*%
%ADD25O,1.800000X2.050000*%
%ADD26O,1.800000X1.800000*%
%ADD27R,1.800000X1.800000*%
%ADD28R,3.200000X2.400000*%
%ADD29R,1.200000X0.400000*%
%ADD30O,1.100000X1.100000*%
%ADD31R,1.100000X1.100000*%
%ADD32O,2.050000X1.800000*%
%ADD33R,1.300000X2.000000*%
%ADD34O,1.300000X2.000000*%
%ADD35R,1.600000X2.000000*%
%ADD36C,1.550000*%
%ADD37R,0.500000X1.450000*%
%ADD38R,2.713000X3.602000*%
%ADD39R,1.605000X0.902000*%
%ADD40R,0.700000X1.250000*%
%ADD41R,3.400000X2.600000*%
%ADD42R,1.900000X2.600000*%
G04 APERTURE END LIST*
G36*
G01*
X74216000Y-32121500D02*
X74216000Y-32516500D01*
G75*
G02*
X74043500Y-32689000I-172500J0D01*
G01*
X73698500Y-32689000D01*
G75*
G02*
X73526000Y-32516500I0J172500D01*
G01*
X73526000Y-32121500D01*
G75*
G02*
X73698500Y-31949000I172500J0D01*
G01*
X74043500Y-31949000D01*
G75*
G02*
X74216000Y-32121500I0J-172500D01*
G01*
G37*
G36*
G01*
X75186000Y-32121500D02*
X75186000Y-32516500D01*
G75*
G02*
X75013500Y-32689000I-172500J0D01*
G01*
X74668500Y-32689000D01*
G75*
G02*
X74496000Y-32516500I0J172500D01*
G01*
X74496000Y-32121500D01*
G75*
G02*
X74668500Y-31949000I172500J0D01*
G01*
X75013500Y-31949000D01*
G75*
G02*
X75186000Y-32121500I0J-172500D01*
G01*
G37*
G36*
G01*
X27861000Y-52695500D02*
X27861000Y-53090500D01*
G75*
G02*
X27688500Y-53263000I-172500J0D01*
G01*
X27343500Y-53263000D01*
G75*
G02*
X27171000Y-53090500I0J172500D01*
G01*
X27171000Y-52695500D01*
G75*
G02*
X27343500Y-52523000I172500J0D01*
G01*
X27688500Y-52523000D01*
G75*
G02*
X27861000Y-52695500I0J-172500D01*
G01*
G37*
G36*
G01*
X28831000Y-52695500D02*
X28831000Y-53090500D01*
G75*
G02*
X28658500Y-53263000I-172500J0D01*
G01*
X28313500Y-53263000D01*
G75*
G02*
X28141000Y-53090500I0J172500D01*
G01*
X28141000Y-52695500D01*
G75*
G02*
X28313500Y-52523000I172500J0D01*
G01*
X28658500Y-52523000D01*
G75*
G02*
X28831000Y-52695500I0J-172500D01*
G01*
G37*
G36*
G01*
X45597500Y-24940000D02*
X45202500Y-24940000D01*
G75*
G02*
X45030000Y-24767500I0J172500D01*
G01*
X45030000Y-24422500D01*
G75*
G02*
X45202500Y-24250000I172500J0D01*
G01*
X45597500Y-24250000D01*
G75*
G02*
X45770000Y-24422500I0J-172500D01*
G01*
X45770000Y-24767500D01*
G75*
G02*
X45597500Y-24940000I-172500J0D01*
G01*
G37*
G36*
G01*
X45597500Y-25910000D02*
X45202500Y-25910000D01*
G75*
G02*
X45030000Y-25737500I0J172500D01*
G01*
X45030000Y-25392500D01*
G75*
G02*
X45202500Y-25220000I172500J0D01*
G01*
X45597500Y-25220000D01*
G75*
G02*
X45770000Y-25392500I0J-172500D01*
G01*
X45770000Y-25737500D01*
G75*
G02*
X45597500Y-25910000I-172500J0D01*
G01*
G37*
G36*
G01*
X35691500Y-54658000D02*
X35296500Y-54658000D01*
G75*
G02*
X35124000Y-54485500I0J172500D01*
G01*
X35124000Y-54140500D01*
G75*
G02*
X35296500Y-53968000I172500J0D01*
G01*
X35691500Y-53968000D01*
G75*
G02*
X35864000Y-54140500I0J-172500D01*
G01*
X35864000Y-54485500D01*
G75*
G02*
X35691500Y-54658000I-172500J0D01*
G01*
G37*
G36*
G01*
X35691500Y-55628000D02*
X35296500Y-55628000D01*
G75*
G02*
X35124000Y-55455500I0J172500D01*
G01*
X35124000Y-55110500D01*
G75*
G02*
X35296500Y-54938000I172500J0D01*
G01*
X35691500Y-54938000D01*
G75*
G02*
X35864000Y-55110500I0J-172500D01*
G01*
X35864000Y-55455500D01*
G75*
G02*
X35691500Y-55628000I-172500J0D01*
G01*
G37*
G36*
G01*
X42916500Y-25220000D02*
X43311500Y-25220000D01*
G75*
G02*
X43484000Y-25392500I0J-172500D01*
G01*
X43484000Y-25737500D01*
G75*
G02*
X43311500Y-25910000I-172500J0D01*
G01*
X42916500Y-25910000D01*
G75*
G02*
X42744000Y-25737500I0J172500D01*
G01*
X42744000Y-25392500D01*
G75*
G02*
X42916500Y-25220000I172500J0D01*
G01*
G37*
G36*
G01*
X42916500Y-24250000D02*
X43311500Y-24250000D01*
G75*
G02*
X43484000Y-24422500I0J-172500D01*
G01*
X43484000Y-24767500D01*
G75*
G02*
X43311500Y-24940000I-172500J0D01*
G01*
X42916500Y-24940000D01*
G75*
G02*
X42744000Y-24767500I0J172500D01*
G01*
X42744000Y-24422500D01*
G75*
G02*
X42916500Y-24250000I172500J0D01*
G01*
G37*
G36*
G01*
X34303000Y-29915500D02*
X34303000Y-29520500D01*
G75*
G02*
X34475500Y-29348000I172500J0D01*
G01*
X34820500Y-29348000D01*
G75*
G02*
X34993000Y-29520500I0J-172500D01*
G01*
X34993000Y-29915500D01*
G75*
G02*
X34820500Y-30088000I-172500J0D01*
G01*
X34475500Y-30088000D01*
G75*
G02*
X34303000Y-29915500I0J172500D01*
G01*
G37*
G36*
G01*
X33333000Y-29915500D02*
X33333000Y-29520500D01*
G75*
G02*
X33505500Y-29348000I172500J0D01*
G01*
X33850500Y-29348000D01*
G75*
G02*
X34023000Y-29520500I0J-172500D01*
G01*
X34023000Y-29915500D01*
G75*
G02*
X33850500Y-30088000I-172500J0D01*
G01*
X33505500Y-30088000D01*
G75*
G02*
X33333000Y-29915500I0J172500D01*
G01*
G37*
G36*
G01*
X40266000Y-35928000D02*
X39871000Y-35928000D01*
G75*
G02*
X39698500Y-35755500I0J172500D01*
G01*
X39698500Y-35410500D01*
G75*
G02*
X39871000Y-35238000I172500J0D01*
G01*
X40266000Y-35238000D01*
G75*
G02*
X40438500Y-35410500I0J-172500D01*
G01*
X40438500Y-35755500D01*
G75*
G02*
X40266000Y-35928000I-172500J0D01*
G01*
G37*
G36*
G01*
X40266000Y-36898000D02*
X39871000Y-36898000D01*
G75*
G02*
X39698500Y-36725500I0J172500D01*
G01*
X39698500Y-36380500D01*
G75*
G02*
X39871000Y-36208000I172500J0D01*
G01*
X40266000Y-36208000D01*
G75*
G02*
X40438500Y-36380500I0J-172500D01*
G01*
X40438500Y-36725500D01*
G75*
G02*
X40266000Y-36898000I-172500J0D01*
G01*
G37*
G36*
G01*
X87831000Y-33278500D02*
X87831000Y-32883500D01*
G75*
G02*
X88003500Y-32711000I172500J0D01*
G01*
X88348500Y-32711000D01*
G75*
G02*
X88521000Y-32883500I0J-172500D01*
G01*
X88521000Y-33278500D01*
G75*
G02*
X88348500Y-33451000I-172500J0D01*
G01*
X88003500Y-33451000D01*
G75*
G02*
X87831000Y-33278500I0J172500D01*
G01*
G37*
G36*
G01*
X86861000Y-33278500D02*
X86861000Y-32883500D01*
G75*
G02*
X87033500Y-32711000I172500J0D01*
G01*
X87378500Y-32711000D01*
G75*
G02*
X87551000Y-32883500I0J-172500D01*
G01*
X87551000Y-33278500D01*
G75*
G02*
X87378500Y-33451000I-172500J0D01*
G01*
X87033500Y-33451000D01*
G75*
G02*
X86861000Y-33278500I0J172500D01*
G01*
G37*
G36*
G01*
X95324000Y-33278500D02*
X95324000Y-32883500D01*
G75*
G02*
X95496500Y-32711000I172500J0D01*
G01*
X95841500Y-32711000D01*
G75*
G02*
X96014000Y-32883500I0J-172500D01*
G01*
X96014000Y-33278500D01*
G75*
G02*
X95841500Y-33451000I-172500J0D01*
G01*
X95496500Y-33451000D01*
G75*
G02*
X95324000Y-33278500I0J172500D01*
G01*
G37*
G36*
G01*
X94354000Y-33278500D02*
X94354000Y-32883500D01*
G75*
G02*
X94526500Y-32711000I172500J0D01*
G01*
X94871500Y-32711000D01*
G75*
G02*
X95044000Y-32883500I0J-172500D01*
G01*
X95044000Y-33278500D01*
G75*
G02*
X94871500Y-33451000I-172500J0D01*
G01*
X94526500Y-33451000D01*
G75*
G02*
X94354000Y-33278500I0J172500D01*
G01*
G37*
G36*
G01*
X95324000Y-31754500D02*
X95324000Y-31359500D01*
G75*
G02*
X95496500Y-31187000I172500J0D01*
G01*
X95841500Y-31187000D01*
G75*
G02*
X96014000Y-31359500I0J-172500D01*
G01*
X96014000Y-31754500D01*
G75*
G02*
X95841500Y-31927000I-172500J0D01*
G01*
X95496500Y-31927000D01*
G75*
G02*
X95324000Y-31754500I0J172500D01*
G01*
G37*
G36*
G01*
X94354000Y-31754500D02*
X94354000Y-31359500D01*
G75*
G02*
X94526500Y-31187000I172500J0D01*
G01*
X94871500Y-31187000D01*
G75*
G02*
X95044000Y-31359500I0J-172500D01*
G01*
X95044000Y-31754500D01*
G75*
G02*
X94871500Y-31927000I-172500J0D01*
G01*
X94526500Y-31927000D01*
G75*
G02*
X94354000Y-31754500I0J172500D01*
G01*
G37*
G36*
G01*
X74496000Y-34548500D02*
X74496000Y-34153500D01*
G75*
G02*
X74668500Y-33981000I172500J0D01*
G01*
X75013500Y-33981000D01*
G75*
G02*
X75186000Y-34153500I0J-172500D01*
G01*
X75186000Y-34548500D01*
G75*
G02*
X75013500Y-34721000I-172500J0D01*
G01*
X74668500Y-34721000D01*
G75*
G02*
X74496000Y-34548500I0J172500D01*
G01*
G37*
G36*
G01*
X73526000Y-34548500D02*
X73526000Y-34153500D01*
G75*
G02*
X73698500Y-33981000I172500J0D01*
G01*
X74043500Y-33981000D01*
G75*
G02*
X74216000Y-34153500I0J-172500D01*
G01*
X74216000Y-34548500D01*
G75*
G02*
X74043500Y-34721000I-172500J0D01*
G01*
X73698500Y-34721000D01*
G75*
G02*
X73526000Y-34548500I0J172500D01*
G01*
G37*
G36*
G01*
X74216000Y-33137500D02*
X74216000Y-33532500D01*
G75*
G02*
X74043500Y-33705000I-172500J0D01*
G01*
X73698500Y-33705000D01*
G75*
G02*
X73526000Y-33532500I0J172500D01*
G01*
X73526000Y-33137500D01*
G75*
G02*
X73698500Y-32965000I172500J0D01*
G01*
X74043500Y-32965000D01*
G75*
G02*
X74216000Y-33137500I0J-172500D01*
G01*
G37*
G36*
G01*
X75186000Y-33137500D02*
X75186000Y-33532500D01*
G75*
G02*
X75013500Y-33705000I-172500J0D01*
G01*
X74668500Y-33705000D01*
G75*
G02*
X74496000Y-33532500I0J172500D01*
G01*
X74496000Y-33137500D01*
G75*
G02*
X74668500Y-32965000I172500J0D01*
G01*
X75013500Y-32965000D01*
G75*
G02*
X75186000Y-33137500I0J-172500D01*
G01*
G37*
G36*
G01*
X63066000Y-29722500D02*
X63066000Y-29327500D01*
G75*
G02*
X63238500Y-29155000I172500J0D01*
G01*
X63583500Y-29155000D01*
G75*
G02*
X63756000Y-29327500I0J-172500D01*
G01*
X63756000Y-29722500D01*
G75*
G02*
X63583500Y-29895000I-172500J0D01*
G01*
X63238500Y-29895000D01*
G75*
G02*
X63066000Y-29722500I0J172500D01*
G01*
G37*
G36*
G01*
X62096000Y-29722500D02*
X62096000Y-29327500D01*
G75*
G02*
X62268500Y-29155000I172500J0D01*
G01*
X62613500Y-29155000D01*
G75*
G02*
X62786000Y-29327500I0J-172500D01*
G01*
X62786000Y-29722500D01*
G75*
G02*
X62613500Y-29895000I-172500J0D01*
G01*
X62268500Y-29895000D01*
G75*
G02*
X62096000Y-29722500I0J172500D01*
G01*
G37*
G36*
G01*
X95324000Y-30611500D02*
X95324000Y-30216500D01*
G75*
G02*
X95496500Y-30044000I172500J0D01*
G01*
X95841500Y-30044000D01*
G75*
G02*
X96014000Y-30216500I0J-172500D01*
G01*
X96014000Y-30611500D01*
G75*
G02*
X95841500Y-30784000I-172500J0D01*
G01*
X95496500Y-30784000D01*
G75*
G02*
X95324000Y-30611500I0J172500D01*
G01*
G37*
G36*
G01*
X94354000Y-30611500D02*
X94354000Y-30216500D01*
G75*
G02*
X94526500Y-30044000I172500J0D01*
G01*
X94871500Y-30044000D01*
G75*
G02*
X95044000Y-30216500I0J-172500D01*
G01*
X95044000Y-30611500D01*
G75*
G02*
X94871500Y-30784000I-172500J0D01*
G01*
X94526500Y-30784000D01*
G75*
G02*
X94354000Y-30611500I0J172500D01*
G01*
G37*
G36*
G01*
X64971000Y-29722500D02*
X64971000Y-29327500D01*
G75*
G02*
X65143500Y-29155000I172500J0D01*
G01*
X65488500Y-29155000D01*
G75*
G02*
X65661000Y-29327500I0J-172500D01*
G01*
X65661000Y-29722500D01*
G75*
G02*
X65488500Y-29895000I-172500J0D01*
G01*
X65143500Y-29895000D01*
G75*
G02*
X64971000Y-29722500I0J172500D01*
G01*
G37*
G36*
G01*
X64001000Y-29722500D02*
X64001000Y-29327500D01*
G75*
G02*
X64173500Y-29155000I172500J0D01*
G01*
X64518500Y-29155000D01*
G75*
G02*
X64691000Y-29327500I0J-172500D01*
G01*
X64691000Y-29722500D01*
G75*
G02*
X64518500Y-29895000I-172500J0D01*
G01*
X64173500Y-29895000D01*
G75*
G02*
X64001000Y-29722500I0J172500D01*
G01*
G37*
G36*
G01*
X69263000Y-34407500D02*
X69263000Y-34802500D01*
G75*
G02*
X69090500Y-34975000I-172500J0D01*
G01*
X68745500Y-34975000D01*
G75*
G02*
X68573000Y-34802500I0J172500D01*
G01*
X68573000Y-34407500D01*
G75*
G02*
X68745500Y-34235000I172500J0D01*
G01*
X69090500Y-34235000D01*
G75*
G02*
X69263000Y-34407500I0J-172500D01*
G01*
G37*
G36*
G01*
X70233000Y-34407500D02*
X70233000Y-34802500D01*
G75*
G02*
X70060500Y-34975000I-172500J0D01*
G01*
X69715500Y-34975000D01*
G75*
G02*
X69543000Y-34802500I0J172500D01*
G01*
X69543000Y-34407500D01*
G75*
G02*
X69715500Y-34235000I172500J0D01*
G01*
X70060500Y-34235000D01*
G75*
G02*
X70233000Y-34407500I0J-172500D01*
G01*
G37*
G36*
G01*
X95044000Y-29200500D02*
X95044000Y-29595500D01*
G75*
G02*
X94871500Y-29768000I-172500J0D01*
G01*
X94526500Y-29768000D01*
G75*
G02*
X94354000Y-29595500I0J172500D01*
G01*
X94354000Y-29200500D01*
G75*
G02*
X94526500Y-29028000I172500J0D01*
G01*
X94871500Y-29028000D01*
G75*
G02*
X95044000Y-29200500I0J-172500D01*
G01*
G37*
G36*
G01*
X96014000Y-29200500D02*
X96014000Y-29595500D01*
G75*
G02*
X95841500Y-29768000I-172500J0D01*
G01*
X95496500Y-29768000D01*
G75*
G02*
X95324000Y-29595500I0J172500D01*
G01*
X95324000Y-29200500D01*
G75*
G02*
X95496500Y-29028000I172500J0D01*
G01*
X95841500Y-29028000D01*
G75*
G02*
X96014000Y-29200500I0J-172500D01*
G01*
G37*
G36*
G01*
X78915000Y-39614500D02*
X78915000Y-40009500D01*
G75*
G02*
X78742500Y-40182000I-172500J0D01*
G01*
X78397500Y-40182000D01*
G75*
G02*
X78225000Y-40009500I0J172500D01*
G01*
X78225000Y-39614500D01*
G75*
G02*
X78397500Y-39442000I172500J0D01*
G01*
X78742500Y-39442000D01*
G75*
G02*
X78915000Y-39614500I0J-172500D01*
G01*
G37*
G36*
G01*
X79885000Y-39614500D02*
X79885000Y-40009500D01*
G75*
G02*
X79712500Y-40182000I-172500J0D01*
G01*
X79367500Y-40182000D01*
G75*
G02*
X79195000Y-40009500I0J172500D01*
G01*
X79195000Y-39614500D01*
G75*
G02*
X79367500Y-39442000I172500J0D01*
G01*
X79712500Y-39442000D01*
G75*
G02*
X79885000Y-39614500I0J-172500D01*
G01*
G37*
G36*
G01*
X78915000Y-33645500D02*
X78915000Y-34040500D01*
G75*
G02*
X78742500Y-34213000I-172500J0D01*
G01*
X78397500Y-34213000D01*
G75*
G02*
X78225000Y-34040500I0J172500D01*
G01*
X78225000Y-33645500D01*
G75*
G02*
X78397500Y-33473000I172500J0D01*
G01*
X78742500Y-33473000D01*
G75*
G02*
X78915000Y-33645500I0J-172500D01*
G01*
G37*
G36*
G01*
X79885000Y-33645500D02*
X79885000Y-34040500D01*
G75*
G02*
X79712500Y-34213000I-172500J0D01*
G01*
X79367500Y-34213000D01*
G75*
G02*
X79195000Y-34040500I0J172500D01*
G01*
X79195000Y-33645500D01*
G75*
G02*
X79367500Y-33473000I172500J0D01*
G01*
X79712500Y-33473000D01*
G75*
G02*
X79885000Y-33645500I0J-172500D01*
G01*
G37*
G36*
G01*
X31255000Y-30550500D02*
X31255000Y-30155500D01*
G75*
G02*
X31427500Y-29983000I172500J0D01*
G01*
X31772500Y-29983000D01*
G75*
G02*
X31945000Y-30155500I0J-172500D01*
G01*
X31945000Y-30550500D01*
G75*
G02*
X31772500Y-30723000I-172500J0D01*
G01*
X31427500Y-30723000D01*
G75*
G02*
X31255000Y-30550500I0J172500D01*
G01*
G37*
G36*
G01*
X30285000Y-30550500D02*
X30285000Y-30155500D01*
G75*
G02*
X30457500Y-29983000I172500J0D01*
G01*
X30802500Y-29983000D01*
G75*
G02*
X30975000Y-30155500I0J-172500D01*
G01*
X30975000Y-30550500D01*
G75*
G02*
X30802500Y-30723000I-172500J0D01*
G01*
X30457500Y-30723000D01*
G75*
G02*
X30285000Y-30550500I0J172500D01*
G01*
G37*
G36*
G01*
X26105500Y-39865000D02*
X25710500Y-39865000D01*
G75*
G02*
X25538000Y-39692500I0J172500D01*
G01*
X25538000Y-39347500D01*
G75*
G02*
X25710500Y-39175000I172500J0D01*
G01*
X26105500Y-39175000D01*
G75*
G02*
X26278000Y-39347500I0J-172500D01*
G01*
X26278000Y-39692500D01*
G75*
G02*
X26105500Y-39865000I-172500J0D01*
G01*
G37*
G36*
G01*
X26105500Y-40835000D02*
X25710500Y-40835000D01*
G75*
G02*
X25538000Y-40662500I0J172500D01*
G01*
X25538000Y-40317500D01*
G75*
G02*
X25710500Y-40145000I172500J0D01*
G01*
X26105500Y-40145000D01*
G75*
G02*
X26278000Y-40317500I0J-172500D01*
G01*
X26278000Y-40662500D01*
G75*
G02*
X26105500Y-40835000I-172500J0D01*
G01*
G37*
G36*
G01*
X36205000Y-44125500D02*
X36205000Y-44520500D01*
G75*
G02*
X36032500Y-44693000I-172500J0D01*
G01*
X35687500Y-44693000D01*
G75*
G02*
X35515000Y-44520500I0J172500D01*
G01*
X35515000Y-44125500D01*
G75*
G02*
X35687500Y-43953000I172500J0D01*
G01*
X36032500Y-43953000D01*
G75*
G02*
X36205000Y-44125500I0J-172500D01*
G01*
G37*
G36*
G01*
X37175000Y-44125500D02*
X37175000Y-44520500D01*
G75*
G02*
X37002500Y-44693000I-172500J0D01*
G01*
X36657500Y-44693000D01*
G75*
G02*
X36485000Y-44520500I0J172500D01*
G01*
X36485000Y-44125500D01*
G75*
G02*
X36657500Y-43953000I172500J0D01*
G01*
X37002500Y-43953000D01*
G75*
G02*
X37175000Y-44125500I0J-172500D01*
G01*
G37*
G36*
G01*
X37351000Y-29915500D02*
X37351000Y-29520500D01*
G75*
G02*
X37523500Y-29348000I172500J0D01*
G01*
X37868500Y-29348000D01*
G75*
G02*
X38041000Y-29520500I0J-172500D01*
G01*
X38041000Y-29915500D01*
G75*
G02*
X37868500Y-30088000I-172500J0D01*
G01*
X37523500Y-30088000D01*
G75*
G02*
X37351000Y-29915500I0J172500D01*
G01*
G37*
G36*
G01*
X36381000Y-29915500D02*
X36381000Y-29520500D01*
G75*
G02*
X36553500Y-29348000I172500J0D01*
G01*
X36898500Y-29348000D01*
G75*
G02*
X37071000Y-29520500I0J-172500D01*
G01*
X37071000Y-29915500D01*
G75*
G02*
X36898500Y-30088000I-172500J0D01*
G01*
X36553500Y-30088000D01*
G75*
G02*
X36381000Y-29915500I0J172500D01*
G01*
G37*
G36*
G01*
X31425500Y-28334000D02*
X31820500Y-28334000D01*
G75*
G02*
X31993000Y-28506500I0J-172500D01*
G01*
X31993000Y-28851500D01*
G75*
G02*
X31820500Y-29024000I-172500J0D01*
G01*
X31425500Y-29024000D01*
G75*
G02*
X31253000Y-28851500I0J172500D01*
G01*
X31253000Y-28506500D01*
G75*
G02*
X31425500Y-28334000I172500J0D01*
G01*
G37*
G36*
G01*
X31425500Y-27364000D02*
X31820500Y-27364000D01*
G75*
G02*
X31993000Y-27536500I0J-172500D01*
G01*
X31993000Y-27881500D01*
G75*
G02*
X31820500Y-28054000I-172500J0D01*
G01*
X31425500Y-28054000D01*
G75*
G02*
X31253000Y-27881500I0J172500D01*
G01*
X31253000Y-27536500D01*
G75*
G02*
X31425500Y-27364000I172500J0D01*
G01*
G37*
G36*
G01*
X36378500Y-28334000D02*
X36773500Y-28334000D01*
G75*
G02*
X36946000Y-28506500I0J-172500D01*
G01*
X36946000Y-28851500D01*
G75*
G02*
X36773500Y-29024000I-172500J0D01*
G01*
X36378500Y-29024000D01*
G75*
G02*
X36206000Y-28851500I0J172500D01*
G01*
X36206000Y-28506500D01*
G75*
G02*
X36378500Y-28334000I172500J0D01*
G01*
G37*
G36*
G01*
X36378500Y-27364000D02*
X36773500Y-27364000D01*
G75*
G02*
X36946000Y-27536500I0J-172500D01*
G01*
X36946000Y-27881500D01*
G75*
G02*
X36773500Y-28054000I-172500J0D01*
G01*
X36378500Y-28054000D01*
G75*
G02*
X36206000Y-27881500I0J172500D01*
G01*
X36206000Y-27536500D01*
G75*
G02*
X36378500Y-27364000I172500J0D01*
G01*
G37*
G36*
G01*
X89736000Y-33278500D02*
X89736000Y-32883500D01*
G75*
G02*
X89908500Y-32711000I172500J0D01*
G01*
X90253500Y-32711000D01*
G75*
G02*
X90426000Y-32883500I0J-172500D01*
G01*
X90426000Y-33278500D01*
G75*
G02*
X90253500Y-33451000I-172500J0D01*
G01*
X89908500Y-33451000D01*
G75*
G02*
X89736000Y-33278500I0J172500D01*
G01*
G37*
G36*
G01*
X88766000Y-33278500D02*
X88766000Y-32883500D01*
G75*
G02*
X88938500Y-32711000I172500J0D01*
G01*
X89283500Y-32711000D01*
G75*
G02*
X89456000Y-32883500I0J-172500D01*
G01*
X89456000Y-33278500D01*
G75*
G02*
X89283500Y-33451000I-172500J0D01*
G01*
X88938500Y-33451000D01*
G75*
G02*
X88766000Y-33278500I0J172500D01*
G01*
G37*
G36*
G01*
X87323000Y-26674500D02*
X87323000Y-26279500D01*
G75*
G02*
X87495500Y-26107000I172500J0D01*
G01*
X87840500Y-26107000D01*
G75*
G02*
X88013000Y-26279500I0J-172500D01*
G01*
X88013000Y-26674500D01*
G75*
G02*
X87840500Y-26847000I-172500J0D01*
G01*
X87495500Y-26847000D01*
G75*
G02*
X87323000Y-26674500I0J172500D01*
G01*
G37*
G36*
G01*
X86353000Y-26674500D02*
X86353000Y-26279500D01*
G75*
G02*
X86525500Y-26107000I172500J0D01*
G01*
X86870500Y-26107000D01*
G75*
G02*
X87043000Y-26279500I0J-172500D01*
G01*
X87043000Y-26674500D01*
G75*
G02*
X86870500Y-26847000I-172500J0D01*
G01*
X86525500Y-26847000D01*
G75*
G02*
X86353000Y-26674500I0J172500D01*
G01*
G37*
G36*
G01*
X89228000Y-26674500D02*
X89228000Y-26279500D01*
G75*
G02*
X89400500Y-26107000I172500J0D01*
G01*
X89745500Y-26107000D01*
G75*
G02*
X89918000Y-26279500I0J-172500D01*
G01*
X89918000Y-26674500D01*
G75*
G02*
X89745500Y-26847000I-172500J0D01*
G01*
X89400500Y-26847000D01*
G75*
G02*
X89228000Y-26674500I0J172500D01*
G01*
G37*
G36*
G01*
X88258000Y-26674500D02*
X88258000Y-26279500D01*
G75*
G02*
X88430500Y-26107000I172500J0D01*
G01*
X88775500Y-26107000D01*
G75*
G02*
X88948000Y-26279500I0J-172500D01*
G01*
X88948000Y-26674500D01*
G75*
G02*
X88775500Y-26847000I-172500J0D01*
G01*
X88430500Y-26847000D01*
G75*
G02*
X88258000Y-26674500I0J172500D01*
G01*
G37*
G36*
G01*
X77010000Y-39614500D02*
X77010000Y-40009500D01*
G75*
G02*
X76837500Y-40182000I-172500J0D01*
G01*
X76492500Y-40182000D01*
G75*
G02*
X76320000Y-40009500I0J172500D01*
G01*
X76320000Y-39614500D01*
G75*
G02*
X76492500Y-39442000I172500J0D01*
G01*
X76837500Y-39442000D01*
G75*
G02*
X77010000Y-39614500I0J-172500D01*
G01*
G37*
G36*
G01*
X77980000Y-39614500D02*
X77980000Y-40009500D01*
G75*
G02*
X77807500Y-40182000I-172500J0D01*
G01*
X77462500Y-40182000D01*
G75*
G02*
X77290000Y-40009500I0J172500D01*
G01*
X77290000Y-39614500D01*
G75*
G02*
X77462500Y-39442000I172500J0D01*
G01*
X77807500Y-39442000D01*
G75*
G02*
X77980000Y-39614500I0J-172500D01*
G01*
G37*
G36*
G01*
X77010000Y-33645500D02*
X77010000Y-34040500D01*
G75*
G02*
X76837500Y-34213000I-172500J0D01*
G01*
X76492500Y-34213000D01*
G75*
G02*
X76320000Y-34040500I0J172500D01*
G01*
X76320000Y-33645500D01*
G75*
G02*
X76492500Y-33473000I172500J0D01*
G01*
X76837500Y-33473000D01*
G75*
G02*
X77010000Y-33645500I0J-172500D01*
G01*
G37*
G36*
G01*
X77980000Y-33645500D02*
X77980000Y-34040500D01*
G75*
G02*
X77807500Y-34213000I-172500J0D01*
G01*
X77462500Y-34213000D01*
G75*
G02*
X77290000Y-34040500I0J172500D01*
G01*
X77290000Y-33645500D01*
G75*
G02*
X77462500Y-33473000I172500J0D01*
G01*
X77807500Y-33473000D01*
G75*
G02*
X77980000Y-33645500I0J-172500D01*
G01*
G37*
G36*
G01*
X74369000Y-41152500D02*
X74369000Y-40757500D01*
G75*
G02*
X74541500Y-40585000I172500J0D01*
G01*
X74886500Y-40585000D01*
G75*
G02*
X75059000Y-40757500I0J-172500D01*
G01*
X75059000Y-41152500D01*
G75*
G02*
X74886500Y-41325000I-172500J0D01*
G01*
X74541500Y-41325000D01*
G75*
G02*
X74369000Y-41152500I0J172500D01*
G01*
G37*
G36*
G01*
X73399000Y-41152500D02*
X73399000Y-40757500D01*
G75*
G02*
X73571500Y-40585000I172500J0D01*
G01*
X73916500Y-40585000D01*
G75*
G02*
X74089000Y-40757500I0J-172500D01*
G01*
X74089000Y-41152500D01*
G75*
G02*
X73916500Y-41325000I-172500J0D01*
G01*
X73571500Y-41325000D01*
G75*
G02*
X73399000Y-41152500I0J172500D01*
G01*
G37*
D10*
X71856000Y-24699000D03*
G36*
G01*
X75256000Y-23913706D02*
X75256000Y-25484294D01*
G75*
G02*
X74991294Y-25749000I-264706J0D01*
G01*
X73720706Y-25749000D01*
G75*
G02*
X73456000Y-25484294I0J264706D01*
G01*
X73456000Y-23913706D01*
G75*
G02*
X73720706Y-23649000I264706J0D01*
G01*
X74991294Y-23649000D01*
G75*
G02*
X75256000Y-23913706I0J-264706D01*
G01*
G37*
D11*
X62348000Y-25080000D03*
D12*
X66228000Y-25080000D03*
G36*
G01*
X84500000Y-40387518D02*
X84500000Y-43300482D01*
G75*
G02*
X84231482Y-43569000I-268518J0D01*
G01*
X83318518Y-43569000D01*
G75*
G02*
X83050000Y-43300482I0J268518D01*
G01*
X83050000Y-40387518D01*
G75*
G02*
X83318518Y-40119000I268518J0D01*
G01*
X84231482Y-40119000D01*
G75*
G02*
X84500000Y-40387518I0J-268518D01*
G01*
G37*
G36*
G01*
X90300000Y-40387518D02*
X90300000Y-43300482D01*
G75*
G02*
X90031482Y-43569000I-268518J0D01*
G01*
X89118518Y-43569000D01*
G75*
G02*
X88850000Y-43300482I0J268518D01*
G01*
X88850000Y-40387518D01*
G75*
G02*
X89118518Y-40119000I268518J0D01*
G01*
X90031482Y-40119000D01*
G75*
G02*
X90300000Y-40387518I0J-268518D01*
G01*
G37*
G36*
G01*
X84495000Y-35688518D02*
X84495000Y-38601482D01*
G75*
G02*
X84226482Y-38870000I-268518J0D01*
G01*
X83313518Y-38870000D01*
G75*
G02*
X83045000Y-38601482I0J268518D01*
G01*
X83045000Y-35688518D01*
G75*
G02*
X83313518Y-35420000I268518J0D01*
G01*
X84226482Y-35420000D01*
G75*
G02*
X84495000Y-35688518I0J-268518D01*
G01*
G37*
G36*
G01*
X90295000Y-35688518D02*
X90295000Y-38601482D01*
G75*
G02*
X90026482Y-38870000I-268518J0D01*
G01*
X89113518Y-38870000D01*
G75*
G02*
X88845000Y-38601482I0J268518D01*
G01*
X88845000Y-35688518D01*
G75*
G02*
X89113518Y-35420000I268518J0D01*
G01*
X90026482Y-35420000D01*
G75*
G02*
X90295000Y-35688518I0J-268518D01*
G01*
G37*
D13*
X33236000Y-26982000D03*
X34986000Y-26982000D03*
X34986000Y-28382000D03*
X33236000Y-28382000D03*
G36*
G01*
X62974000Y-31966000D02*
X62624000Y-31966000D01*
G75*
G02*
X62449000Y-31791000I0J175000D01*
G01*
X62449000Y-30391000D01*
G75*
G02*
X62624000Y-30216000I175000J0D01*
G01*
X62974000Y-30216000D01*
G75*
G02*
X63149000Y-30391000I0J-175000D01*
G01*
X63149000Y-31791000D01*
G75*
G02*
X62974000Y-31966000I-175000J0D01*
G01*
G37*
G36*
G01*
X64244000Y-31966000D02*
X63894000Y-31966000D01*
G75*
G02*
X63719000Y-31791000I0J175000D01*
G01*
X63719000Y-30391000D01*
G75*
G02*
X63894000Y-30216000I175000J0D01*
G01*
X64244000Y-30216000D01*
G75*
G02*
X64419000Y-30391000I0J-175000D01*
G01*
X64419000Y-31791000D01*
G75*
G02*
X64244000Y-31966000I-175000J0D01*
G01*
G37*
G36*
G01*
X65514000Y-31966000D02*
X65164000Y-31966000D01*
G75*
G02*
X64989000Y-31791000I0J175000D01*
G01*
X64989000Y-30391000D01*
G75*
G02*
X65164000Y-30216000I175000J0D01*
G01*
X65514000Y-30216000D01*
G75*
G02*
X65689000Y-30391000I0J-175000D01*
G01*
X65689000Y-31791000D01*
G75*
G02*
X65514000Y-31966000I-175000J0D01*
G01*
G37*
G36*
G01*
X66784000Y-31966000D02*
X66434000Y-31966000D01*
G75*
G02*
X66259000Y-31791000I0J175000D01*
G01*
X66259000Y-30391000D01*
G75*
G02*
X66434000Y-30216000I175000J0D01*
G01*
X66784000Y-30216000D01*
G75*
G02*
X66959000Y-30391000I0J-175000D01*
G01*
X66959000Y-31791000D01*
G75*
G02*
X66784000Y-31966000I-175000J0D01*
G01*
G37*
G36*
G01*
X66784000Y-37216000D02*
X66434000Y-37216000D01*
G75*
G02*
X66259000Y-37041000I0J175000D01*
G01*
X66259000Y-35641000D01*
G75*
G02*
X66434000Y-35466000I175000J0D01*
G01*
X66784000Y-35466000D01*
G75*
G02*
X66959000Y-35641000I0J-175000D01*
G01*
X66959000Y-37041000D01*
G75*
G02*
X66784000Y-37216000I-175000J0D01*
G01*
G37*
G36*
G01*
X65514000Y-37216000D02*
X65164000Y-37216000D01*
G75*
G02*
X64989000Y-37041000I0J175000D01*
G01*
X64989000Y-35641000D01*
G75*
G02*
X65164000Y-35466000I175000J0D01*
G01*
X65514000Y-35466000D01*
G75*
G02*
X65689000Y-35641000I0J-175000D01*
G01*
X65689000Y-37041000D01*
G75*
G02*
X65514000Y-37216000I-175000J0D01*
G01*
G37*
G36*
G01*
X64244000Y-37216000D02*
X63894000Y-37216000D01*
G75*
G02*
X63719000Y-37041000I0J175000D01*
G01*
X63719000Y-35641000D01*
G75*
G02*
X63894000Y-35466000I175000J0D01*
G01*
X64244000Y-35466000D01*
G75*
G02*
X64419000Y-35641000I0J-175000D01*
G01*
X64419000Y-37041000D01*
G75*
G02*
X64244000Y-37216000I-175000J0D01*
G01*
G37*
G36*
G01*
X62974000Y-37216000D02*
X62624000Y-37216000D01*
G75*
G02*
X62449000Y-37041000I0J175000D01*
G01*
X62449000Y-35641000D01*
G75*
G02*
X62624000Y-35466000I175000J0D01*
G01*
X62974000Y-35466000D01*
G75*
G02*
X63149000Y-35641000I0J-175000D01*
G01*
X63149000Y-37041000D01*
G75*
G02*
X62974000Y-37216000I-175000J0D01*
G01*
G37*
D14*
X75525000Y-47698000D03*
X75525000Y-48198000D03*
X75525000Y-48698000D03*
X75525000Y-49198000D03*
X72425000Y-49198000D03*
X72425000Y-48698000D03*
X72425000Y-48198000D03*
X72425000Y-47698000D03*
X42707000Y-48055000D03*
X42707000Y-47555000D03*
X42707000Y-47055000D03*
X42707000Y-46555000D03*
X45807000Y-46555000D03*
X45807000Y-47055000D03*
X45807000Y-47555000D03*
X45807000Y-48055000D03*
X82966000Y-49198000D03*
X82966000Y-48698000D03*
X82966000Y-48198000D03*
X82966000Y-47698000D03*
X86066000Y-47698000D03*
X86066000Y-48198000D03*
X86066000Y-48698000D03*
X86066000Y-49198000D03*
D15*
X27112000Y-23556000D03*
D16*
X23212000Y-25461000D03*
X23212000Y-24191000D03*
X23212000Y-22921000D03*
X23212000Y-21651000D03*
X31012000Y-21651000D03*
X31012000Y-22921000D03*
X31012000Y-24191000D03*
X31012000Y-25461000D03*
D17*
X32573000Y-57846000D03*
X30033000Y-57846000D03*
G36*
G01*
X26543000Y-58531900D02*
X26543000Y-57160100D01*
G75*
G02*
X26807100Y-56896000I264100J0D01*
G01*
X28178900Y-56896000D01*
G75*
G02*
X28443000Y-57160100I0J-264100D01*
G01*
X28443000Y-58531900D01*
G75*
G02*
X28178900Y-58796000I-264100J0D01*
G01*
X26807100Y-58796000D01*
G75*
G02*
X26543000Y-58531900I0J264100D01*
G01*
G37*
D18*
X33462000Y-36764000D03*
G36*
G01*
X36499500Y-33839000D02*
X37299500Y-33839000D01*
G75*
G02*
X37387000Y-33926500I0J-87500D01*
G01*
X37387000Y-34101500D01*
G75*
G02*
X37299500Y-34189000I-87500J0D01*
G01*
X36499500Y-34189000D01*
G75*
G02*
X36412000Y-34101500I0J87500D01*
G01*
X36412000Y-33926500D01*
G75*
G02*
X36499500Y-33839000I87500J0D01*
G01*
G37*
G36*
G01*
X36499500Y-34339000D02*
X37299500Y-34339000D01*
G75*
G02*
X37387000Y-34426500I0J-87500D01*
G01*
X37387000Y-34601500D01*
G75*
G02*
X37299500Y-34689000I-87500J0D01*
G01*
X36499500Y-34689000D01*
G75*
G02*
X36412000Y-34601500I0J87500D01*
G01*
X36412000Y-34426500D01*
G75*
G02*
X36499500Y-34339000I87500J0D01*
G01*
G37*
G36*
G01*
X36499500Y-34839000D02*
X37299500Y-34839000D01*
G75*
G02*
X37387000Y-34926500I0J-87500D01*
G01*
X37387000Y-35101500D01*
G75*
G02*
X37299500Y-35189000I-87500J0D01*
G01*
X36499500Y-35189000D01*
G75*
G02*
X36412000Y-35101500I0J87500D01*
G01*
X36412000Y-34926500D01*
G75*
G02*
X36499500Y-34839000I87500J0D01*
G01*
G37*
G36*
G01*
X36499500Y-35339000D02*
X37299500Y-35339000D01*
G75*
G02*
X37387000Y-35426500I0J-87500D01*
G01*
X37387000Y-35601500D01*
G75*
G02*
X37299500Y-35689000I-87500J0D01*
G01*
X36499500Y-35689000D01*
G75*
G02*
X36412000Y-35601500I0J87500D01*
G01*
X36412000Y-35426500D01*
G75*
G02*
X36499500Y-35339000I87500J0D01*
G01*
G37*
G36*
G01*
X36499500Y-35839000D02*
X37299500Y-35839000D01*
G75*
G02*
X37387000Y-35926500I0J-87500D01*
G01*
X37387000Y-36101500D01*
G75*
G02*
X37299500Y-36189000I-87500J0D01*
G01*
X36499500Y-36189000D01*
G75*
G02*
X36412000Y-36101500I0J87500D01*
G01*
X36412000Y-35926500D01*
G75*
G02*
X36499500Y-35839000I87500J0D01*
G01*
G37*
G36*
G01*
X36499500Y-36339000D02*
X37299500Y-36339000D01*
G75*
G02*
X37387000Y-36426500I0J-87500D01*
G01*
X37387000Y-36601500D01*
G75*
G02*
X37299500Y-36689000I-87500J0D01*
G01*
X36499500Y-36689000D01*
G75*
G02*
X36412000Y-36601500I0J87500D01*
G01*
X36412000Y-36426500D01*
G75*
G02*
X36499500Y-36339000I87500J0D01*
G01*
G37*
G36*
G01*
X36499500Y-36839000D02*
X37299500Y-36839000D01*
G75*
G02*
X37387000Y-36926500I0J-87500D01*
G01*
X37387000Y-37101500D01*
G75*
G02*
X37299500Y-37189000I-87500J0D01*
G01*
X36499500Y-37189000D01*
G75*
G02*
X36412000Y-37101500I0J87500D01*
G01*
X36412000Y-36926500D01*
G75*
G02*
X36499500Y-36839000I87500J0D01*
G01*
G37*
G36*
G01*
X36499500Y-37339000D02*
X37299500Y-37339000D01*
G75*
G02*
X37387000Y-37426500I0J-87500D01*
G01*
X37387000Y-37601500D01*
G75*
G02*
X37299500Y-37689000I-87500J0D01*
G01*
X36499500Y-37689000D01*
G75*
G02*
X36412000Y-37601500I0J87500D01*
G01*
X36412000Y-37426500D01*
G75*
G02*
X36499500Y-37339000I87500J0D01*
G01*
G37*
G36*
G01*
X36499500Y-37839000D02*
X37299500Y-37839000D01*
G75*
G02*
X37387000Y-37926500I0J-87500D01*
G01*
X37387000Y-38101500D01*
G75*
G02*
X37299500Y-38189000I-87500J0D01*
G01*
X36499500Y-38189000D01*
G75*
G02*
X36412000Y-38101500I0J87500D01*
G01*
X36412000Y-37926500D01*
G75*
G02*
X36499500Y-37839000I87500J0D01*
G01*
G37*
G36*
G01*
X36499500Y-38339000D02*
X37299500Y-38339000D01*
G75*
G02*
X37387000Y-38426500I0J-87500D01*
G01*
X37387000Y-38601500D01*
G75*
G02*
X37299500Y-38689000I-87500J0D01*
G01*
X36499500Y-38689000D01*
G75*
G02*
X36412000Y-38601500I0J87500D01*
G01*
X36412000Y-38426500D01*
G75*
G02*
X36499500Y-38339000I87500J0D01*
G01*
G37*
G36*
G01*
X36499500Y-38839000D02*
X37299500Y-38839000D01*
G75*
G02*
X37387000Y-38926500I0J-87500D01*
G01*
X37387000Y-39101500D01*
G75*
G02*
X37299500Y-39189000I-87500J0D01*
G01*
X36499500Y-39189000D01*
G75*
G02*
X36412000Y-39101500I0J87500D01*
G01*
X36412000Y-38926500D01*
G75*
G02*
X36499500Y-38839000I87500J0D01*
G01*
G37*
G36*
G01*
X36499500Y-39339000D02*
X37299500Y-39339000D01*
G75*
G02*
X37387000Y-39426500I0J-87500D01*
G01*
X37387000Y-39601500D01*
G75*
G02*
X37299500Y-39689000I-87500J0D01*
G01*
X36499500Y-39689000D01*
G75*
G02*
X36412000Y-39601500I0J87500D01*
G01*
X36412000Y-39426500D01*
G75*
G02*
X36499500Y-39339000I87500J0D01*
G01*
G37*
G36*
G01*
X36124500Y-39714000D02*
X36299500Y-39714000D01*
G75*
G02*
X36387000Y-39801500I0J-87500D01*
G01*
X36387000Y-40601500D01*
G75*
G02*
X36299500Y-40689000I-87500J0D01*
G01*
X36124500Y-40689000D01*
G75*
G02*
X36037000Y-40601500I0J87500D01*
G01*
X36037000Y-39801500D01*
G75*
G02*
X36124500Y-39714000I87500J0D01*
G01*
G37*
G36*
G01*
X35624500Y-39714000D02*
X35799500Y-39714000D01*
G75*
G02*
X35887000Y-39801500I0J-87500D01*
G01*
X35887000Y-40601500D01*
G75*
G02*
X35799500Y-40689000I-87500J0D01*
G01*
X35624500Y-40689000D01*
G75*
G02*
X35537000Y-40601500I0J87500D01*
G01*
X35537000Y-39801500D01*
G75*
G02*
X35624500Y-39714000I87500J0D01*
G01*
G37*
G36*
G01*
X35124500Y-39714000D02*
X35299500Y-39714000D01*
G75*
G02*
X35387000Y-39801500I0J-87500D01*
G01*
X35387000Y-40601500D01*
G75*
G02*
X35299500Y-40689000I-87500J0D01*
G01*
X35124500Y-40689000D01*
G75*
G02*
X35037000Y-40601500I0J87500D01*
G01*
X35037000Y-39801500D01*
G75*
G02*
X35124500Y-39714000I87500J0D01*
G01*
G37*
G36*
G01*
X34624500Y-39714000D02*
X34799500Y-39714000D01*
G75*
G02*
X34887000Y-39801500I0J-87500D01*
G01*
X34887000Y-40601500D01*
G75*
G02*
X34799500Y-40689000I-87500J0D01*
G01*
X34624500Y-40689000D01*
G75*
G02*
X34537000Y-40601500I0J87500D01*
G01*
X34537000Y-39801500D01*
G75*
G02*
X34624500Y-39714000I87500J0D01*
G01*
G37*
G36*
G01*
X34124500Y-39714000D02*
X34299500Y-39714000D01*
G75*
G02*
X34387000Y-39801500I0J-87500D01*
G01*
X34387000Y-40601500D01*
G75*
G02*
X34299500Y-40689000I-87500J0D01*
G01*
X34124500Y-40689000D01*
G75*
G02*
X34037000Y-40601500I0J87500D01*
G01*
X34037000Y-39801500D01*
G75*
G02*
X34124500Y-39714000I87500J0D01*
G01*
G37*
G36*
G01*
X33624500Y-39714000D02*
X33799500Y-39714000D01*
G75*
G02*
X33887000Y-39801500I0J-87500D01*
G01*
X33887000Y-40601500D01*
G75*
G02*
X33799500Y-40689000I-87500J0D01*
G01*
X33624500Y-40689000D01*
G75*
G02*
X33537000Y-40601500I0J87500D01*
G01*
X33537000Y-39801500D01*
G75*
G02*
X33624500Y-39714000I87500J0D01*
G01*
G37*
G36*
G01*
X33124500Y-39714000D02*
X33299500Y-39714000D01*
G75*
G02*
X33387000Y-39801500I0J-87500D01*
G01*
X33387000Y-40601500D01*
G75*
G02*
X33299500Y-40689000I-87500J0D01*
G01*
X33124500Y-40689000D01*
G75*
G02*
X33037000Y-40601500I0J87500D01*
G01*
X33037000Y-39801500D01*
G75*
G02*
X33124500Y-39714000I87500J0D01*
G01*
G37*
G36*
G01*
X32624500Y-39714000D02*
X32799500Y-39714000D01*
G75*
G02*
X32887000Y-39801500I0J-87500D01*
G01*
X32887000Y-40601500D01*
G75*
G02*
X32799500Y-40689000I-87500J0D01*
G01*
X32624500Y-40689000D01*
G75*
G02*
X32537000Y-40601500I0J87500D01*
G01*
X32537000Y-39801500D01*
G75*
G02*
X32624500Y-39714000I87500J0D01*
G01*
G37*
G36*
G01*
X32124500Y-39714000D02*
X32299500Y-39714000D01*
G75*
G02*
X32387000Y-39801500I0J-87500D01*
G01*
X32387000Y-40601500D01*
G75*
G02*
X32299500Y-40689000I-87500J0D01*
G01*
X32124500Y-40689000D01*
G75*
G02*
X32037000Y-40601500I0J87500D01*
G01*
X32037000Y-39801500D01*
G75*
G02*
X32124500Y-39714000I87500J0D01*
G01*
G37*
G36*
G01*
X31624500Y-39714000D02*
X31799500Y-39714000D01*
G75*
G02*
X31887000Y-39801500I0J-87500D01*
G01*
X31887000Y-40601500D01*
G75*
G02*
X31799500Y-40689000I-87500J0D01*
G01*
X31624500Y-40689000D01*
G75*
G02*
X31537000Y-40601500I0J87500D01*
G01*
X31537000Y-39801500D01*
G75*
G02*
X31624500Y-39714000I87500J0D01*
G01*
G37*
G36*
G01*
X31124500Y-39714000D02*
X31299500Y-39714000D01*
G75*
G02*
X31387000Y-39801500I0J-87500D01*
G01*
X31387000Y-40601500D01*
G75*
G02*
X31299500Y-40689000I-87500J0D01*
G01*
X31124500Y-40689000D01*
G75*
G02*
X31037000Y-40601500I0J87500D01*
G01*
X31037000Y-39801500D01*
G75*
G02*
X31124500Y-39714000I87500J0D01*
G01*
G37*
G36*
G01*
X30624500Y-39714000D02*
X30799500Y-39714000D01*
G75*
G02*
X30887000Y-39801500I0J-87500D01*
G01*
X30887000Y-40601500D01*
G75*
G02*
X30799500Y-40689000I-87500J0D01*
G01*
X30624500Y-40689000D01*
G75*
G02*
X30537000Y-40601500I0J87500D01*
G01*
X30537000Y-39801500D01*
G75*
G02*
X30624500Y-39714000I87500J0D01*
G01*
G37*
G36*
G01*
X29624500Y-39339000D02*
X30424500Y-39339000D01*
G75*
G02*
X30512000Y-39426500I0J-87500D01*
G01*
X30512000Y-39601500D01*
G75*
G02*
X30424500Y-39689000I-87500J0D01*
G01*
X29624500Y-39689000D01*
G75*
G02*
X29537000Y-39601500I0J87500D01*
G01*
X29537000Y-39426500D01*
G75*
G02*
X29624500Y-39339000I87500J0D01*
G01*
G37*
G36*
G01*
X29624500Y-38839000D02*
X30424500Y-38839000D01*
G75*
G02*
X30512000Y-38926500I0J-87500D01*
G01*
X30512000Y-39101500D01*
G75*
G02*
X30424500Y-39189000I-87500J0D01*
G01*
X29624500Y-39189000D01*
G75*
G02*
X29537000Y-39101500I0J87500D01*
G01*
X29537000Y-38926500D01*
G75*
G02*
X29624500Y-38839000I87500J0D01*
G01*
G37*
G36*
G01*
X29624500Y-38339000D02*
X30424500Y-38339000D01*
G75*
G02*
X30512000Y-38426500I0J-87500D01*
G01*
X30512000Y-38601500D01*
G75*
G02*
X30424500Y-38689000I-87500J0D01*
G01*
X29624500Y-38689000D01*
G75*
G02*
X29537000Y-38601500I0J87500D01*
G01*
X29537000Y-38426500D01*
G75*
G02*
X29624500Y-38339000I87500J0D01*
G01*
G37*
G36*
G01*
X29624500Y-37839000D02*
X30424500Y-37839000D01*
G75*
G02*
X30512000Y-37926500I0J-87500D01*
G01*
X30512000Y-38101500D01*
G75*
G02*
X30424500Y-38189000I-87500J0D01*
G01*
X29624500Y-38189000D01*
G75*
G02*
X29537000Y-38101500I0J87500D01*
G01*
X29537000Y-37926500D01*
G75*
G02*
X29624500Y-37839000I87500J0D01*
G01*
G37*
G36*
G01*
X29624500Y-37339000D02*
X30424500Y-37339000D01*
G75*
G02*
X30512000Y-37426500I0J-87500D01*
G01*
X30512000Y-37601500D01*
G75*
G02*
X30424500Y-37689000I-87500J0D01*
G01*
X29624500Y-37689000D01*
G75*
G02*
X29537000Y-37601500I0J87500D01*
G01*
X29537000Y-37426500D01*
G75*
G02*
X29624500Y-37339000I87500J0D01*
G01*
G37*
G36*
G01*
X29624500Y-36839000D02*
X30424500Y-36839000D01*
G75*
G02*
X30512000Y-36926500I0J-87500D01*
G01*
X30512000Y-37101500D01*
G75*
G02*
X30424500Y-37189000I-87500J0D01*
G01*
X29624500Y-37189000D01*
G75*
G02*
X29537000Y-37101500I0J87500D01*
G01*
X29537000Y-36926500D01*
G75*
G02*
X29624500Y-36839000I87500J0D01*
G01*
G37*
G36*
G01*
X29624500Y-36339000D02*
X30424500Y-36339000D01*
G75*
G02*
X30512000Y-36426500I0J-87500D01*
G01*
X30512000Y-36601500D01*
G75*
G02*
X30424500Y-36689000I-87500J0D01*
G01*
X29624500Y-36689000D01*
G75*
G02*
X29537000Y-36601500I0J87500D01*
G01*
X29537000Y-36426500D01*
G75*
G02*
X29624500Y-36339000I87500J0D01*
G01*
G37*
G36*
G01*
X29624500Y-35839000D02*
X30424500Y-35839000D01*
G75*
G02*
X30512000Y-35926500I0J-87500D01*
G01*
X30512000Y-36101500D01*
G75*
G02*
X30424500Y-36189000I-87500J0D01*
G01*
X29624500Y-36189000D01*
G75*
G02*
X29537000Y-36101500I0J87500D01*
G01*
X29537000Y-35926500D01*
G75*
G02*
X29624500Y-35839000I87500J0D01*
G01*
G37*
G36*
G01*
X29624500Y-35339000D02*
X30424500Y-35339000D01*
G75*
G02*
X30512000Y-35426500I0J-87500D01*
G01*
X30512000Y-35601500D01*
G75*
G02*
X30424500Y-35689000I-87500J0D01*
G01*
X29624500Y-35689000D01*
G75*
G02*
X29537000Y-35601500I0J87500D01*
G01*
X29537000Y-35426500D01*
G75*
G02*
X29624500Y-35339000I87500J0D01*
G01*
G37*
G36*
G01*
X29624500Y-34839000D02*
X30424500Y-34839000D01*
G75*
G02*
X30512000Y-34926500I0J-87500D01*
G01*
X30512000Y-35101500D01*
G75*
G02*
X30424500Y-35189000I-87500J0D01*
G01*
X29624500Y-35189000D01*
G75*
G02*
X29537000Y-35101500I0J87500D01*
G01*
X29537000Y-34926500D01*
G75*
G02*
X29624500Y-34839000I87500J0D01*
G01*
G37*
G36*
G01*
X29624500Y-34339000D02*
X30424500Y-34339000D01*
G75*
G02*
X30512000Y-34426500I0J-87500D01*
G01*
X30512000Y-34601500D01*
G75*
G02*
X30424500Y-34689000I-87500J0D01*
G01*
X29624500Y-34689000D01*
G75*
G02*
X29537000Y-34601500I0J87500D01*
G01*
X29537000Y-34426500D01*
G75*
G02*
X29624500Y-34339000I87500J0D01*
G01*
G37*
G36*
G01*
X29624500Y-33839000D02*
X30424500Y-33839000D01*
G75*
G02*
X30512000Y-33926500I0J-87500D01*
G01*
X30512000Y-34101500D01*
G75*
G02*
X30424500Y-34189000I-87500J0D01*
G01*
X29624500Y-34189000D01*
G75*
G02*
X29537000Y-34101500I0J87500D01*
G01*
X29537000Y-33926500D01*
G75*
G02*
X29624500Y-33839000I87500J0D01*
G01*
G37*
G36*
G01*
X30624500Y-32839000D02*
X30799500Y-32839000D01*
G75*
G02*
X30887000Y-32926500I0J-87500D01*
G01*
X30887000Y-33726500D01*
G75*
G02*
X30799500Y-33814000I-87500J0D01*
G01*
X30624500Y-33814000D01*
G75*
G02*
X30537000Y-33726500I0J87500D01*
G01*
X30537000Y-32926500D01*
G75*
G02*
X30624500Y-32839000I87500J0D01*
G01*
G37*
G36*
G01*
X31124500Y-32839000D02*
X31299500Y-32839000D01*
G75*
G02*
X31387000Y-32926500I0J-87500D01*
G01*
X31387000Y-33726500D01*
G75*
G02*
X31299500Y-33814000I-87500J0D01*
G01*
X31124500Y-33814000D01*
G75*
G02*
X31037000Y-33726500I0J87500D01*
G01*
X31037000Y-32926500D01*
G75*
G02*
X31124500Y-32839000I87500J0D01*
G01*
G37*
G36*
G01*
X31624500Y-32839000D02*
X31799500Y-32839000D01*
G75*
G02*
X31887000Y-32926500I0J-87500D01*
G01*
X31887000Y-33726500D01*
G75*
G02*
X31799500Y-33814000I-87500J0D01*
G01*
X31624500Y-33814000D01*
G75*
G02*
X31537000Y-33726500I0J87500D01*
G01*
X31537000Y-32926500D01*
G75*
G02*
X31624500Y-32839000I87500J0D01*
G01*
G37*
G36*
G01*
X32124500Y-32839000D02*
X32299500Y-32839000D01*
G75*
G02*
X32387000Y-32926500I0J-87500D01*
G01*
X32387000Y-33726500D01*
G75*
G02*
X32299500Y-33814000I-87500J0D01*
G01*
X32124500Y-33814000D01*
G75*
G02*
X32037000Y-33726500I0J87500D01*
G01*
X32037000Y-32926500D01*
G75*
G02*
X32124500Y-32839000I87500J0D01*
G01*
G37*
G36*
G01*
X32624500Y-32839000D02*
X32799500Y-32839000D01*
G75*
G02*
X32887000Y-32926500I0J-87500D01*
G01*
X32887000Y-33726500D01*
G75*
G02*
X32799500Y-33814000I-87500J0D01*
G01*
X32624500Y-33814000D01*
G75*
G02*
X32537000Y-33726500I0J87500D01*
G01*
X32537000Y-32926500D01*
G75*
G02*
X32624500Y-32839000I87500J0D01*
G01*
G37*
G36*
G01*
X33124500Y-32839000D02*
X33299500Y-32839000D01*
G75*
G02*
X33387000Y-32926500I0J-87500D01*
G01*
X33387000Y-33726500D01*
G75*
G02*
X33299500Y-33814000I-87500J0D01*
G01*
X33124500Y-33814000D01*
G75*
G02*
X33037000Y-33726500I0J87500D01*
G01*
X33037000Y-32926500D01*
G75*
G02*
X33124500Y-32839000I87500J0D01*
G01*
G37*
G36*
G01*
X33624500Y-32839000D02*
X33799500Y-32839000D01*
G75*
G02*
X33887000Y-32926500I0J-87500D01*
G01*
X33887000Y-33726500D01*
G75*
G02*
X33799500Y-33814000I-87500J0D01*
G01*
X33624500Y-33814000D01*
G75*
G02*
X33537000Y-33726500I0J87500D01*
G01*
X33537000Y-32926500D01*
G75*
G02*
X33624500Y-32839000I87500J0D01*
G01*
G37*
G36*
G01*
X34124500Y-32839000D02*
X34299500Y-32839000D01*
G75*
G02*
X34387000Y-32926500I0J-87500D01*
G01*
X34387000Y-33726500D01*
G75*
G02*
X34299500Y-33814000I-87500J0D01*
G01*
X34124500Y-33814000D01*
G75*
G02*
X34037000Y-33726500I0J87500D01*
G01*
X34037000Y-32926500D01*
G75*
G02*
X34124500Y-32839000I87500J0D01*
G01*
G37*
G36*
G01*
X34624500Y-32839000D02*
X34799500Y-32839000D01*
G75*
G02*
X34887000Y-32926500I0J-87500D01*
G01*
X34887000Y-33726500D01*
G75*
G02*
X34799500Y-33814000I-87500J0D01*
G01*
X34624500Y-33814000D01*
G75*
G02*
X34537000Y-33726500I0J87500D01*
G01*
X34537000Y-32926500D01*
G75*
G02*
X34624500Y-32839000I87500J0D01*
G01*
G37*
G36*
G01*
X35124500Y-32839000D02*
X35299500Y-32839000D01*
G75*
G02*
X35387000Y-32926500I0J-87500D01*
G01*
X35387000Y-33726500D01*
G75*
G02*
X35299500Y-33814000I-87500J0D01*
G01*
X35124500Y-33814000D01*
G75*
G02*
X35037000Y-33726500I0J87500D01*
G01*
X35037000Y-32926500D01*
G75*
G02*
X35124500Y-32839000I87500J0D01*
G01*
G37*
G36*
G01*
X35624500Y-32839000D02*
X35799500Y-32839000D01*
G75*
G02*
X35887000Y-32926500I0J-87500D01*
G01*
X35887000Y-33726500D01*
G75*
G02*
X35799500Y-33814000I-87500J0D01*
G01*
X35624500Y-33814000D01*
G75*
G02*
X35537000Y-33726500I0J87500D01*
G01*
X35537000Y-32926500D01*
G75*
G02*
X35624500Y-32839000I87500J0D01*
G01*
G37*
G36*
G01*
X36124500Y-32839000D02*
X36299500Y-32839000D01*
G75*
G02*
X36387000Y-32926500I0J-87500D01*
G01*
X36387000Y-33726500D01*
G75*
G02*
X36299500Y-33814000I-87500J0D01*
G01*
X36124500Y-33814000D01*
G75*
G02*
X36037000Y-33726500I0J87500D01*
G01*
X36037000Y-32926500D01*
G75*
G02*
X36124500Y-32839000I87500J0D01*
G01*
G37*
D19*
X44180003Y-42671999D03*
X42180003Y-43621999D03*
X42180003Y-41721999D03*
D20*
X88072000Y-29779000D03*
G36*
G01*
X89647000Y-28604000D02*
X90397000Y-28604000D01*
G75*
G02*
X90497000Y-28704000I0J-100000D01*
G01*
X90497000Y-28904000D01*
G75*
G02*
X90397000Y-29004000I-100000J0D01*
G01*
X89647000Y-29004000D01*
G75*
G02*
X89547000Y-28904000I0J100000D01*
G01*
X89547000Y-28704000D01*
G75*
G02*
X89647000Y-28604000I100000J0D01*
G01*
G37*
G36*
G01*
X89647000Y-29254000D02*
X90397000Y-29254000D01*
G75*
G02*
X90497000Y-29354000I0J-100000D01*
G01*
X90497000Y-29554000D01*
G75*
G02*
X90397000Y-29654000I-100000J0D01*
G01*
X89647000Y-29654000D01*
G75*
G02*
X89547000Y-29554000I0J100000D01*
G01*
X89547000Y-29354000D01*
G75*
G02*
X89647000Y-29254000I100000J0D01*
G01*
G37*
G36*
G01*
X89647000Y-29904000D02*
X90397000Y-29904000D01*
G75*
G02*
X90497000Y-30004000I0J-100000D01*
G01*
X90497000Y-30204000D01*
G75*
G02*
X90397000Y-30304000I-100000J0D01*
G01*
X89647000Y-30304000D01*
G75*
G02*
X89547000Y-30204000I0J100000D01*
G01*
X89547000Y-30004000D01*
G75*
G02*
X89647000Y-29904000I100000J0D01*
G01*
G37*
G36*
G01*
X89647000Y-30554000D02*
X90397000Y-30554000D01*
G75*
G02*
X90497000Y-30654000I0J-100000D01*
G01*
X90497000Y-30854000D01*
G75*
G02*
X90397000Y-30954000I-100000J0D01*
G01*
X89647000Y-30954000D01*
G75*
G02*
X89547000Y-30854000I0J100000D01*
G01*
X89547000Y-30654000D01*
G75*
G02*
X89647000Y-30554000I100000J0D01*
G01*
G37*
G36*
G01*
X88947000Y-31254000D02*
X89147000Y-31254000D01*
G75*
G02*
X89247000Y-31354000I0J-100000D01*
G01*
X89247000Y-32104000D01*
G75*
G02*
X89147000Y-32204000I-100000J0D01*
G01*
X88947000Y-32204000D01*
G75*
G02*
X88847000Y-32104000I0J100000D01*
G01*
X88847000Y-31354000D01*
G75*
G02*
X88947000Y-31254000I100000J0D01*
G01*
G37*
G36*
G01*
X88297000Y-31254000D02*
X88497000Y-31254000D01*
G75*
G02*
X88597000Y-31354000I0J-100000D01*
G01*
X88597000Y-32104000D01*
G75*
G02*
X88497000Y-32204000I-100000J0D01*
G01*
X88297000Y-32204000D01*
G75*
G02*
X88197000Y-32104000I0J100000D01*
G01*
X88197000Y-31354000D01*
G75*
G02*
X88297000Y-31254000I100000J0D01*
G01*
G37*
G36*
G01*
X87647000Y-31254000D02*
X87847000Y-31254000D01*
G75*
G02*
X87947000Y-31354000I0J-100000D01*
G01*
X87947000Y-32104000D01*
G75*
G02*
X87847000Y-32204000I-100000J0D01*
G01*
X87647000Y-32204000D01*
G75*
G02*
X87547000Y-32104000I0J100000D01*
G01*
X87547000Y-31354000D01*
G75*
G02*
X87647000Y-31254000I100000J0D01*
G01*
G37*
G36*
G01*
X86997000Y-31254000D02*
X87197000Y-31254000D01*
G75*
G02*
X87297000Y-31354000I0J-100000D01*
G01*
X87297000Y-32104000D01*
G75*
G02*
X87197000Y-32204000I-100000J0D01*
G01*
X86997000Y-32204000D01*
G75*
G02*
X86897000Y-32104000I0J100000D01*
G01*
X86897000Y-31354000D01*
G75*
G02*
X86997000Y-31254000I100000J0D01*
G01*
G37*
G36*
G01*
X85747000Y-30554000D02*
X86497000Y-30554000D01*
G75*
G02*
X86597000Y-30654000I0J-100000D01*
G01*
X86597000Y-30854000D01*
G75*
G02*
X86497000Y-30954000I-100000J0D01*
G01*
X85747000Y-30954000D01*
G75*
G02*
X85647000Y-30854000I0J100000D01*
G01*
X85647000Y-30654000D01*
G75*
G02*
X85747000Y-30554000I100000J0D01*
G01*
G37*
G36*
G01*
X85747000Y-29904000D02*
X86497000Y-29904000D01*
G75*
G02*
X86597000Y-30004000I0J-100000D01*
G01*
X86597000Y-30204000D01*
G75*
G02*
X86497000Y-30304000I-100000J0D01*
G01*
X85747000Y-30304000D01*
G75*
G02*
X85647000Y-30204000I0J100000D01*
G01*
X85647000Y-30004000D01*
G75*
G02*
X85747000Y-29904000I100000J0D01*
G01*
G37*
G36*
G01*
X85747000Y-29254000D02*
X86497000Y-29254000D01*
G75*
G02*
X86597000Y-29354000I0J-100000D01*
G01*
X86597000Y-29554000D01*
G75*
G02*
X86497000Y-29654000I-100000J0D01*
G01*
X85747000Y-29654000D01*
G75*
G02*
X85647000Y-29554000I0J100000D01*
G01*
X85647000Y-29354000D01*
G75*
G02*
X85747000Y-29254000I100000J0D01*
G01*
G37*
G36*
G01*
X85747000Y-28604000D02*
X86497000Y-28604000D01*
G75*
G02*
X86597000Y-28704000I0J-100000D01*
G01*
X86597000Y-28904000D01*
G75*
G02*
X86497000Y-29004000I-100000J0D01*
G01*
X85747000Y-29004000D01*
G75*
G02*
X85647000Y-28904000I0J100000D01*
G01*
X85647000Y-28704000D01*
G75*
G02*
X85747000Y-28604000I100000J0D01*
G01*
G37*
G36*
G01*
X86997000Y-27354000D02*
X87197000Y-27354000D01*
G75*
G02*
X87297000Y-27454000I0J-100000D01*
G01*
X87297000Y-28204000D01*
G75*
G02*
X87197000Y-28304000I-100000J0D01*
G01*
X86997000Y-28304000D01*
G75*
G02*
X86897000Y-28204000I0J100000D01*
G01*
X86897000Y-27454000D01*
G75*
G02*
X86997000Y-27354000I100000J0D01*
G01*
G37*
G36*
G01*
X87647000Y-27354000D02*
X87847000Y-27354000D01*
G75*
G02*
X87947000Y-27454000I0J-100000D01*
G01*
X87947000Y-28204000D01*
G75*
G02*
X87847000Y-28304000I-100000J0D01*
G01*
X87647000Y-28304000D01*
G75*
G02*
X87547000Y-28204000I0J100000D01*
G01*
X87547000Y-27454000D01*
G75*
G02*
X87647000Y-27354000I100000J0D01*
G01*
G37*
G36*
G01*
X88297000Y-27354000D02*
X88497000Y-27354000D01*
G75*
G02*
X88597000Y-27454000I0J-100000D01*
G01*
X88597000Y-28204000D01*
G75*
G02*
X88497000Y-28304000I-100000J0D01*
G01*
X88297000Y-28304000D01*
G75*
G02*
X88197000Y-28204000I0J100000D01*
G01*
X88197000Y-27454000D01*
G75*
G02*
X88297000Y-27354000I100000J0D01*
G01*
G37*
G36*
G01*
X88947000Y-27354000D02*
X89147000Y-27354000D01*
G75*
G02*
X89247000Y-27454000I0J-100000D01*
G01*
X89247000Y-28204000D01*
G75*
G02*
X89147000Y-28304000I-100000J0D01*
G01*
X88947000Y-28304000D01*
G75*
G02*
X88847000Y-28204000I0J100000D01*
G01*
X88847000Y-27454000D01*
G75*
G02*
X88947000Y-27354000I100000J0D01*
G01*
G37*
D21*
X33464500Y-24828500D03*
G36*
G01*
X46951250Y-21605000D02*
X46388750Y-21605000D01*
G75*
G02*
X46145000Y-21361250I0J243750D01*
G01*
X46145000Y-20873750D01*
G75*
G02*
X46388750Y-20630000I243750J0D01*
G01*
X46951250Y-20630000D01*
G75*
G02*
X47195000Y-20873750I0J-243750D01*
G01*
X47195000Y-21361250D01*
G75*
G02*
X46951250Y-21605000I-243750J0D01*
G01*
G37*
G36*
G01*
X46951250Y-23180000D02*
X46388750Y-23180000D01*
G75*
G02*
X46145000Y-22936250I0J243750D01*
G01*
X46145000Y-22448750D01*
G75*
G02*
X46388750Y-22205000I243750J0D01*
G01*
X46951250Y-22205000D01*
G75*
G02*
X47195000Y-22448750I0J-243750D01*
G01*
X47195000Y-22936250D01*
G75*
G02*
X46951250Y-23180000I-243750J0D01*
G01*
G37*
G36*
G01*
X31257000Y-52611750D02*
X31257000Y-53174250D01*
G75*
G02*
X31013250Y-53418000I-243750J0D01*
G01*
X30525750Y-53418000D01*
G75*
G02*
X30282000Y-53174250I0J243750D01*
G01*
X30282000Y-52611750D01*
G75*
G02*
X30525750Y-52368000I243750J0D01*
G01*
X31013250Y-52368000D01*
G75*
G02*
X31257000Y-52611750I0J-243750D01*
G01*
G37*
G36*
G01*
X32832000Y-52611750D02*
X32832000Y-53174250D01*
G75*
G02*
X32588250Y-53418000I-243750J0D01*
G01*
X32100750Y-53418000D01*
G75*
G02*
X31857000Y-53174250I0J243750D01*
G01*
X31857000Y-52611750D01*
G75*
G02*
X32100750Y-52368000I243750J0D01*
G01*
X32588250Y-52368000D01*
G75*
G02*
X32832000Y-52611750I0J-243750D01*
G01*
G37*
G36*
G01*
X38080000Y-51716250D02*
X38080000Y-51153750D01*
G75*
G02*
X38323750Y-50910000I243750J0D01*
G01*
X38811250Y-50910000D01*
G75*
G02*
X39055000Y-51153750I0J-243750D01*
G01*
X39055000Y-51716250D01*
G75*
G02*
X38811250Y-51960000I-243750J0D01*
G01*
X38323750Y-51960000D01*
G75*
G02*
X38080000Y-51716250I0J243750D01*
G01*
G37*
G36*
G01*
X36505000Y-51716250D02*
X36505000Y-51153750D01*
G75*
G02*
X36748750Y-50910000I243750J0D01*
G01*
X37236250Y-50910000D01*
G75*
G02*
X37480000Y-51153750I0J-243750D01*
G01*
X37480000Y-51716250D01*
G75*
G02*
X37236250Y-51960000I-243750J0D01*
G01*
X36748750Y-51960000D01*
G75*
G02*
X36505000Y-51716250I0J243750D01*
G01*
G37*
D22*
X44130000Y-21159000D03*
X45080000Y-23159000D03*
X43180000Y-23159000D03*
X37780000Y-52909000D03*
X38730000Y-54909000D03*
X36830000Y-54909000D03*
X81087000Y-41860000D03*
X82037000Y-43860000D03*
X80137000Y-43860000D03*
X81087000Y-35875000D03*
X82037000Y-37875000D03*
X80137000Y-37875000D03*
D23*
X55560000Y-36840000D03*
X55560000Y-46340000D03*
D24*
X81087000Y-27168000D03*
X81087000Y-21468000D03*
D25*
X76612001Y-52641997D03*
X74112001Y-52641997D03*
G36*
G01*
X70712001Y-53402291D02*
X70712001Y-51881703D01*
G75*
G02*
X70976707Y-51616997I264706J0D01*
G01*
X72247295Y-51616997D01*
G75*
G02*
X72512001Y-51881703I0J-264706D01*
G01*
X72512001Y-53402291D01*
G75*
G02*
X72247295Y-53666997I-264706J0D01*
G01*
X70976707Y-53666997D01*
G75*
G02*
X70712001Y-53402291I0J264706D01*
G01*
G37*
D26*
X43876000Y-50480000D03*
X46416000Y-50480000D03*
D27*
X48956000Y-50480000D03*
D25*
X97073404Y-52544495D03*
X94573404Y-52544495D03*
G36*
G01*
X91173404Y-53304789D02*
X91173404Y-51784201D01*
G75*
G02*
X91438110Y-51519495I264706J0D01*
G01*
X92708698Y-51519495D01*
G75*
G02*
X92973404Y-51784201I0J-264706D01*
G01*
X92973404Y-53304789D01*
G75*
G02*
X92708698Y-53569495I-264706J0D01*
G01*
X91438110Y-53569495D01*
G75*
G02*
X91173404Y-53304789I0J264706D01*
G01*
G37*
X86861997Y-52591999D03*
X84361997Y-52591999D03*
G36*
G01*
X80961997Y-53352293D02*
X80961997Y-51831705D01*
G75*
G02*
X81226703Y-51566999I264706J0D01*
G01*
X82497291Y-51566999D01*
G75*
G02*
X82761997Y-51831705I0J-264706D01*
G01*
X82761997Y-53352293D01*
G75*
G02*
X82497291Y-53616999I-264706J0D01*
G01*
X81226703Y-53616999D01*
G75*
G02*
X80961997Y-53352293I0J264706D01*
G01*
G37*
X66412004Y-52667000D03*
X63912004Y-52667000D03*
G36*
G01*
X60512004Y-53427294D02*
X60512004Y-51906706D01*
G75*
G02*
X60776710Y-51642000I264706J0D01*
G01*
X62047298Y-51642000D01*
G75*
G02*
X62312004Y-51906706I0J-264706D01*
G01*
X62312004Y-53427294D01*
G75*
G02*
X62047298Y-53692000I-264706J0D01*
G01*
X60776710Y-53692000D01*
G75*
G02*
X60512004Y-53427294I0J264706D01*
G01*
G37*
D26*
X52004000Y-50480000D03*
X54544000Y-50480000D03*
D27*
X57084000Y-50480000D03*
D28*
X50322000Y-22073000D03*
X50322000Y-32913000D03*
D29*
X48622000Y-23743000D03*
X48622000Y-24243000D03*
X48622000Y-24743000D03*
X48622000Y-25243000D03*
X48622000Y-25743000D03*
X48622000Y-26243000D03*
X48622000Y-26743000D03*
X48622000Y-27243000D03*
X48622000Y-27743000D03*
X48622000Y-28243000D03*
X48622000Y-28743000D03*
X48622000Y-29243000D03*
X48622000Y-29743000D03*
X48622000Y-30243000D03*
X48622000Y-30743000D03*
X48622000Y-31243000D03*
D30*
X29718000Y-49403000D03*
X30988000Y-49403000D03*
X32258000Y-49403000D03*
D31*
X33528000Y-49403000D03*
D32*
X91840000Y-36840000D03*
X91840000Y-39340000D03*
G36*
G01*
X92600294Y-42740000D02*
X91079706Y-42740000D01*
G75*
G02*
X90815000Y-42475294I0J264706D01*
G01*
X90815000Y-41204706D01*
G75*
G02*
X91079706Y-40940000I264706J0D01*
G01*
X92600294Y-40940000D01*
G75*
G02*
X92865000Y-41204706I0J-264706D01*
G01*
X92865000Y-42475294D01*
G75*
G02*
X92600294Y-42740000I-264706J0D01*
G01*
G37*
D33*
X98307502Y-22018895D03*
X92507502Y-22018895D03*
D34*
X91907502Y-22018895D03*
X98907502Y-22018895D03*
D35*
X96407502Y-22018895D03*
D36*
X92907502Y-24718895D03*
D37*
X95407502Y-24718895D03*
X94757502Y-24718895D03*
X94107502Y-24718895D03*
X96707502Y-24718895D03*
X96057502Y-24718895D03*
D36*
X97907502Y-24718895D03*
D35*
X94407502Y-22018895D03*
D38*
X71816000Y-37653000D03*
D39*
X69318500Y-39558000D03*
X69318500Y-38288000D03*
X69318500Y-37018000D03*
X69318500Y-35748000D03*
X74313500Y-35748000D03*
X74313500Y-37018000D03*
X74313500Y-38288000D03*
X74313500Y-39558000D03*
D40*
X78608000Y-43729000D03*
X77658000Y-43729000D03*
X76708000Y-43729000D03*
X76708000Y-41229000D03*
X77658000Y-41229000D03*
X78608000Y-41229000D03*
X78608000Y-37760000D03*
X77658000Y-37760000D03*
X76708000Y-37760000D03*
X76708000Y-35260000D03*
X77658000Y-35260000D03*
X78608000Y-35260000D03*
D41*
X64516000Y-39907000D03*
X64516000Y-46707000D03*
D17*
X36977000Y-57785000D03*
X39477000Y-57785000D03*
G36*
G01*
X92944000Y-33108250D02*
X92944000Y-32545750D01*
G75*
G02*
X93187750Y-32302000I243750J0D01*
G01*
X93675250Y-32302000D01*
G75*
G02*
X93919000Y-32545750I0J-243750D01*
G01*
X93919000Y-33108250D01*
G75*
G02*
X93675250Y-33352000I-243750J0D01*
G01*
X93187750Y-33352000D01*
G75*
G02*
X92944000Y-33108250I0J243750D01*
G01*
G37*
G36*
G01*
X91369000Y-33108250D02*
X91369000Y-32545750D01*
G75*
G02*
X91612750Y-32302000I243750J0D01*
G01*
X92100250Y-32302000D01*
G75*
G02*
X92344000Y-32545750I0J-243750D01*
G01*
X92344000Y-33108250D01*
G75*
G02*
X92100250Y-33352000I-243750J0D01*
G01*
X91612750Y-33352000D01*
G75*
G02*
X91369000Y-33108250I0J243750D01*
G01*
G37*
G36*
G01*
X92944000Y-31584250D02*
X92944000Y-31021750D01*
G75*
G02*
X93187750Y-30778000I243750J0D01*
G01*
X93675250Y-30778000D01*
G75*
G02*
X93919000Y-31021750I0J-243750D01*
G01*
X93919000Y-31584250D01*
G75*
G02*
X93675250Y-31828000I-243750J0D01*
G01*
X93187750Y-31828000D01*
G75*
G02*
X92944000Y-31584250I0J243750D01*
G01*
G37*
G36*
G01*
X91369000Y-31584250D02*
X91369000Y-31021750D01*
G75*
G02*
X91612750Y-30778000I243750J0D01*
G01*
X92100250Y-30778000D01*
G75*
G02*
X92344000Y-31021750I0J-243750D01*
G01*
X92344000Y-31584250D01*
G75*
G02*
X92100250Y-31828000I-243750J0D01*
G01*
X91612750Y-31828000D01*
G75*
G02*
X91369000Y-31584250I0J243750D01*
G01*
G37*
D42*
X97970000Y-28100000D03*
X97970000Y-32100000D03*
G36*
G01*
X71528000Y-31196000D02*
X71528000Y-29886000D01*
G75*
G02*
X71798000Y-29616000I270000J0D01*
G01*
X72608000Y-29616000D01*
G75*
G02*
X72878000Y-29886000I0J-270000D01*
G01*
X72878000Y-31196000D01*
G75*
G02*
X72608000Y-31466000I-270000J0D01*
G01*
X71798000Y-31466000D01*
G75*
G02*
X71528000Y-31196000I0J270000D01*
G01*
G37*
G36*
G01*
X68728000Y-31196000D02*
X68728000Y-29886000D01*
G75*
G02*
X68998000Y-29616000I270000J0D01*
G01*
X69808000Y-29616000D01*
G75*
G02*
X70078000Y-29886000I0J-270000D01*
G01*
X70078000Y-31196000D01*
G75*
G02*
X69808000Y-31466000I-270000J0D01*
G01*
X68998000Y-31466000D01*
G75*
G02*
X68728000Y-31196000I0J270000D01*
G01*
G37*
G36*
G01*
X31257000Y-54135750D02*
X31257000Y-54698250D01*
G75*
G02*
X31013250Y-54942000I-243750J0D01*
G01*
X30525750Y-54942000D01*
G75*
G02*
X30282000Y-54698250I0J243750D01*
G01*
X30282000Y-54135750D01*
G75*
G02*
X30525750Y-53892000I243750J0D01*
G01*
X31013250Y-53892000D01*
G75*
G02*
X31257000Y-54135750I0J-243750D01*
G01*
G37*
G36*
G01*
X32832000Y-54135750D02*
X32832000Y-54698250D01*
G75*
G02*
X32588250Y-54942000I-243750J0D01*
G01*
X32100750Y-54942000D01*
G75*
G02*
X31857000Y-54698250I0J243750D01*
G01*
X31857000Y-54135750D01*
G75*
G02*
X32100750Y-53892000I243750J0D01*
G01*
X32588250Y-53892000D01*
G75*
G02*
X32832000Y-54135750I0J-243750D01*
G01*
G37*
G36*
G01*
X43226002Y-45493246D02*
X43226002Y-44930746D01*
G75*
G02*
X43469752Y-44686996I243750J0D01*
G01*
X43957252Y-44686996D01*
G75*
G02*
X44201002Y-44930746I0J-243750D01*
G01*
X44201002Y-45493246D01*
G75*
G02*
X43957252Y-45736996I-243750J0D01*
G01*
X43469752Y-45736996D01*
G75*
G02*
X43226002Y-45493246I0J243750D01*
G01*
G37*
G36*
G01*
X41651002Y-45493246D02*
X41651002Y-44930746D01*
G75*
G02*
X41894752Y-44686996I243750J0D01*
G01*
X42382252Y-44686996D01*
G75*
G02*
X42626002Y-44930746I0J-243750D01*
G01*
X42626002Y-45493246D01*
G75*
G02*
X42382252Y-45736996I-243750J0D01*
G01*
X41894752Y-45736996D01*
G75*
G02*
X41651002Y-45493246I0J243750D01*
G01*
G37*
G36*
G01*
X43070500Y-39914250D02*
X43070500Y-40476750D01*
G75*
G02*
X42826750Y-40720500I-243750J0D01*
G01*
X42339250Y-40720500D01*
G75*
G02*
X42095500Y-40476750I0J243750D01*
G01*
X42095500Y-39914250D01*
G75*
G02*
X42339250Y-39670500I243750J0D01*
G01*
X42826750Y-39670500D01*
G75*
G02*
X43070500Y-39914250I0J-243750D01*
G01*
G37*
G36*
G01*
X44645500Y-39914250D02*
X44645500Y-40476750D01*
G75*
G02*
X44401750Y-40720500I-243750J0D01*
G01*
X43914250Y-40720500D01*
G75*
G02*
X43670500Y-40476750I0J243750D01*
G01*
X43670500Y-39914250D01*
G75*
G02*
X43914250Y-39670500I243750J0D01*
G01*
X44401750Y-39670500D01*
G75*
G02*
X44645500Y-39914250I0J-243750D01*
G01*
G37*
G36*
G01*
X25626750Y-37892000D02*
X26189250Y-37892000D01*
G75*
G02*
X26433000Y-38135750I0J-243750D01*
G01*
X26433000Y-38623250D01*
G75*
G02*
X26189250Y-38867000I-243750J0D01*
G01*
X25626750Y-38867000D01*
G75*
G02*
X25383000Y-38623250I0J243750D01*
G01*
X25383000Y-38135750D01*
G75*
G02*
X25626750Y-37892000I243750J0D01*
G01*
G37*
G36*
G01*
X25626750Y-36317000D02*
X26189250Y-36317000D01*
G75*
G02*
X26433000Y-36560750I0J-243750D01*
G01*
X26433000Y-37048250D01*
G75*
G02*
X26189250Y-37292000I-243750J0D01*
G01*
X25626750Y-37292000D01*
G75*
G02*
X25383000Y-37048250I0J243750D01*
G01*
X25383000Y-36560750D01*
G75*
G02*
X25626750Y-36317000I243750J0D01*
G01*
G37*
G36*
G01*
X48096000Y-43200000D02*
X48096000Y-41890000D01*
G75*
G02*
X48366000Y-41620000I270000J0D01*
G01*
X49176000Y-41620000D01*
G75*
G02*
X49446000Y-41890000I0J-270000D01*
G01*
X49446000Y-43200000D01*
G75*
G02*
X49176000Y-43470000I-270000J0D01*
G01*
X48366000Y-43470000D01*
G75*
G02*
X48096000Y-43200000I0J270000D01*
G01*
G37*
G36*
G01*
X45296000Y-43200000D02*
X45296000Y-41890000D01*
G75*
G02*
X45566000Y-41620000I270000J0D01*
G01*
X46376000Y-41620000D01*
G75*
G02*
X46646000Y-41890000I0J-270000D01*
G01*
X46646000Y-43200000D01*
G75*
G02*
X46376000Y-43470000I-270000J0D01*
G01*
X45566000Y-43470000D01*
G75*
G02*
X45296000Y-43200000I0J270000D01*
G01*
G37*
G36*
G01*
X81632000Y-31791000D02*
X81632000Y-33101000D01*
G75*
G02*
X81362000Y-33371000I-270000J0D01*
G01*
X80552000Y-33371000D01*
G75*
G02*
X80282000Y-33101000I0J270000D01*
G01*
X80282000Y-31791000D01*
G75*
G02*
X80552000Y-31521000I270000J0D01*
G01*
X81362000Y-31521000D01*
G75*
G02*
X81632000Y-31791000I0J-270000D01*
G01*
G37*
G36*
G01*
X84432000Y-31791000D02*
X84432000Y-33101000D01*
G75*
G02*
X84162000Y-33371000I-270000J0D01*
G01*
X83352000Y-33371000D01*
G75*
G02*
X83082000Y-33101000I0J270000D01*
G01*
X83082000Y-31791000D01*
G75*
G02*
X83352000Y-31521000I270000J0D01*
G01*
X84162000Y-31521000D01*
G75*
G02*
X84432000Y-31791000I0J-270000D01*
G01*
G37*
G36*
G01*
X48096000Y-45486000D02*
X48096000Y-44176000D01*
G75*
G02*
X48366000Y-43906000I270000J0D01*
G01*
X49176000Y-43906000D01*
G75*
G02*
X49446000Y-44176000I0J-270000D01*
G01*
X49446000Y-45486000D01*
G75*
G02*
X49176000Y-45756000I-270000J0D01*
G01*
X48366000Y-45756000D01*
G75*
G02*
X48096000Y-45486000I0J270000D01*
G01*
G37*
G36*
G01*
X45296000Y-45486000D02*
X45296000Y-44176000D01*
G75*
G02*
X45566000Y-43906000I270000J0D01*
G01*
X46376000Y-43906000D01*
G75*
G02*
X46646000Y-44176000I0J-270000D01*
G01*
X46646000Y-45486000D01*
G75*
G02*
X46376000Y-45756000I-270000J0D01*
G01*
X45566000Y-45756000D01*
G75*
G02*
X45296000Y-45486000I0J270000D01*
G01*
G37*
G36*
G01*
X71525000Y-33482000D02*
X71525000Y-32172000D01*
G75*
G02*
X71795000Y-31902000I270000J0D01*
G01*
X72605000Y-31902000D01*
G75*
G02*
X72875000Y-32172000I0J-270000D01*
G01*
X72875000Y-33482000D01*
G75*
G02*
X72605000Y-33752000I-270000J0D01*
G01*
X71795000Y-33752000D01*
G75*
G02*
X71525000Y-33482000I0J270000D01*
G01*
G37*
G36*
G01*
X68725000Y-33482000D02*
X68725000Y-32172000D01*
G75*
G02*
X68995000Y-31902000I270000J0D01*
G01*
X69805000Y-31902000D01*
G75*
G02*
X70075000Y-32172000I0J-270000D01*
G01*
X70075000Y-33482000D01*
G75*
G02*
X69805000Y-33752000I-270000J0D01*
G01*
X68995000Y-33752000D01*
G75*
G02*
X68725000Y-33482000I0J270000D01*
G01*
G37*
G36*
G01*
X81632000Y-29505000D02*
X81632000Y-30815000D01*
G75*
G02*
X81362000Y-31085000I-270000J0D01*
G01*
X80552000Y-31085000D01*
G75*
G02*
X80282000Y-30815000I0J270000D01*
G01*
X80282000Y-29505000D01*
G75*
G02*
X80552000Y-29235000I270000J0D01*
G01*
X81362000Y-29235000D01*
G75*
G02*
X81632000Y-29505000I0J-270000D01*
G01*
G37*
G36*
G01*
X84432000Y-29505000D02*
X84432000Y-30815000D01*
G75*
G02*
X84162000Y-31085000I-270000J0D01*
G01*
X83352000Y-31085000D01*
G75*
G02*
X83082000Y-30815000I0J270000D01*
G01*
X83082000Y-29505000D01*
G75*
G02*
X83352000Y-29235000I270000J0D01*
G01*
X84162000Y-29235000D01*
G75*
G02*
X84432000Y-29505000I0J-270000D01*
G01*
G37*
G36*
G01*
X93062000Y-27092000D02*
X93062000Y-28402000D01*
G75*
G02*
X92792000Y-28672000I-270000J0D01*
G01*
X91982000Y-28672000D01*
G75*
G02*
X91712000Y-28402000I0J270000D01*
G01*
X91712000Y-27092000D01*
G75*
G02*
X91982000Y-26822000I270000J0D01*
G01*
X92792000Y-26822000D01*
G75*
G02*
X93062000Y-27092000I0J-270000D01*
G01*
G37*
G36*
G01*
X95862000Y-27092000D02*
X95862000Y-28402000D01*
G75*
G02*
X95592000Y-28672000I-270000J0D01*
G01*
X94782000Y-28672000D01*
G75*
G02*
X94512000Y-28402000I0J270000D01*
G01*
X94512000Y-27092000D01*
G75*
G02*
X94782000Y-26822000I270000J0D01*
G01*
X95592000Y-26822000D01*
G75*
G02*
X95862000Y-27092000I0J-270000D01*
G01*
G37*
M02*
