G04 #@! TF.GenerationSoftware,KiCad,Pcbnew,(5.1.6)-1*
G04 #@! TF.CreationDate,2021-02-25T15:27:45+08:00*
G04 #@! TF.ProjectId,Light_detector_V1.0,4c696768-745f-4646-9574-6563746f725f,rev?*
G04 #@! TF.SameCoordinates,Original*
G04 #@! TF.FileFunction,Copper,L2,Bot*
G04 #@! TF.FilePolarity,Positive*
%FSLAX46Y46*%
G04 Gerber Fmt 4.6, Leading zero omitted, Abs format (unit mm)*
G04 Created by KiCad (PCBNEW (5.1.6)-1) date 2021-02-25 15:27:45*
%MOMM*%
%LPD*%
G01*
G04 APERTURE LIST*
G04 #@! TA.AperFunction,ComponentPad*
%ADD10O,1.700000X2.000000*%
G04 #@! TD*
G04 #@! TA.AperFunction,ComponentPad*
%ADD11C,3.000000*%
G04 #@! TD*
G04 #@! TA.AperFunction,ComponentPad*
%ADD12R,3.000000X3.000000*%
G04 #@! TD*
G04 #@! TA.AperFunction,ComponentPad*
%ADD13C,1.800000*%
G04 #@! TD*
G04 #@! TA.AperFunction,Conductor*
%ADD14R,2.100000X2.100000*%
G04 #@! TD*
G04 #@! TA.AperFunction,ViaPad*
%ADD15C,0.600000*%
G04 #@! TD*
G04 #@! TA.AperFunction,ComponentPad*
%ADD16O,1.700000X1.950000*%
G04 #@! TD*
G04 #@! TA.AperFunction,ComponentPad*
%ADD17O,1.700000X1.700000*%
G04 #@! TD*
G04 #@! TA.AperFunction,ComponentPad*
%ADD18R,1.700000X1.700000*%
G04 #@! TD*
G04 #@! TA.AperFunction,ComponentPad*
%ADD19O,1.000000X1.000000*%
G04 #@! TD*
G04 #@! TA.AperFunction,ComponentPad*
%ADD20R,1.000000X1.000000*%
G04 #@! TD*
G04 #@! TA.AperFunction,ComponentPad*
%ADD21O,1.950000X1.700000*%
G04 #@! TD*
G04 #@! TA.AperFunction,ComponentPad*
%ADD22O,1.200000X1.900000*%
G04 #@! TD*
G04 #@! TA.AperFunction,ComponentPad*
%ADD23C,1.450000*%
G04 #@! TD*
G04 #@! TA.AperFunction,ViaPad*
%ADD24C,0.800000*%
G04 #@! TD*
G04 #@! TA.AperFunction,Conductor*
%ADD25C,2.032000*%
G04 #@! TD*
G04 #@! TA.AperFunction,Conductor*
%ADD26C,2.540000*%
G04 #@! TD*
G04 #@! TA.AperFunction,Conductor*
%ADD27C,0.254000*%
G04 #@! TD*
G04 #@! TA.AperFunction,Conductor*
%ADD28C,0.203200*%
G04 #@! TD*
G04 #@! TA.AperFunction,Conductor*
%ADD29C,1.270000*%
G04 #@! TD*
G04 #@! TA.AperFunction,Conductor*
%ADD30C,0.762000*%
G04 #@! TD*
G04 #@! TA.AperFunction,Conductor*
%ADD31C,0.508000*%
G04 #@! TD*
G04 #@! TA.AperFunction,Conductor*
%ADD32C,0.381000*%
G04 #@! TD*
G04 APERTURE END LIST*
D10*
X71856000Y-24699000D03*
G04 #@! TA.AperFunction,ComponentPad*
G36*
G01*
X75206000Y-23949000D02*
X75206000Y-25449000D01*
G75*
G02*
X74956000Y-25699000I-250000J0D01*
G01*
X73756000Y-25699000D01*
G75*
G02*
X73506000Y-25449000I0J250000D01*
G01*
X73506000Y-23949000D01*
G75*
G02*
X73756000Y-23699000I250000J0D01*
G01*
X74956000Y-23699000D01*
G75*
G02*
X75206000Y-23949000I0J-250000D01*
G01*
G37*
G04 #@! TD.AperFunction*
D11*
X62348000Y-25080000D03*
D12*
X66228000Y-25080000D03*
D13*
X32573000Y-57846000D03*
X30033000Y-57846000D03*
G04 #@! TA.AperFunction,ComponentPad*
G36*
G01*
X26593000Y-58495800D02*
X26593000Y-57196200D01*
G75*
G02*
X26843200Y-56946000I250200J0D01*
G01*
X28142800Y-56946000D01*
G75*
G02*
X28393000Y-57196200I0J-250200D01*
G01*
X28393000Y-58495800D01*
G75*
G02*
X28142800Y-58746000I-250200J0D01*
G01*
X26843200Y-58746000D01*
G75*
G02*
X26593000Y-58495800I0J250200D01*
G01*
G37*
G04 #@! TD.AperFunction*
D14*
X88072000Y-29779000D03*
D15*
X87322000Y-30529000D03*
X87322000Y-29779000D03*
X87322000Y-29029000D03*
X88072000Y-30529000D03*
X88072000Y-29779000D03*
X88072000Y-29029000D03*
X88822000Y-30529000D03*
X88822000Y-29779000D03*
X88822000Y-29029000D03*
D16*
X76612001Y-52641997D03*
X74112001Y-52641997D03*
G04 #@! TA.AperFunction,ComponentPad*
G36*
G01*
X70762001Y-53366997D02*
X70762001Y-51916997D01*
G75*
G02*
X71012001Y-51666997I250000J0D01*
G01*
X72212001Y-51666997D01*
G75*
G02*
X72462001Y-51916997I0J-250000D01*
G01*
X72462001Y-53366997D01*
G75*
G02*
X72212001Y-53616997I-250000J0D01*
G01*
X71012001Y-53616997D01*
G75*
G02*
X70762001Y-53366997I0J250000D01*
G01*
G37*
G04 #@! TD.AperFunction*
D17*
X43876000Y-50480000D03*
X46416000Y-50480000D03*
D18*
X48956000Y-50480000D03*
D16*
X97073404Y-52544495D03*
X94573404Y-52544495D03*
G04 #@! TA.AperFunction,ComponentPad*
G36*
G01*
X91223404Y-53269495D02*
X91223404Y-51819495D01*
G75*
G02*
X91473404Y-51569495I250000J0D01*
G01*
X92673404Y-51569495D01*
G75*
G02*
X92923404Y-51819495I0J-250000D01*
G01*
X92923404Y-53269495D01*
G75*
G02*
X92673404Y-53519495I-250000J0D01*
G01*
X91473404Y-53519495D01*
G75*
G02*
X91223404Y-53269495I0J250000D01*
G01*
G37*
G04 #@! TD.AperFunction*
X86861997Y-52591999D03*
X84361997Y-52591999D03*
G04 #@! TA.AperFunction,ComponentPad*
G36*
G01*
X81011997Y-53316999D02*
X81011997Y-51866999D01*
G75*
G02*
X81261997Y-51616999I250000J0D01*
G01*
X82461997Y-51616999D01*
G75*
G02*
X82711997Y-51866999I0J-250000D01*
G01*
X82711997Y-53316999D01*
G75*
G02*
X82461997Y-53566999I-250000J0D01*
G01*
X81261997Y-53566999D01*
G75*
G02*
X81011997Y-53316999I0J250000D01*
G01*
G37*
G04 #@! TD.AperFunction*
X66412004Y-52667000D03*
X63912004Y-52667000D03*
G04 #@! TA.AperFunction,ComponentPad*
G36*
G01*
X60562004Y-53392000D02*
X60562004Y-51942000D01*
G75*
G02*
X60812004Y-51692000I250000J0D01*
G01*
X62012004Y-51692000D01*
G75*
G02*
X62262004Y-51942000I0J-250000D01*
G01*
X62262004Y-53392000D01*
G75*
G02*
X62012004Y-53642000I-250000J0D01*
G01*
X60812004Y-53642000D01*
G75*
G02*
X60562004Y-53392000I0J250000D01*
G01*
G37*
G04 #@! TD.AperFunction*
D17*
X52004000Y-50480000D03*
X54544000Y-50480000D03*
D18*
X57084000Y-50480000D03*
D19*
X29718000Y-49403000D03*
X30988000Y-49403000D03*
X32258000Y-49403000D03*
D20*
X33528000Y-49403000D03*
D21*
X91840000Y-36840000D03*
X91840000Y-39340000D03*
G04 #@! TA.AperFunction,ComponentPad*
G36*
G01*
X92565000Y-42690000D02*
X91115000Y-42690000D01*
G75*
G02*
X90865000Y-42440000I0J250000D01*
G01*
X90865000Y-41240000D01*
G75*
G02*
X91115000Y-40990000I250000J0D01*
G01*
X92565000Y-40990000D01*
G75*
G02*
X92815000Y-41240000I0J-250000D01*
G01*
X92815000Y-42440000D01*
G75*
G02*
X92565000Y-42690000I-250000J0D01*
G01*
G37*
G04 #@! TD.AperFunction*
D22*
X91907502Y-22018895D03*
X98907502Y-22018895D03*
D23*
X92907502Y-24718895D03*
X97907502Y-24718895D03*
D13*
X36977000Y-57785000D03*
X39477000Y-57785000D03*
D15*
X31940500Y-34925000D03*
X56515000Y-36703000D03*
X92898000Y-28255000D03*
X92898000Y-27239000D03*
X80960000Y-34605000D03*
X92898000Y-27747000D03*
X81849000Y-34605000D03*
X82738000Y-34605000D03*
X83754000Y-34605000D03*
X86106000Y-33147000D03*
X87249000Y-34036000D03*
X90043000Y-34036000D03*
X95809989Y-25844998D03*
X74168000Y-42037000D03*
X69723000Y-40259000D03*
X73871000Y-31661000D03*
X33528000Y-34925000D03*
X35179000Y-34925000D03*
X31940500Y-38100000D03*
X33528000Y-38100000D03*
X35179000Y-38100000D03*
X25400000Y-37084000D03*
X93345000Y-34671000D03*
X95123000Y-34671000D03*
X80957000Y-32327000D03*
X80957000Y-33020000D03*
X36004500Y-21336000D03*
X38100000Y-21336000D03*
X40513000Y-21336000D03*
X33782000Y-21336000D03*
D24*
X85791000Y-45527000D03*
X88140500Y-45527000D03*
X90485000Y-45527000D03*
X83378000Y-45527000D03*
X97073404Y-45611096D03*
X97073404Y-42690096D03*
X97073404Y-39578596D03*
X97091500Y-36639500D03*
D15*
X72390000Y-36576000D03*
X71247000Y-37655500D03*
X71247000Y-38798500D03*
X71247000Y-36576000D03*
X72390000Y-38798500D03*
X72390000Y-37655500D03*
X28892500Y-51308000D03*
X30480000Y-51308000D03*
X38671500Y-33972500D03*
X38671500Y-32956500D03*
X34925000Y-23304500D03*
X37084000Y-23304500D03*
X39370000Y-23304500D03*
X40513000Y-25209500D03*
X38163500Y-25209500D03*
X35941000Y-25209500D03*
X36576000Y-49466500D03*
X37782500Y-49466500D03*
X39052500Y-49530000D03*
X40576500Y-41592500D03*
X42164000Y-41592500D03*
X45148500Y-38798500D03*
X46418500Y-38798500D03*
X45847000Y-37719000D03*
X69659500Y-46545500D03*
X70802500Y-46545500D03*
X72009000Y-46545500D03*
X33528000Y-36512500D03*
X74676000Y-47698000D03*
X81788000Y-49783998D03*
X44704000Y-27559000D03*
X36004500Y-30289500D03*
X29718000Y-30226000D03*
X24257000Y-30099000D03*
X45148500Y-27114500D03*
X25654000Y-40640000D03*
X22796500Y-32702500D03*
X22288500Y-33210500D03*
X21717000Y-41656000D03*
X40576500Y-46223232D03*
X36956998Y-46147010D03*
X29147457Y-38156628D03*
X41021000Y-35560000D03*
X35052000Y-47625000D03*
X35439113Y-48397188D03*
X34925000Y-32131008D03*
X40702991Y-31415565D03*
X46569758Y-32089713D03*
X28384500Y-38608000D03*
X46981823Y-32719258D03*
X27732565Y-38162991D03*
X47677770Y-32029428D03*
X27114504Y-38671500D03*
X33909000Y-43687994D03*
X34712000Y-43393002D03*
X95032600Y-26035000D03*
X32766000Y-29845000D03*
X33464500Y-24828500D03*
X24888892Y-33524892D03*
X26670000Y-35306000D03*
X27560779Y-35304951D03*
X25449647Y-32964137D03*
X24892000Y-32131000D03*
X28321000Y-34925000D03*
X28813749Y-31438977D03*
X28956000Y-34290000D03*
X62672000Y-28763000D03*
X25019000Y-45212000D03*
X23114000Y-36068002D03*
X41551726Y-47838226D03*
X39052500Y-35623500D03*
X25908000Y-45212000D03*
X23139033Y-37058892D03*
X41718004Y-47055000D03*
X39206272Y-36507218D03*
X31750001Y-41148005D03*
X41208753Y-36600237D03*
X30861000Y-41148000D03*
X50038002Y-30733998D03*
X80899000Y-48006000D03*
X27686000Y-43687989D03*
X81026000Y-48895000D03*
X26818490Y-43666510D03*
X77470000Y-48895000D03*
X25982245Y-43613755D03*
X77724000Y-47879000D03*
X25145998Y-43561000D03*
X35657234Y-31702559D03*
X41148000Y-30543500D03*
X36540457Y-31411879D03*
X41719500Y-29845000D03*
X46666000Y-47555000D03*
D25*
X66412004Y-52667000D02*
X69559004Y-55814000D01*
D26*
X52004000Y-51682081D02*
X52004000Y-50480000D01*
X69559004Y-55814000D02*
X66487000Y-55814000D01*
X56135919Y-55814000D02*
X52004000Y-51682081D01*
X48007919Y-55814000D02*
X56135919Y-55814000D01*
X43876000Y-50480000D02*
X43876000Y-51682081D01*
X43876000Y-51682081D02*
X48007919Y-55814000D01*
X86861997Y-55505003D02*
X86553000Y-55814000D01*
X86861997Y-52591999D02*
X86861997Y-55505003D01*
X76612001Y-54768001D02*
X77658000Y-55814000D01*
X76612001Y-52641997D02*
X76612001Y-54768001D01*
X69559004Y-55814000D02*
X76774000Y-55814000D01*
X77658000Y-55814000D02*
X86553000Y-55814000D01*
X94642572Y-55814000D02*
X94554000Y-55814000D01*
X95189000Y-55814000D02*
X94642572Y-55814000D01*
X97073404Y-52544495D02*
X97073404Y-53929596D01*
X97073404Y-53929596D02*
X95189000Y-55814000D01*
D25*
X92907502Y-27229498D02*
X92390000Y-27747000D01*
X92907502Y-24718895D02*
X92907502Y-27229498D01*
X92887607Y-24699000D02*
X92907502Y-24718895D01*
X74356000Y-24699000D02*
X92887607Y-24699000D01*
X92907502Y-24718895D02*
X93632501Y-23993896D01*
X97182503Y-23993896D02*
X97907502Y-24718895D01*
X93632501Y-23993896D02*
X97182503Y-23993896D01*
X97073404Y-37581596D02*
X97073404Y-39578596D01*
X97907502Y-36747498D02*
X97073404Y-37581596D01*
X90358000Y-29779000D02*
X92898000Y-27239000D01*
X88072000Y-29779000D02*
X90358000Y-29779000D01*
D27*
X87249000Y-30602000D02*
X87322000Y-30529000D01*
X85212000Y-33147000D02*
X83754000Y-34605000D01*
X86106000Y-33147000D02*
X85212000Y-33147000D01*
X80960000Y-32449000D02*
X80957000Y-32446000D01*
D25*
X97907502Y-24718895D02*
X97907502Y-34026502D01*
D27*
X97898004Y-34036000D02*
X97907502Y-34026502D01*
D25*
X97907502Y-34026502D02*
X97907502Y-36747498D01*
D28*
X71501000Y-42037000D02*
X69723000Y-40259000D01*
X74168000Y-42037000D02*
X71501000Y-42037000D01*
X61557000Y-31661000D02*
X56515000Y-36703000D01*
X73871000Y-31661000D02*
X61557000Y-31661000D01*
D29*
X31115000Y-59817000D02*
X37445000Y-59817000D01*
X30033000Y-57846000D02*
X30033000Y-58735000D01*
X30033000Y-58735000D02*
X31115000Y-59817000D01*
X44004919Y-59817000D02*
X48007919Y-55814000D01*
X37445000Y-59817000D02*
X44004919Y-59817000D01*
D30*
X93345000Y-34671000D02*
X95123000Y-34671000D01*
X97263004Y-34671000D02*
X97907502Y-34026502D01*
X95123000Y-34671000D02*
X97263004Y-34671000D01*
X80957000Y-32327000D02*
X80957000Y-33020000D01*
X80957000Y-34602000D02*
X80960000Y-34605000D01*
X80957000Y-33020000D02*
X80957000Y-34602000D01*
X80960000Y-34605000D02*
X83754000Y-34605000D01*
X80957000Y-33335000D02*
X80957000Y-33020000D01*
X81849000Y-34605000D02*
X81849000Y-34227000D01*
X81849000Y-34227000D02*
X80957000Y-33335000D01*
X58604000Y-21336000D02*
X62348000Y-25080000D01*
X40513000Y-21336000D02*
X58604000Y-21336000D01*
X29718000Y-49403000D02*
X29718000Y-50110106D01*
X30087894Y-50480000D02*
X43876000Y-50480000D01*
X29718000Y-50110106D02*
X30087894Y-50480000D01*
D26*
X94554000Y-55814000D02*
X86870500Y-55814000D01*
X86870500Y-55814000D02*
X86553000Y-55814000D01*
X76774000Y-55814000D02*
X77658000Y-55814000D01*
X66487000Y-55814000D02*
X56135919Y-55814000D01*
D25*
X97073404Y-45611096D02*
X97073404Y-52544495D01*
X97073404Y-42690096D02*
X97073404Y-45611096D01*
X97073404Y-39578596D02*
X97073404Y-42690096D01*
D29*
X39477000Y-58493500D02*
X39477000Y-57785000D01*
X37445000Y-59817000D02*
X38153500Y-59817000D01*
X38153500Y-59817000D02*
X39477000Y-58493500D01*
D31*
X35687000Y-30607000D02*
X36004500Y-30289500D01*
D32*
X29718000Y-30226000D02*
X29718000Y-30226000D01*
D31*
X24892000Y-30607000D02*
X35687000Y-30607000D01*
D32*
X29337000Y-30607000D02*
X29718000Y-30226000D01*
X24320500Y-30162500D02*
X24257000Y-30099000D01*
X24320500Y-31178500D02*
X24320500Y-30162500D01*
D31*
X24320500Y-31178500D02*
X24892000Y-30607000D01*
X44704000Y-27559000D02*
X45148500Y-27114500D01*
D30*
X24320500Y-31178500D02*
X22796500Y-32702500D01*
X22796500Y-32702500D02*
X22288500Y-33210500D01*
X22288500Y-33210500D02*
X22225000Y-33274000D01*
D28*
X22733000Y-40640000D02*
X21717000Y-41656000D01*
X25654000Y-40640000D02*
X22733000Y-40640000D01*
D27*
X40576500Y-46223232D02*
X37033220Y-46223232D01*
X37033220Y-46223232D02*
X36956998Y-46147010D01*
D31*
X41714732Y-45085000D02*
X40576500Y-46223232D01*
X72136000Y-45085000D02*
X41714732Y-45085000D01*
X81788000Y-49783998D02*
X76834998Y-49783998D01*
X76834998Y-49783998D02*
X72136000Y-45085000D01*
X44704000Y-27559000D02*
X37465000Y-27559000D01*
X37465000Y-27559000D02*
X34417000Y-30607000D01*
D28*
X36055278Y-40525722D02*
X31516551Y-40525722D01*
X41021000Y-35560000D02*
X36055278Y-40525722D01*
X29447456Y-38456627D02*
X29147457Y-38156628D01*
X31516551Y-40525722D02*
X29447456Y-38456627D01*
X34798000Y-47879000D02*
X35052000Y-47625000D01*
X31877000Y-47879000D02*
X34798000Y-47879000D01*
X30988000Y-49403000D02*
X30988000Y-48768000D01*
X30988000Y-48768000D02*
X31877000Y-47879000D01*
X32556706Y-48397188D02*
X35439113Y-48397188D01*
X32258000Y-48695894D02*
X32556706Y-48397188D01*
X32258000Y-49403000D02*
X32258000Y-48695894D01*
X34925000Y-32131008D02*
X35115504Y-32131008D01*
X39005935Y-31415565D02*
X40702991Y-31415565D01*
X37990493Y-32431007D02*
X39005935Y-31415565D01*
X35224999Y-32431007D02*
X37990493Y-32431007D01*
X34925000Y-32131008D02*
X35224999Y-32431007D01*
X29483948Y-42087778D02*
X28384500Y-40988330D01*
X28384500Y-40988330D02*
X28384500Y-38608000D01*
X46269759Y-32389712D02*
X46269759Y-33163650D01*
X46569758Y-32089713D02*
X46269759Y-32389712D01*
X46269759Y-33163650D02*
X37345631Y-42087778D01*
X37345631Y-42087778D02*
X29483948Y-42087778D01*
X27732565Y-40839304D02*
X27732565Y-38162991D01*
X29374761Y-42481500D02*
X27732565Y-40839304D01*
X37454818Y-42481500D02*
X29374761Y-42481500D01*
X46981823Y-32954495D02*
X37454818Y-42481500D01*
X46981823Y-32719258D02*
X46981823Y-32954495D01*
X37680889Y-42837111D02*
X29227463Y-42837111D01*
X27114504Y-40724152D02*
X27114504Y-38671500D01*
X47244000Y-33274000D02*
X37680889Y-42837111D01*
X29227463Y-42837111D02*
X27114504Y-40724152D01*
X47677770Y-32840230D02*
X47677770Y-32029428D01*
X47245096Y-33269213D02*
X47248787Y-33269213D01*
X47248787Y-33269213D02*
X47677770Y-32840230D01*
X85442236Y-35560000D02*
X77898458Y-43103778D01*
X95809989Y-25844998D02*
X95809989Y-30367761D01*
X34208999Y-43987993D02*
X33909000Y-43687994D01*
X38420040Y-43103778D02*
X37535825Y-43987993D01*
X77898458Y-43103778D02*
X38420040Y-43103778D01*
X90617750Y-35560000D02*
X85442236Y-35560000D01*
X95809989Y-30367761D02*
X90617750Y-35560000D01*
X37535825Y-43987993D02*
X34208999Y-43987993D01*
X95032600Y-30570400D02*
X95032600Y-26035000D01*
X34712000Y-43393002D02*
X37627906Y-43393002D01*
X85375486Y-35052000D02*
X90551000Y-35052000D01*
X90551000Y-35052000D02*
X95032600Y-30570400D01*
X38272741Y-42748167D02*
X77679319Y-42748167D01*
X77679319Y-42748167D02*
X85375486Y-35052000D01*
X37627906Y-43393002D02*
X38272741Y-42748167D01*
X32766000Y-25527000D02*
X33464500Y-24828500D01*
X32766000Y-29845000D02*
X32766000Y-25527000D01*
X24888892Y-33524892D02*
X26670000Y-35306000D01*
X27560779Y-35304951D02*
X25449647Y-33193819D01*
X25449647Y-33193819D02*
X25449647Y-32964137D01*
X25400000Y-32131000D02*
X24892000Y-32131000D01*
X28321000Y-34925000D02*
X28194000Y-34925000D01*
X28194000Y-34925000D02*
X25400000Y-32131000D01*
X28956000Y-31581228D02*
X28813749Y-31438977D01*
X28956000Y-34290000D02*
X28956000Y-31581228D01*
X63561000Y-27874000D02*
X62672000Y-28763000D01*
X71856000Y-24699000D02*
X68681000Y-27874000D01*
X68681000Y-27874000D02*
X63561000Y-27874000D01*
X25019000Y-45212000D02*
X26187444Y-46380444D01*
X35077444Y-46380444D02*
X36535226Y-47838226D01*
X36535226Y-47838226D02*
X41551726Y-47838226D01*
X26187444Y-46380444D02*
X35077444Y-46380444D01*
X35115500Y-39814500D02*
X39052500Y-35877500D01*
X23114000Y-36068002D02*
X28384502Y-36068002D01*
X39052500Y-35877500D02*
X39052500Y-35623500D01*
X32131000Y-39814500D02*
X35115500Y-39814500D01*
X28384502Y-36068002D02*
X32131000Y-39814500D01*
X25908000Y-45212000D02*
X25908000Y-45212000D01*
X36514000Y-47055000D02*
X41718004Y-47055000D01*
X25908000Y-45212000D02*
X26720833Y-46024833D01*
X35483833Y-46024833D02*
X36514000Y-47055000D01*
X26720833Y-46024833D02*
X35483833Y-46024833D01*
X28319335Y-36505744D02*
X31983702Y-40170111D01*
X31983702Y-40170111D02*
X35543379Y-40170111D01*
X23139033Y-37058892D02*
X23692181Y-36505744D01*
X35543379Y-40170111D02*
X39206272Y-36507218D01*
X23692181Y-36505744D02*
X28319335Y-36505744D01*
X40908754Y-36900236D02*
X41208753Y-36600237D01*
X36533990Y-41275000D02*
X40908754Y-36900236D01*
X31750001Y-41148005D02*
X31876996Y-41275000D01*
X31876996Y-41275000D02*
X36533990Y-41275000D01*
X49847500Y-30924500D02*
X50038002Y-30733998D01*
X30861000Y-41148000D02*
X31415006Y-41702006D01*
X37037994Y-41702006D02*
X45910500Y-32829500D01*
X46878912Y-30924500D02*
X49847500Y-30924500D01*
X31415006Y-41702006D02*
X37037994Y-41702006D01*
X45910500Y-32829500D02*
X45910500Y-31892912D01*
X45910500Y-31892912D02*
X46878912Y-30924500D01*
X28478177Y-44480166D02*
X27985999Y-43987988D01*
X27985999Y-43987988D02*
X27686000Y-43687989D01*
X76352389Y-43459389D02*
X38567337Y-43459389D01*
X38567337Y-43459389D02*
X37546560Y-44480166D01*
X37546560Y-44480166D02*
X28478177Y-44480166D01*
X80899000Y-48006000D02*
X76352389Y-43459389D01*
X81026000Y-48895000D02*
X80601736Y-48895000D01*
X27987757Y-44835777D02*
X27118489Y-43966509D01*
X80601736Y-48895000D02*
X75521736Y-43815000D01*
X27118489Y-43966509D02*
X26818490Y-43666510D01*
X38714636Y-43815000D02*
X37693859Y-44835777D01*
X75521736Y-43815000D02*
X38714636Y-43815000D01*
X37693859Y-44835777D02*
X27987757Y-44835777D01*
X35009113Y-45191387D02*
X34963111Y-45237389D01*
X34963111Y-45237389D02*
X27584389Y-45237389D01*
X37841158Y-45191386D02*
X35009113Y-45191387D01*
X38861934Y-44170610D02*
X37841158Y-45191386D01*
X77894264Y-48895000D02*
X78278001Y-48511263D01*
X27584389Y-45237389D02*
X25982245Y-43635245D01*
X75153519Y-44170610D02*
X38861934Y-44170610D01*
X25982245Y-43635245D02*
X25982245Y-43613755D01*
X77470000Y-48895000D02*
X77894264Y-48895000D01*
X78278001Y-47295092D02*
X75153519Y-44170610D01*
X78278001Y-48511263D02*
X78278001Y-47295092D01*
X26796998Y-45212000D02*
X25145998Y-43561000D01*
X27177998Y-45593000D02*
X26796998Y-45212000D01*
X77724000Y-47498000D02*
X74752220Y-44526220D01*
X77724000Y-47879000D02*
X77724000Y-47498000D01*
X74752220Y-44526220D02*
X39009232Y-44526220D01*
X39009232Y-44526220D02*
X37942452Y-45593000D01*
X37942452Y-45593000D02*
X27177998Y-45593000D01*
X37916034Y-32002558D02*
X39375092Y-30543500D01*
X35957233Y-32002558D02*
X37916034Y-32002558D01*
X39375092Y-30543500D02*
X41148000Y-30543500D01*
X35657234Y-31702559D02*
X35957233Y-32002558D01*
X36540457Y-31411879D02*
X38107336Y-29845000D01*
X38107336Y-29845000D02*
X41719500Y-29845000D01*
X51619000Y-47555000D02*
X46666000Y-47555000D01*
X54544000Y-50480000D02*
X51619000Y-47555000D01*
D27*
G36*
X99467001Y-60317000D02*
G01*
X17533000Y-60317000D01*
X17533000Y-57196200D01*
X26082543Y-57196200D01*
X26082543Y-58495800D01*
X26097159Y-58644197D01*
X26140445Y-58786891D01*
X26210737Y-58918398D01*
X26305334Y-59033666D01*
X26420602Y-59128263D01*
X26552109Y-59198555D01*
X26694803Y-59241841D01*
X26843200Y-59256457D01*
X28142800Y-59256457D01*
X28291197Y-59241841D01*
X28433891Y-59198555D01*
X28565398Y-59128263D01*
X28680666Y-59033666D01*
X28775263Y-58918398D01*
X28845555Y-58786891D01*
X28888841Y-58644197D01*
X28903457Y-58495800D01*
X28903457Y-57707324D01*
X31165000Y-57707324D01*
X31165000Y-57984676D01*
X31219108Y-58256699D01*
X31325246Y-58512938D01*
X31479335Y-58743548D01*
X31675452Y-58939665D01*
X31906062Y-59093754D01*
X32162301Y-59199892D01*
X32434324Y-59254000D01*
X32711676Y-59254000D01*
X32983699Y-59199892D01*
X33239938Y-59093754D01*
X33470548Y-58939665D01*
X33666665Y-58743548D01*
X33820754Y-58512938D01*
X33926892Y-58256699D01*
X33981000Y-57984676D01*
X33981000Y-57707324D01*
X33968867Y-57646324D01*
X35569000Y-57646324D01*
X35569000Y-57923676D01*
X35623108Y-58195699D01*
X35729246Y-58451938D01*
X35883335Y-58682548D01*
X36079452Y-58878665D01*
X36310062Y-59032754D01*
X36566301Y-59138892D01*
X36838324Y-59193000D01*
X37115676Y-59193000D01*
X37387699Y-59138892D01*
X37643938Y-59032754D01*
X37874548Y-58878665D01*
X38070665Y-58682548D01*
X38224754Y-58451938D01*
X38330892Y-58195699D01*
X38385000Y-57923676D01*
X38385000Y-57646324D01*
X38330892Y-57374301D01*
X38224754Y-57118062D01*
X38070665Y-56887452D01*
X37874548Y-56691335D01*
X37643938Y-56537246D01*
X37387699Y-56431108D01*
X37115676Y-56377000D01*
X36838324Y-56377000D01*
X36566301Y-56431108D01*
X36310062Y-56537246D01*
X36079452Y-56691335D01*
X35883335Y-56887452D01*
X35729246Y-57118062D01*
X35623108Y-57374301D01*
X35569000Y-57646324D01*
X33968867Y-57646324D01*
X33926892Y-57435301D01*
X33820754Y-57179062D01*
X33666665Y-56948452D01*
X33470548Y-56752335D01*
X33239938Y-56598246D01*
X32983699Y-56492108D01*
X32711676Y-56438000D01*
X32434324Y-56438000D01*
X32162301Y-56492108D01*
X31906062Y-56598246D01*
X31675452Y-56752335D01*
X31479335Y-56948452D01*
X31325246Y-57179062D01*
X31219108Y-57435301D01*
X31165000Y-57707324D01*
X28903457Y-57707324D01*
X28903457Y-57196200D01*
X28888841Y-57047803D01*
X28845555Y-56905109D01*
X28775263Y-56773602D01*
X28680666Y-56658334D01*
X28565398Y-56563737D01*
X28433891Y-56493445D01*
X28291197Y-56450159D01*
X28142800Y-56435543D01*
X26843200Y-56435543D01*
X26694803Y-56450159D01*
X26552109Y-56493445D01*
X26420602Y-56563737D01*
X26305334Y-56658334D01*
X26210737Y-56773602D01*
X26140445Y-56905109D01*
X26097159Y-57047803D01*
X26082543Y-57196200D01*
X17533000Y-57196200D01*
X17533000Y-51942000D01*
X60051547Y-51942000D01*
X60051547Y-53392000D01*
X60066159Y-53540358D01*
X60109433Y-53683014D01*
X60179707Y-53814487D01*
X60274280Y-53929724D01*
X60389517Y-54024297D01*
X60520990Y-54094571D01*
X60663646Y-54137845D01*
X60812004Y-54152457D01*
X62012004Y-54152457D01*
X62160362Y-54137845D01*
X62303018Y-54094571D01*
X62434491Y-54024297D01*
X62549728Y-53929724D01*
X62644301Y-53814487D01*
X62714575Y-53683014D01*
X62757849Y-53540358D01*
X62760081Y-53517700D01*
X62777406Y-53550114D01*
X62947108Y-53756897D01*
X63153891Y-53926598D01*
X63389807Y-54052698D01*
X63645791Y-54130350D01*
X63912004Y-54156570D01*
X64178218Y-54130350D01*
X64434202Y-54052698D01*
X64670118Y-53926598D01*
X64876901Y-53756897D01*
X65046602Y-53550113D01*
X65172702Y-53314197D01*
X65250354Y-53058213D01*
X65270004Y-52858705D01*
X65270004Y-52475294D01*
X65250354Y-52275786D01*
X65172702Y-52019802D01*
X65117752Y-51916997D01*
X70251544Y-51916997D01*
X70251544Y-53366997D01*
X70266156Y-53515355D01*
X70309430Y-53658011D01*
X70379704Y-53789484D01*
X70474277Y-53904721D01*
X70589514Y-53999294D01*
X70720987Y-54069568D01*
X70863643Y-54112842D01*
X71012001Y-54127454D01*
X72212001Y-54127454D01*
X72360359Y-54112842D01*
X72503015Y-54069568D01*
X72634488Y-53999294D01*
X72749725Y-53904721D01*
X72844298Y-53789484D01*
X72914572Y-53658011D01*
X72957846Y-53515355D01*
X72960078Y-53492697D01*
X72977403Y-53525111D01*
X73147105Y-53731894D01*
X73353888Y-53901595D01*
X73589804Y-54027695D01*
X73845788Y-54105347D01*
X74112001Y-54131567D01*
X74378215Y-54105347D01*
X74634199Y-54027695D01*
X74870115Y-53901595D01*
X75076898Y-53731894D01*
X75246599Y-53525110D01*
X75372699Y-53289194D01*
X75450351Y-53033210D01*
X75470001Y-52833702D01*
X75470001Y-52450291D01*
X75450351Y-52250783D01*
X75372699Y-51994799D01*
X75304389Y-51866999D01*
X80501540Y-51866999D01*
X80501540Y-53316999D01*
X80516152Y-53465357D01*
X80559426Y-53608013D01*
X80629700Y-53739486D01*
X80724273Y-53854723D01*
X80839510Y-53949296D01*
X80970983Y-54019570D01*
X81113639Y-54062844D01*
X81261997Y-54077456D01*
X82461997Y-54077456D01*
X82610355Y-54062844D01*
X82753011Y-54019570D01*
X82884484Y-53949296D01*
X82999721Y-53854723D01*
X83094294Y-53739486D01*
X83164568Y-53608013D01*
X83207842Y-53465357D01*
X83210074Y-53442699D01*
X83227399Y-53475113D01*
X83397101Y-53681896D01*
X83603884Y-53851597D01*
X83839800Y-53977697D01*
X84095784Y-54055349D01*
X84361997Y-54081569D01*
X84628211Y-54055349D01*
X84884195Y-53977697D01*
X85120111Y-53851597D01*
X85326894Y-53681896D01*
X85496595Y-53475112D01*
X85622695Y-53239196D01*
X85700347Y-52983212D01*
X85719997Y-52783704D01*
X85719997Y-52400293D01*
X85700347Y-52200785D01*
X85622695Y-51944801D01*
X85555718Y-51819495D01*
X90712947Y-51819495D01*
X90712947Y-53269495D01*
X90727559Y-53417853D01*
X90770833Y-53560509D01*
X90841107Y-53691982D01*
X90935680Y-53807219D01*
X91050917Y-53901792D01*
X91182390Y-53972066D01*
X91325046Y-54015340D01*
X91473404Y-54029952D01*
X92673404Y-54029952D01*
X92821762Y-54015340D01*
X92964418Y-53972066D01*
X93095891Y-53901792D01*
X93211128Y-53807219D01*
X93305701Y-53691982D01*
X93375975Y-53560509D01*
X93419249Y-53417853D01*
X93421481Y-53395195D01*
X93438806Y-53427609D01*
X93608508Y-53634392D01*
X93815291Y-53804093D01*
X94051207Y-53930193D01*
X94307191Y-54007845D01*
X94573404Y-54034065D01*
X94839618Y-54007845D01*
X95095602Y-53930193D01*
X95331518Y-53804093D01*
X95538301Y-53634392D01*
X95708002Y-53427608D01*
X95834102Y-53191692D01*
X95911754Y-52935708D01*
X95931404Y-52736200D01*
X95931404Y-52352789D01*
X95911754Y-52153281D01*
X95834102Y-51897297D01*
X95708002Y-51661381D01*
X95538300Y-51454598D01*
X95331517Y-51284897D01*
X95095601Y-51158797D01*
X94839617Y-51081145D01*
X94573404Y-51054925D01*
X94307190Y-51081145D01*
X94051206Y-51158797D01*
X93815290Y-51284897D01*
X93608507Y-51454599D01*
X93438806Y-51661382D01*
X93421481Y-51693795D01*
X93419249Y-51671137D01*
X93375975Y-51528481D01*
X93305701Y-51397008D01*
X93211128Y-51281771D01*
X93095891Y-51187198D01*
X92964418Y-51116924D01*
X92821762Y-51073650D01*
X92673404Y-51059038D01*
X91473404Y-51059038D01*
X91325046Y-51073650D01*
X91182390Y-51116924D01*
X91050917Y-51187198D01*
X90935680Y-51281771D01*
X90841107Y-51397008D01*
X90770833Y-51528481D01*
X90727559Y-51671137D01*
X90712947Y-51819495D01*
X85555718Y-51819495D01*
X85496595Y-51708885D01*
X85326893Y-51502102D01*
X85120110Y-51332401D01*
X84884194Y-51206301D01*
X84628210Y-51128649D01*
X84361997Y-51102429D01*
X84095783Y-51128649D01*
X83839799Y-51206301D01*
X83603883Y-51332401D01*
X83397100Y-51502103D01*
X83227399Y-51708886D01*
X83210074Y-51741299D01*
X83207842Y-51718641D01*
X83164568Y-51575985D01*
X83094294Y-51444512D01*
X82999721Y-51329275D01*
X82884484Y-51234702D01*
X82753011Y-51164428D01*
X82610355Y-51121154D01*
X82461997Y-51106542D01*
X81261997Y-51106542D01*
X81113639Y-51121154D01*
X80970983Y-51164428D01*
X80839510Y-51234702D01*
X80724273Y-51329275D01*
X80629700Y-51444512D01*
X80559426Y-51575985D01*
X80516152Y-51718641D01*
X80501540Y-51866999D01*
X75304389Y-51866999D01*
X75246599Y-51758883D01*
X75076897Y-51552100D01*
X74870114Y-51382399D01*
X74634198Y-51256299D01*
X74378214Y-51178647D01*
X74112001Y-51152427D01*
X73845787Y-51178647D01*
X73589803Y-51256299D01*
X73353887Y-51382399D01*
X73147104Y-51552101D01*
X72977403Y-51758884D01*
X72960078Y-51791297D01*
X72957846Y-51768639D01*
X72914572Y-51625983D01*
X72844298Y-51494510D01*
X72749725Y-51379273D01*
X72634488Y-51284700D01*
X72503015Y-51214426D01*
X72360359Y-51171152D01*
X72212001Y-51156540D01*
X71012001Y-51156540D01*
X70863643Y-51171152D01*
X70720987Y-51214426D01*
X70589514Y-51284700D01*
X70474277Y-51379273D01*
X70379704Y-51494510D01*
X70309430Y-51625983D01*
X70266156Y-51768639D01*
X70251544Y-51916997D01*
X65117752Y-51916997D01*
X65046602Y-51783886D01*
X64876900Y-51577103D01*
X64670117Y-51407402D01*
X64434201Y-51281302D01*
X64178217Y-51203650D01*
X63912004Y-51177430D01*
X63645790Y-51203650D01*
X63389806Y-51281302D01*
X63153890Y-51407402D01*
X62947107Y-51577104D01*
X62777406Y-51783887D01*
X62760081Y-51816300D01*
X62757849Y-51793642D01*
X62714575Y-51650986D01*
X62644301Y-51519513D01*
X62549728Y-51404276D01*
X62434491Y-51309703D01*
X62303018Y-51239429D01*
X62160362Y-51196155D01*
X62012004Y-51181543D01*
X60812004Y-51181543D01*
X60663646Y-51196155D01*
X60520990Y-51239429D01*
X60389517Y-51309703D01*
X60274280Y-51404276D01*
X60179707Y-51519513D01*
X60109433Y-51650986D01*
X60066159Y-51793642D01*
X60051547Y-51942000D01*
X17533000Y-51942000D01*
X17533000Y-41576419D01*
X20909000Y-41576419D01*
X20909000Y-41735581D01*
X20940051Y-41891685D01*
X21000959Y-42038732D01*
X21089385Y-42171070D01*
X21201930Y-42283615D01*
X21334268Y-42372041D01*
X21481315Y-42432949D01*
X21637419Y-42464000D01*
X21796581Y-42464000D01*
X21952685Y-42432949D01*
X22099732Y-42372041D01*
X22232070Y-42283615D01*
X22344615Y-42171070D01*
X22433041Y-42038732D01*
X22493949Y-41891685D01*
X22525000Y-41735581D01*
X22525000Y-41710103D01*
X22985504Y-41249600D01*
X25120915Y-41249600D01*
X25138930Y-41267615D01*
X25271268Y-41356041D01*
X25418315Y-41416949D01*
X25574419Y-41448000D01*
X25733581Y-41448000D01*
X25889685Y-41416949D01*
X26036732Y-41356041D01*
X26169070Y-41267615D01*
X26281615Y-41155070D01*
X26370041Y-41022732D01*
X26430949Y-40875685D01*
X26462000Y-40719581D01*
X26462000Y-40560419D01*
X26430949Y-40404315D01*
X26370041Y-40257268D01*
X26281615Y-40124930D01*
X26169070Y-40012385D01*
X26036732Y-39923959D01*
X25889685Y-39863051D01*
X25733581Y-39832000D01*
X25574419Y-39832000D01*
X25418315Y-39863051D01*
X25271268Y-39923959D01*
X25138930Y-40012385D01*
X25120915Y-40030400D01*
X22762941Y-40030400D01*
X22733000Y-40027451D01*
X22613497Y-40039221D01*
X22581551Y-40048912D01*
X22498588Y-40074079D01*
X22392686Y-40130684D01*
X22299862Y-40206862D01*
X22280769Y-40230127D01*
X21662897Y-40848000D01*
X21637419Y-40848000D01*
X21481315Y-40879051D01*
X21334268Y-40939959D01*
X21201930Y-41028385D01*
X21089385Y-41140930D01*
X21000959Y-41273268D01*
X20940051Y-41420315D01*
X20909000Y-41576419D01*
X17533000Y-41576419D01*
X17533000Y-33274000D01*
X21331700Y-33274000D01*
X21348864Y-33448274D01*
X21399698Y-33615852D01*
X21482248Y-33770291D01*
X21593341Y-33905659D01*
X21728709Y-34016752D01*
X21883148Y-34099302D01*
X22050726Y-34150136D01*
X22225000Y-34167300D01*
X22399274Y-34150136D01*
X22566852Y-34099302D01*
X22721291Y-34016752D01*
X22822740Y-33933495D01*
X24202613Y-32553622D01*
X24264385Y-32646070D01*
X24376930Y-32758615D01*
X24479136Y-32826908D01*
X24373822Y-32897277D01*
X24261277Y-33009822D01*
X24172851Y-33142160D01*
X24111943Y-33289207D01*
X24080892Y-33445311D01*
X24080892Y-33604473D01*
X24111943Y-33760577D01*
X24172851Y-33907624D01*
X24261277Y-34039962D01*
X24373822Y-34152507D01*
X24506160Y-34240933D01*
X24653207Y-34301841D01*
X24809311Y-34332892D01*
X24834789Y-34332892D01*
X25862000Y-35360104D01*
X25862000Y-35385581D01*
X25876485Y-35458402D01*
X23647085Y-35458402D01*
X23629070Y-35440387D01*
X23496732Y-35351961D01*
X23349685Y-35291053D01*
X23193581Y-35260002D01*
X23034419Y-35260002D01*
X22878315Y-35291053D01*
X22731268Y-35351961D01*
X22598930Y-35440387D01*
X22486385Y-35552932D01*
X22397959Y-35685270D01*
X22337051Y-35832317D01*
X22306000Y-35988421D01*
X22306000Y-36147583D01*
X22337051Y-36303687D01*
X22397959Y-36450734D01*
X22485788Y-36582179D01*
X22422992Y-36676160D01*
X22362084Y-36823207D01*
X22331033Y-36979311D01*
X22331033Y-37138473D01*
X22362084Y-37294577D01*
X22422992Y-37441624D01*
X22511418Y-37573962D01*
X22623963Y-37686507D01*
X22756301Y-37774933D01*
X22903348Y-37835841D01*
X23059452Y-37866892D01*
X23218614Y-37866892D01*
X23374718Y-37835841D01*
X23521765Y-37774933D01*
X23654103Y-37686507D01*
X23766648Y-37573962D01*
X23855074Y-37441624D01*
X23915982Y-37294577D01*
X23947033Y-37138473D01*
X23947033Y-37115344D01*
X28066832Y-37115344D01*
X28556444Y-37604956D01*
X28519842Y-37641558D01*
X28437885Y-37764214D01*
X28360180Y-37647921D01*
X28247635Y-37535376D01*
X28115297Y-37446950D01*
X27968250Y-37386042D01*
X27812146Y-37354991D01*
X27652984Y-37354991D01*
X27496880Y-37386042D01*
X27349833Y-37446950D01*
X27217495Y-37535376D01*
X27104950Y-37647921D01*
X27016524Y-37780259D01*
X26977297Y-37874963D01*
X26878819Y-37894551D01*
X26731772Y-37955459D01*
X26599434Y-38043885D01*
X26486889Y-38156430D01*
X26398463Y-38288768D01*
X26337555Y-38435815D01*
X26306504Y-38591919D01*
X26306504Y-38751081D01*
X26337555Y-38907185D01*
X26398463Y-39054232D01*
X26486889Y-39186570D01*
X26504905Y-39204586D01*
X26504904Y-40694210D01*
X26501955Y-40724152D01*
X26513725Y-40843654D01*
X26520237Y-40865120D01*
X26548583Y-40958563D01*
X26605188Y-41064465D01*
X26681366Y-41157290D01*
X26704636Y-41176387D01*
X28775237Y-43246990D01*
X28794325Y-43270249D01*
X28887149Y-43346427D01*
X28993051Y-43403032D01*
X29107961Y-43437890D01*
X29197522Y-43446711D01*
X29197523Y-43446711D01*
X29227462Y-43449660D01*
X29257401Y-43446711D01*
X33134370Y-43446711D01*
X33132051Y-43452309D01*
X33101000Y-43608413D01*
X33101000Y-43767575D01*
X33121486Y-43870566D01*
X28730681Y-43870566D01*
X28494000Y-43633886D01*
X28494000Y-43608408D01*
X28462949Y-43452304D01*
X28402041Y-43305257D01*
X28313615Y-43172919D01*
X28201070Y-43060374D01*
X28068732Y-42971948D01*
X27921685Y-42911040D01*
X27765581Y-42879989D01*
X27606419Y-42879989D01*
X27450315Y-42911040D01*
X27303268Y-42971948D01*
X27268318Y-42995301D01*
X27201222Y-42950469D01*
X27054175Y-42889561D01*
X26898071Y-42858510D01*
X26738909Y-42858510D01*
X26582805Y-42889561D01*
X26440803Y-42948379D01*
X26364977Y-42897714D01*
X26217930Y-42836806D01*
X26061826Y-42805755D01*
X25902664Y-42805755D01*
X25746560Y-42836806D01*
X25604556Y-42895625D01*
X25528730Y-42844959D01*
X25381683Y-42784051D01*
X25225579Y-42753000D01*
X25066417Y-42753000D01*
X24910313Y-42784051D01*
X24763266Y-42844959D01*
X24630928Y-42933385D01*
X24518383Y-43045930D01*
X24429957Y-43178268D01*
X24369049Y-43325315D01*
X24337998Y-43481419D01*
X24337998Y-43640581D01*
X24369049Y-43796685D01*
X24429957Y-43943732D01*
X24518383Y-44076070D01*
X24630928Y-44188615D01*
X24763266Y-44277041D01*
X24910313Y-44337949D01*
X25066417Y-44369000D01*
X25091895Y-44369000D01*
X25133925Y-44411030D01*
X25098581Y-44404000D01*
X24939419Y-44404000D01*
X24783315Y-44435051D01*
X24636268Y-44495959D01*
X24503930Y-44584385D01*
X24391385Y-44696930D01*
X24302959Y-44829268D01*
X24242051Y-44976315D01*
X24211000Y-45132419D01*
X24211000Y-45291581D01*
X24242051Y-45447685D01*
X24302959Y-45594732D01*
X24391385Y-45727070D01*
X24503930Y-45839615D01*
X24636268Y-45928041D01*
X24783315Y-45988949D01*
X24939419Y-46020000D01*
X24964896Y-46020000D01*
X25735218Y-46790323D01*
X25754306Y-46813582D01*
X25847130Y-46889760D01*
X25953032Y-46946365D01*
X26067942Y-46981223D01*
X26157503Y-46990044D01*
X26157504Y-46990044D01*
X26187443Y-46992993D01*
X26217382Y-46990044D01*
X34547917Y-46990044D01*
X34536930Y-46997385D01*
X34424385Y-47109930D01*
X34335959Y-47242268D01*
X34324721Y-47269400D01*
X31906941Y-47269400D01*
X31877000Y-47266451D01*
X31757497Y-47278221D01*
X31736186Y-47284686D01*
X31642588Y-47313079D01*
X31536686Y-47369684D01*
X31443862Y-47445862D01*
X31424769Y-47469127D01*
X30578127Y-48315770D01*
X30554863Y-48334862D01*
X30478685Y-48427686D01*
X30422079Y-48533588D01*
X30408672Y-48577783D01*
X30345438Y-48620035D01*
X30205035Y-48760438D01*
X30094722Y-48925533D01*
X30018737Y-49108977D01*
X29980000Y-49303721D01*
X29980000Y-49502279D01*
X30018737Y-49697023D01*
X30094722Y-49880467D01*
X30205035Y-50045562D01*
X30345438Y-50185965D01*
X30510533Y-50296278D01*
X30693977Y-50372263D01*
X30888721Y-50411000D01*
X31087279Y-50411000D01*
X31282023Y-50372263D01*
X31465467Y-50296278D01*
X31623000Y-50191018D01*
X31780533Y-50296278D01*
X31963977Y-50372263D01*
X32158721Y-50411000D01*
X32357279Y-50411000D01*
X32552023Y-50372263D01*
X32716181Y-50304267D01*
X32744405Y-50327429D01*
X32832657Y-50374601D01*
X32928415Y-50403649D01*
X33028000Y-50413457D01*
X34028000Y-50413457D01*
X34127585Y-50403649D01*
X34223343Y-50374601D01*
X34276385Y-50346249D01*
X45058000Y-50346249D01*
X45058000Y-50613751D01*
X45110187Y-50876114D01*
X45212556Y-51123254D01*
X45361172Y-51345675D01*
X45550325Y-51534828D01*
X45772746Y-51683444D01*
X46019886Y-51785813D01*
X46282249Y-51838000D01*
X46549751Y-51838000D01*
X46812114Y-51785813D01*
X47059254Y-51683444D01*
X47281675Y-51534828D01*
X47470828Y-51345675D01*
X47595543Y-51159025D01*
X47595543Y-51330000D01*
X47605351Y-51429585D01*
X47634399Y-51525343D01*
X47681571Y-51613595D01*
X47745052Y-51690948D01*
X47822405Y-51754429D01*
X47910657Y-51801601D01*
X48006415Y-51830649D01*
X48106000Y-51840457D01*
X49806000Y-51840457D01*
X49905585Y-51830649D01*
X50001343Y-51801601D01*
X50089595Y-51754429D01*
X50166948Y-51690948D01*
X50230429Y-51613595D01*
X50277601Y-51525343D01*
X50306649Y-51429585D01*
X50316457Y-51330000D01*
X50316457Y-49630000D01*
X50306649Y-49530415D01*
X50277601Y-49434657D01*
X50230429Y-49346405D01*
X50166948Y-49269052D01*
X50089595Y-49205571D01*
X50001343Y-49158399D01*
X49905585Y-49129351D01*
X49806000Y-49119543D01*
X48106000Y-49119543D01*
X48006415Y-49129351D01*
X47910657Y-49158399D01*
X47822405Y-49205571D01*
X47745052Y-49269052D01*
X47681571Y-49346405D01*
X47634399Y-49434657D01*
X47605351Y-49530415D01*
X47595543Y-49630000D01*
X47595543Y-49800975D01*
X47470828Y-49614325D01*
X47281675Y-49425172D01*
X47059254Y-49276556D01*
X46812114Y-49174187D01*
X46549751Y-49122000D01*
X46282249Y-49122000D01*
X46019886Y-49174187D01*
X45772746Y-49276556D01*
X45550325Y-49425172D01*
X45361172Y-49614325D01*
X45212556Y-49836746D01*
X45110187Y-50083886D01*
X45058000Y-50346249D01*
X34276385Y-50346249D01*
X34311595Y-50327429D01*
X34388948Y-50263948D01*
X34452429Y-50186595D01*
X34499601Y-50098343D01*
X34528649Y-50002585D01*
X34538457Y-49903000D01*
X34538457Y-49006788D01*
X34906028Y-49006788D01*
X34924043Y-49024803D01*
X35056381Y-49113229D01*
X35203428Y-49174137D01*
X35359532Y-49205188D01*
X35518694Y-49205188D01*
X35674798Y-49174137D01*
X35821845Y-49113229D01*
X35954183Y-49024803D01*
X36066728Y-48912258D01*
X36155154Y-48779920D01*
X36216062Y-48632873D01*
X36247113Y-48476769D01*
X36247113Y-48375444D01*
X36300814Y-48404147D01*
X36378411Y-48427686D01*
X36415723Y-48439005D01*
X36535225Y-48450775D01*
X36565167Y-48447826D01*
X41018641Y-48447826D01*
X41036656Y-48465841D01*
X41168994Y-48554267D01*
X41316041Y-48615175D01*
X41472145Y-48646226D01*
X41631307Y-48646226D01*
X41787411Y-48615175D01*
X41934458Y-48554267D01*
X42066796Y-48465841D01*
X42179341Y-48353296D01*
X42267767Y-48220958D01*
X42328675Y-48073911D01*
X42359726Y-47917807D01*
X42359726Y-47758645D01*
X42328675Y-47602541D01*
X42324127Y-47591562D01*
X42345619Y-47570070D01*
X42408863Y-47475419D01*
X45858000Y-47475419D01*
X45858000Y-47634581D01*
X45889051Y-47790685D01*
X45949959Y-47937732D01*
X46038385Y-48070070D01*
X46150930Y-48182615D01*
X46283268Y-48271041D01*
X46430315Y-48331949D01*
X46586419Y-48363000D01*
X46745581Y-48363000D01*
X46901685Y-48331949D01*
X47048732Y-48271041D01*
X47181070Y-48182615D01*
X47199085Y-48164600D01*
X51366497Y-48164600D01*
X53252127Y-50050232D01*
X53238187Y-50083886D01*
X53186000Y-50346249D01*
X53186000Y-50613751D01*
X53238187Y-50876114D01*
X53340556Y-51123254D01*
X53489172Y-51345675D01*
X53678325Y-51534828D01*
X53900746Y-51683444D01*
X54147886Y-51785813D01*
X54410249Y-51838000D01*
X54677751Y-51838000D01*
X54940114Y-51785813D01*
X55187254Y-51683444D01*
X55409675Y-51534828D01*
X55598828Y-51345675D01*
X55723543Y-51159025D01*
X55723543Y-51330000D01*
X55733351Y-51429585D01*
X55762399Y-51525343D01*
X55809571Y-51613595D01*
X55873052Y-51690948D01*
X55950405Y-51754429D01*
X56038657Y-51801601D01*
X56134415Y-51830649D01*
X56234000Y-51840457D01*
X57934000Y-51840457D01*
X58033585Y-51830649D01*
X58129343Y-51801601D01*
X58217595Y-51754429D01*
X58294948Y-51690948D01*
X58358429Y-51613595D01*
X58405601Y-51525343D01*
X58434649Y-51429585D01*
X58444457Y-51330000D01*
X58444457Y-49630000D01*
X58434649Y-49530415D01*
X58405601Y-49434657D01*
X58358429Y-49346405D01*
X58294948Y-49269052D01*
X58217595Y-49205571D01*
X58129343Y-49158399D01*
X58033585Y-49129351D01*
X57934000Y-49119543D01*
X56234000Y-49119543D01*
X56134415Y-49129351D01*
X56038657Y-49158399D01*
X55950405Y-49205571D01*
X55873052Y-49269052D01*
X55809571Y-49346405D01*
X55762399Y-49434657D01*
X55733351Y-49530415D01*
X55723543Y-49630000D01*
X55723543Y-49800975D01*
X55598828Y-49614325D01*
X55409675Y-49425172D01*
X55187254Y-49276556D01*
X54940114Y-49174187D01*
X54677751Y-49122000D01*
X54410249Y-49122000D01*
X54147886Y-49174187D01*
X54114232Y-49188127D01*
X52071235Y-47145132D01*
X52052138Y-47121862D01*
X51959314Y-47045684D01*
X51853412Y-46989079D01*
X51738502Y-46954221D01*
X51648941Y-46945400D01*
X51619000Y-46942451D01*
X51589059Y-46945400D01*
X47199085Y-46945400D01*
X47181070Y-46927385D01*
X47048732Y-46838959D01*
X46901685Y-46778051D01*
X46745581Y-46747000D01*
X46586419Y-46747000D01*
X46430315Y-46778051D01*
X46283268Y-46838959D01*
X46150930Y-46927385D01*
X46038385Y-47039930D01*
X45949959Y-47172268D01*
X45889051Y-47319315D01*
X45858000Y-47475419D01*
X42408863Y-47475419D01*
X42434045Y-47437732D01*
X42494953Y-47290685D01*
X42526004Y-47134581D01*
X42526004Y-46975419D01*
X42494953Y-46819315D01*
X42434045Y-46672268D01*
X42345619Y-46539930D01*
X42233074Y-46427385D01*
X42100736Y-46338959D01*
X41953689Y-46278051D01*
X41797585Y-46247000D01*
X41638423Y-46247000D01*
X41628361Y-46249001D01*
X42030363Y-45847000D01*
X71820370Y-45847000D01*
X73897064Y-47923694D01*
X73899051Y-47933685D01*
X73959959Y-48080732D01*
X74048385Y-48213070D01*
X74160930Y-48325615D01*
X74293268Y-48414041D01*
X74440315Y-48474949D01*
X74450306Y-48476936D01*
X76269714Y-50296344D01*
X76293576Y-50325420D01*
X76367217Y-50385855D01*
X76409605Y-50420643D01*
X76480362Y-50458463D01*
X76541983Y-50491400D01*
X76685620Y-50534972D01*
X76797572Y-50545998D01*
X76797575Y-50545998D01*
X76834998Y-50549684D01*
X76872421Y-50545998D01*
X81516224Y-50545998D01*
X81552315Y-50560947D01*
X81708419Y-50591998D01*
X81867581Y-50591998D01*
X82023685Y-50560947D01*
X82170732Y-50500039D01*
X82303070Y-50411613D01*
X82415615Y-50299068D01*
X82504041Y-50166730D01*
X82564949Y-50019683D01*
X82596000Y-49863579D01*
X82596000Y-49704417D01*
X82564949Y-49548313D01*
X82504041Y-49401266D01*
X82415615Y-49268928D01*
X82303070Y-49156383D01*
X82170732Y-49067957D01*
X82023685Y-49007049D01*
X81867581Y-48975998D01*
X81833718Y-48975998D01*
X81834000Y-48974581D01*
X81834000Y-48815419D01*
X81802949Y-48659315D01*
X81742041Y-48512268D01*
X81653615Y-48379930D01*
X81628917Y-48355232D01*
X81675949Y-48241685D01*
X81707000Y-48085581D01*
X81707000Y-47926419D01*
X81675949Y-47770315D01*
X81615041Y-47623268D01*
X81526615Y-47490930D01*
X81414070Y-47378385D01*
X81281732Y-47289959D01*
X81134685Y-47229051D01*
X80978581Y-47198000D01*
X80953104Y-47198000D01*
X77468481Y-43713378D01*
X77868517Y-43713378D01*
X77898458Y-43716327D01*
X77928399Y-43713378D01*
X78017960Y-43704557D01*
X78132870Y-43669699D01*
X78238772Y-43613094D01*
X78331596Y-43536916D01*
X78350693Y-43513646D01*
X85694740Y-36169600D01*
X90533518Y-36169600D01*
X90454302Y-36317802D01*
X90376650Y-36573786D01*
X90350430Y-36840000D01*
X90376650Y-37106214D01*
X90454302Y-37362198D01*
X90580402Y-37598114D01*
X90750103Y-37804897D01*
X90956886Y-37974598D01*
X91172787Y-38090000D01*
X90956886Y-38205402D01*
X90750103Y-38375103D01*
X90580402Y-38581886D01*
X90454302Y-38817802D01*
X90376650Y-39073786D01*
X90350430Y-39340000D01*
X90376650Y-39606214D01*
X90454302Y-39862198D01*
X90580402Y-40098114D01*
X90750103Y-40304897D01*
X90956886Y-40474598D01*
X91192802Y-40600698D01*
X91448786Y-40678350D01*
X91648294Y-40698000D01*
X92031706Y-40698000D01*
X92231214Y-40678350D01*
X92487198Y-40600698D01*
X92723114Y-40474598D01*
X92929897Y-40304897D01*
X93099598Y-40098114D01*
X93225698Y-39862198D01*
X93303350Y-39606214D01*
X93329570Y-39340000D01*
X93303350Y-39073786D01*
X93225698Y-38817802D01*
X93099598Y-38581886D01*
X92929897Y-38375103D01*
X92723114Y-38205402D01*
X92507213Y-38090000D01*
X92723114Y-37974598D01*
X92929897Y-37804897D01*
X93099598Y-37598114D01*
X93225698Y-37362198D01*
X93303350Y-37106214D01*
X93329570Y-36840000D01*
X93303350Y-36573786D01*
X93225698Y-36317802D01*
X93099598Y-36081886D01*
X92929897Y-35875103D01*
X92723114Y-35705402D01*
X92487198Y-35579302D01*
X92231214Y-35501650D01*
X92031706Y-35482000D01*
X91648294Y-35482000D01*
X91547972Y-35491881D01*
X96219862Y-30819992D01*
X96243127Y-30800899D01*
X96319305Y-30708075D01*
X96368550Y-30615943D01*
X96375910Y-30602174D01*
X96410768Y-30487264D01*
X96422538Y-30367761D01*
X96419589Y-30337820D01*
X96419589Y-26378083D01*
X96437604Y-26360068D01*
X96526030Y-26227730D01*
X96586938Y-26080683D01*
X96617989Y-25924579D01*
X96617989Y-25765417D01*
X96586938Y-25609313D01*
X96526030Y-25462266D01*
X96437604Y-25329928D01*
X96325059Y-25217383D01*
X96192721Y-25128957D01*
X96045674Y-25068049D01*
X95889570Y-25036998D01*
X95730408Y-25036998D01*
X95574304Y-25068049D01*
X95427257Y-25128957D01*
X95294919Y-25217383D01*
X95256579Y-25255723D01*
X95112181Y-25227000D01*
X94953019Y-25227000D01*
X94796915Y-25258051D01*
X94649868Y-25318959D01*
X94517530Y-25407385D01*
X94404985Y-25519930D01*
X94316559Y-25652268D01*
X94255651Y-25799315D01*
X94224600Y-25955419D01*
X94224600Y-26114581D01*
X94255651Y-26270685D01*
X94316559Y-26417732D01*
X94404985Y-26550070D01*
X94423001Y-26568086D01*
X94423000Y-30317895D01*
X90298497Y-34442400D01*
X85405427Y-34442400D01*
X85375486Y-34439451D01*
X85255983Y-34451221D01*
X85141073Y-34486079D01*
X85086743Y-34515119D01*
X85035172Y-34542684D01*
X84942348Y-34618862D01*
X84923255Y-34642127D01*
X77426816Y-42138567D01*
X74971627Y-42138567D01*
X74976000Y-42116581D01*
X74976000Y-41957419D01*
X74944949Y-41801315D01*
X74884041Y-41654268D01*
X74795615Y-41521930D01*
X74683070Y-41409385D01*
X74550732Y-41320959D01*
X74403685Y-41260051D01*
X74247581Y-41229000D01*
X74088419Y-41229000D01*
X73932315Y-41260051D01*
X73785268Y-41320959D01*
X73652930Y-41409385D01*
X73634915Y-41427400D01*
X71753504Y-41427400D01*
X70531000Y-40204897D01*
X70531000Y-40179419D01*
X70499949Y-40023315D01*
X70439041Y-39876268D01*
X70350615Y-39743930D01*
X70238070Y-39631385D01*
X70105732Y-39542959D01*
X69958685Y-39482051D01*
X69802581Y-39451000D01*
X69643419Y-39451000D01*
X69487315Y-39482051D01*
X69340268Y-39542959D01*
X69207930Y-39631385D01*
X69095385Y-39743930D01*
X69006959Y-39876268D01*
X68946051Y-40023315D01*
X68915000Y-40179419D01*
X68915000Y-40338581D01*
X68946051Y-40494685D01*
X69006959Y-40641732D01*
X69095385Y-40774070D01*
X69207930Y-40886615D01*
X69340268Y-40975041D01*
X69487315Y-41035949D01*
X69643419Y-41067000D01*
X69668897Y-41067000D01*
X70740463Y-42138567D01*
X39241536Y-42138567D01*
X44756685Y-36623419D01*
X55707000Y-36623419D01*
X55707000Y-36782581D01*
X55738051Y-36938685D01*
X55798959Y-37085732D01*
X55887385Y-37218070D01*
X55999930Y-37330615D01*
X56132268Y-37419041D01*
X56279315Y-37479949D01*
X56435419Y-37511000D01*
X56594581Y-37511000D01*
X56750685Y-37479949D01*
X56897732Y-37419041D01*
X57030070Y-37330615D01*
X57142615Y-37218070D01*
X57231041Y-37085732D01*
X57291949Y-36938685D01*
X57323000Y-36782581D01*
X57323000Y-36757103D01*
X61809504Y-32270600D01*
X73337915Y-32270600D01*
X73355930Y-32288615D01*
X73488268Y-32377041D01*
X73635315Y-32437949D01*
X73791419Y-32469000D01*
X73950581Y-32469000D01*
X74106685Y-32437949D01*
X74253732Y-32377041D01*
X74386070Y-32288615D01*
X74498615Y-32176070D01*
X74587041Y-32043732D01*
X74647949Y-31896685D01*
X74679000Y-31740581D01*
X74679000Y-31581419D01*
X74647949Y-31425315D01*
X74587041Y-31278268D01*
X74498615Y-31145930D01*
X74386070Y-31033385D01*
X74253732Y-30944959D01*
X74106685Y-30884051D01*
X73950581Y-30853000D01*
X73791419Y-30853000D01*
X73635315Y-30884051D01*
X73488268Y-30944959D01*
X73355930Y-31033385D01*
X73337915Y-31051400D01*
X61586941Y-31051400D01*
X61557000Y-31048451D01*
X61437497Y-31060221D01*
X61322587Y-31095079D01*
X61282081Y-31116730D01*
X61216686Y-31151684D01*
X61123862Y-31227862D01*
X61104769Y-31251127D01*
X56460897Y-35895000D01*
X56435419Y-35895000D01*
X56279315Y-35926051D01*
X56132268Y-35986959D01*
X55999930Y-36075385D01*
X55887385Y-36187930D01*
X55798959Y-36320268D01*
X55738051Y-36467315D01*
X55707000Y-36623419D01*
X44756685Y-36623419D01*
X47658666Y-33721439D01*
X47681925Y-33702351D01*
X47701021Y-33679082D01*
X48087649Y-33292456D01*
X48110908Y-33273368D01*
X48187086Y-33180544D01*
X48243691Y-33074642D01*
X48252879Y-33044353D01*
X48278549Y-32959733D01*
X48290319Y-32840230D01*
X48287370Y-32810289D01*
X48287370Y-32562513D01*
X48305385Y-32544498D01*
X48393811Y-32412160D01*
X48454719Y-32265113D01*
X48485770Y-32109009D01*
X48485770Y-31949847D01*
X48454719Y-31793743D01*
X48393811Y-31646696D01*
X48318576Y-31534100D01*
X49817559Y-31534100D01*
X49847500Y-31537049D01*
X49877441Y-31534100D01*
X49905047Y-31531381D01*
X49958421Y-31541998D01*
X50117583Y-31541998D01*
X50273687Y-31510947D01*
X50420734Y-31450039D01*
X50553072Y-31361613D01*
X50665617Y-31249068D01*
X50754043Y-31116730D01*
X50814951Y-30969683D01*
X50846002Y-30813579D01*
X50846002Y-30654417D01*
X50814951Y-30498313D01*
X50754043Y-30351266D01*
X50665617Y-30218928D01*
X50553072Y-30106383D01*
X50420734Y-30017957D01*
X50273687Y-29957049D01*
X50117583Y-29925998D01*
X49958421Y-29925998D01*
X49802317Y-29957049D01*
X49655270Y-30017957D01*
X49522932Y-30106383D01*
X49410387Y-30218928D01*
X49346260Y-30314900D01*
X46908850Y-30314900D01*
X46878911Y-30311951D01*
X46848972Y-30314900D01*
X46848971Y-30314900D01*
X46759410Y-30323721D01*
X46644500Y-30358579D01*
X46538598Y-30415184D01*
X46445774Y-30491362D01*
X46426687Y-30514620D01*
X45500627Y-31440682D01*
X45477363Y-31459774D01*
X45409884Y-31541998D01*
X45401185Y-31552598D01*
X45344580Y-31658500D01*
X45309721Y-31773410D01*
X45297951Y-31892912D01*
X45300901Y-31922863D01*
X45300900Y-32576995D01*
X41814548Y-36063347D01*
X41723823Y-35972622D01*
X41719154Y-35969502D01*
X41737041Y-35942732D01*
X41797949Y-35795685D01*
X41829000Y-35639581D01*
X41829000Y-35480419D01*
X41797949Y-35324315D01*
X41737041Y-35177268D01*
X41648615Y-35044930D01*
X41536070Y-34932385D01*
X41403732Y-34843959D01*
X41256685Y-34783051D01*
X41100581Y-34752000D01*
X40941419Y-34752000D01*
X40785315Y-34783051D01*
X40638268Y-34843959D01*
X40505930Y-34932385D01*
X40393385Y-35044930D01*
X40304959Y-35177268D01*
X40244051Y-35324315D01*
X40213000Y-35480419D01*
X40213000Y-35505895D01*
X39808052Y-35910844D01*
X39829449Y-35859185D01*
X39860500Y-35703081D01*
X39860500Y-35543919D01*
X39829449Y-35387815D01*
X39768541Y-35240768D01*
X39680115Y-35108430D01*
X39567570Y-34995885D01*
X39435232Y-34907459D01*
X39288185Y-34846551D01*
X39132081Y-34815500D01*
X38972919Y-34815500D01*
X38816815Y-34846551D01*
X38669768Y-34907459D01*
X38537430Y-34995885D01*
X38424885Y-35108430D01*
X38336459Y-35240768D01*
X38275551Y-35387815D01*
X38244500Y-35543919D01*
X38244500Y-35703081D01*
X38264462Y-35803435D01*
X34862997Y-39204900D01*
X32383505Y-39204900D01*
X28836737Y-35658134D01*
X28817640Y-35634864D01*
X28770668Y-35596315D01*
X28836070Y-35552615D01*
X28948615Y-35440070D01*
X29037041Y-35307732D01*
X29097949Y-35160685D01*
X29113501Y-35082501D01*
X29191685Y-35066949D01*
X29338732Y-35006041D01*
X29471070Y-34917615D01*
X29583615Y-34805070D01*
X29672041Y-34672732D01*
X29732949Y-34525685D01*
X29764000Y-34369581D01*
X29764000Y-34210419D01*
X29732949Y-34054315D01*
X29672041Y-33907268D01*
X29583615Y-33774930D01*
X29565600Y-33756915D01*
X29565600Y-31735255D01*
X29590698Y-31674662D01*
X29621749Y-31518558D01*
X29621749Y-31369000D01*
X34379577Y-31369000D01*
X34417000Y-31372686D01*
X34454423Y-31369000D01*
X34653244Y-31369000D01*
X34542268Y-31414967D01*
X34409930Y-31503393D01*
X34297385Y-31615938D01*
X34208959Y-31748276D01*
X34148051Y-31895323D01*
X34117000Y-32051427D01*
X34117000Y-32210589D01*
X34148051Y-32366693D01*
X34208959Y-32513740D01*
X34297385Y-32646078D01*
X34409930Y-32758623D01*
X34542268Y-32847049D01*
X34689315Y-32907957D01*
X34845419Y-32939008D01*
X34883083Y-32939008D01*
X34884685Y-32940323D01*
X34949216Y-32974815D01*
X34990586Y-32996928D01*
X35105496Y-33031786D01*
X35224999Y-33043556D01*
X35254940Y-33040607D01*
X37960552Y-33040607D01*
X37990493Y-33043556D01*
X38020434Y-33040607D01*
X38030781Y-33039588D01*
X38109995Y-33031786D01*
X38224905Y-32996928D01*
X38330807Y-32940323D01*
X38423631Y-32864145D01*
X38442728Y-32840875D01*
X39258439Y-32025165D01*
X40169906Y-32025165D01*
X40187921Y-32043180D01*
X40320259Y-32131606D01*
X40467306Y-32192514D01*
X40623410Y-32223565D01*
X40782572Y-32223565D01*
X40938676Y-32192514D01*
X41085723Y-32131606D01*
X41218061Y-32043180D01*
X41330606Y-31930635D01*
X41419032Y-31798297D01*
X41479940Y-31651250D01*
X41510991Y-31495146D01*
X41510991Y-31335984D01*
X41498446Y-31272914D01*
X41530732Y-31259541D01*
X41663070Y-31171115D01*
X41775615Y-31058570D01*
X41864041Y-30926232D01*
X41924949Y-30779185D01*
X41956000Y-30623081D01*
X41956000Y-30621611D01*
X42102232Y-30561041D01*
X42234570Y-30472615D01*
X42347115Y-30360070D01*
X42435541Y-30227732D01*
X42496449Y-30080685D01*
X42527500Y-29924581D01*
X42527500Y-29765419D01*
X42496449Y-29609315D01*
X42435541Y-29462268D01*
X42347115Y-29329930D01*
X42234570Y-29217385D01*
X42102232Y-29128959D01*
X41955185Y-29068051D01*
X41799081Y-29037000D01*
X41639919Y-29037000D01*
X41483815Y-29068051D01*
X41336768Y-29128959D01*
X41204430Y-29217385D01*
X41186415Y-29235400D01*
X38137277Y-29235400D01*
X38107336Y-29232451D01*
X37987833Y-29244221D01*
X37876250Y-29278070D01*
X37872924Y-29279079D01*
X37767022Y-29335684D01*
X37674198Y-29411862D01*
X37655110Y-29435121D01*
X36812500Y-30277732D01*
X36812500Y-30209919D01*
X36781449Y-30053815D01*
X36720541Y-29906768D01*
X36632115Y-29774430D01*
X36519570Y-29661885D01*
X36471719Y-29629912D01*
X37418212Y-28683419D01*
X61864000Y-28683419D01*
X61864000Y-28842581D01*
X61895051Y-28998685D01*
X61955959Y-29145732D01*
X62044385Y-29278070D01*
X62156930Y-29390615D01*
X62289268Y-29479041D01*
X62436315Y-29539949D01*
X62592419Y-29571000D01*
X62751581Y-29571000D01*
X62907685Y-29539949D01*
X63054732Y-29479041D01*
X63187070Y-29390615D01*
X63299615Y-29278070D01*
X63388041Y-29145732D01*
X63448949Y-28998685D01*
X63480000Y-28842581D01*
X63480000Y-28817103D01*
X63813504Y-28483600D01*
X68651059Y-28483600D01*
X68681000Y-28486549D01*
X68710941Y-28483600D01*
X68800502Y-28474779D01*
X68915412Y-28439921D01*
X69021314Y-28383316D01*
X69114138Y-28307138D01*
X69133235Y-28283868D01*
X71316600Y-26100503D01*
X71333802Y-26109698D01*
X71589786Y-26187350D01*
X71856000Y-26213570D01*
X72122213Y-26187350D01*
X72378197Y-26109698D01*
X72614113Y-25983598D01*
X72820896Y-25813897D01*
X72990598Y-25607114D01*
X73116698Y-25371198D01*
X73194350Y-25115214D01*
X73214000Y-24915706D01*
X73214000Y-24482295D01*
X73194350Y-24282787D01*
X73116698Y-24026803D01*
X72990598Y-23790886D01*
X72820897Y-23584103D01*
X72614114Y-23414402D01*
X72378198Y-23288302D01*
X72122214Y-23210650D01*
X71856000Y-23184430D01*
X71589787Y-23210650D01*
X71333803Y-23288302D01*
X71097887Y-23414402D01*
X70891104Y-23584103D01*
X70721402Y-23790886D01*
X70595302Y-24026802D01*
X70517650Y-24282786D01*
X70498000Y-24482294D01*
X70498000Y-24915705D01*
X70517650Y-25115213D01*
X70531622Y-25161274D01*
X68428497Y-27264400D01*
X63590941Y-27264400D01*
X63561000Y-27261451D01*
X63441497Y-27273221D01*
X63406639Y-27283795D01*
X63326588Y-27308079D01*
X63220686Y-27364684D01*
X63127862Y-27440862D01*
X63108769Y-27464127D01*
X62617897Y-27955000D01*
X62592419Y-27955000D01*
X62436315Y-27986051D01*
X62289268Y-28046959D01*
X62156930Y-28135385D01*
X62044385Y-28247930D01*
X61955959Y-28380268D01*
X61895051Y-28527315D01*
X61864000Y-28683419D01*
X37418212Y-28683419D01*
X37780631Y-28321000D01*
X44432224Y-28321000D01*
X44468315Y-28335949D01*
X44624419Y-28367000D01*
X44783581Y-28367000D01*
X44939685Y-28335949D01*
X45086732Y-28275041D01*
X45219070Y-28186615D01*
X45331615Y-28074070D01*
X45420041Y-27941732D01*
X45434991Y-27905639D01*
X45495139Y-27845491D01*
X45531232Y-27830541D01*
X45663570Y-27742115D01*
X45776115Y-27629570D01*
X45864541Y-27497232D01*
X45925449Y-27350185D01*
X45956500Y-27194081D01*
X45956500Y-27034919D01*
X45925449Y-26878815D01*
X45864541Y-26731768D01*
X45776115Y-26599430D01*
X45663570Y-26486885D01*
X45531232Y-26398459D01*
X45384185Y-26337551D01*
X45228081Y-26306500D01*
X45068919Y-26306500D01*
X44912815Y-26337551D01*
X44765768Y-26398459D01*
X44633430Y-26486885D01*
X44520885Y-26599430D01*
X44432459Y-26731768D01*
X44417509Y-26767861D01*
X44388370Y-26797000D01*
X37502423Y-26797000D01*
X37465000Y-26793314D01*
X37427577Y-26797000D01*
X37427574Y-26797000D01*
X37315622Y-26808026D01*
X37171985Y-26851598D01*
X37121066Y-26878815D01*
X37039607Y-26922355D01*
X37016952Y-26940948D01*
X36923578Y-27017578D01*
X36899721Y-27046648D01*
X34101370Y-29845000D01*
X33574000Y-29845000D01*
X33574000Y-29765419D01*
X33542949Y-29609315D01*
X33482041Y-29462268D01*
X33393615Y-29329930D01*
X33375600Y-29311915D01*
X33375600Y-25779503D01*
X33518603Y-25636500D01*
X33544081Y-25636500D01*
X33700185Y-25605449D01*
X33847232Y-25544541D01*
X33979570Y-25456115D01*
X34092115Y-25343570D01*
X34180541Y-25211232D01*
X34241449Y-25064185D01*
X34272500Y-24908081D01*
X34272500Y-24748919D01*
X34241449Y-24592815D01*
X34180541Y-24445768D01*
X34092115Y-24313430D01*
X33979570Y-24200885D01*
X33847232Y-24112459D01*
X33700185Y-24051551D01*
X33544081Y-24020500D01*
X33384919Y-24020500D01*
X33228815Y-24051551D01*
X33081768Y-24112459D01*
X32949430Y-24200885D01*
X32836885Y-24313430D01*
X32748459Y-24445768D01*
X32687551Y-24592815D01*
X32656500Y-24748919D01*
X32656500Y-24774397D01*
X32356127Y-25074770D01*
X32332863Y-25093862D01*
X32256685Y-25186686D01*
X32200080Y-25292588D01*
X32165221Y-25407498D01*
X32153451Y-25527000D01*
X32156401Y-25556952D01*
X32156400Y-29311915D01*
X32138385Y-29329930D01*
X32049959Y-29462268D01*
X31989051Y-29609315D01*
X31958000Y-29765419D01*
X31958000Y-29845000D01*
X30434758Y-29845000D01*
X30434041Y-29843268D01*
X30345615Y-29710930D01*
X30233070Y-29598385D01*
X30100732Y-29509959D01*
X29953685Y-29449051D01*
X29797581Y-29418000D01*
X29638419Y-29418000D01*
X29482315Y-29449051D01*
X29335268Y-29509959D01*
X29202930Y-29598385D01*
X29090385Y-29710930D01*
X29001959Y-29843268D01*
X29001242Y-29845000D01*
X25026363Y-29845000D01*
X24973041Y-29716268D01*
X24884615Y-29583930D01*
X24772070Y-29471385D01*
X24639732Y-29382959D01*
X24492685Y-29322051D01*
X24336581Y-29291000D01*
X24177419Y-29291000D01*
X24021315Y-29322051D01*
X23874268Y-29382959D01*
X23741930Y-29471385D01*
X23629385Y-29583930D01*
X23540959Y-29716268D01*
X23480051Y-29863315D01*
X23449000Y-30019419D01*
X23449000Y-30178581D01*
X23480051Y-30334685D01*
X23540959Y-30481732D01*
X23622001Y-30603018D01*
X23622001Y-30619764D01*
X21565505Y-32676260D01*
X21482248Y-32777709D01*
X21399698Y-32932148D01*
X21348864Y-33099726D01*
X21331700Y-33274000D01*
X17533000Y-33274000D01*
X17533000Y-23580000D01*
X64217543Y-23580000D01*
X64217543Y-26580000D01*
X64227351Y-26679585D01*
X64256399Y-26775343D01*
X64303571Y-26863595D01*
X64367052Y-26940948D01*
X64444405Y-27004429D01*
X64532657Y-27051601D01*
X64628415Y-27080649D01*
X64728000Y-27090457D01*
X67728000Y-27090457D01*
X67827585Y-27080649D01*
X67923343Y-27051601D01*
X68011595Y-27004429D01*
X68088948Y-26940948D01*
X68152429Y-26863595D01*
X68199601Y-26775343D01*
X68228649Y-26679585D01*
X68238457Y-26580000D01*
X68238457Y-23580000D01*
X68228649Y-23480415D01*
X68199601Y-23384657D01*
X68152429Y-23296405D01*
X68088948Y-23219052D01*
X68011595Y-23155571D01*
X67923343Y-23108399D01*
X67827585Y-23079351D01*
X67728000Y-23069543D01*
X64728000Y-23069543D01*
X64628415Y-23079351D01*
X64532657Y-23108399D01*
X64444405Y-23155571D01*
X64367052Y-23219052D01*
X64303571Y-23296405D01*
X64256399Y-23384657D01*
X64227351Y-23480415D01*
X64217543Y-23580000D01*
X17533000Y-23580000D01*
X17533000Y-20533000D01*
X99466999Y-20532998D01*
X99467001Y-60317000D01*
G37*
X99467001Y-60317000D02*
X17533000Y-60317000D01*
X17533000Y-57196200D01*
X26082543Y-57196200D01*
X26082543Y-58495800D01*
X26097159Y-58644197D01*
X26140445Y-58786891D01*
X26210737Y-58918398D01*
X26305334Y-59033666D01*
X26420602Y-59128263D01*
X26552109Y-59198555D01*
X26694803Y-59241841D01*
X26843200Y-59256457D01*
X28142800Y-59256457D01*
X28291197Y-59241841D01*
X28433891Y-59198555D01*
X28565398Y-59128263D01*
X28680666Y-59033666D01*
X28775263Y-58918398D01*
X28845555Y-58786891D01*
X28888841Y-58644197D01*
X28903457Y-58495800D01*
X28903457Y-57707324D01*
X31165000Y-57707324D01*
X31165000Y-57984676D01*
X31219108Y-58256699D01*
X31325246Y-58512938D01*
X31479335Y-58743548D01*
X31675452Y-58939665D01*
X31906062Y-59093754D01*
X32162301Y-59199892D01*
X32434324Y-59254000D01*
X32711676Y-59254000D01*
X32983699Y-59199892D01*
X33239938Y-59093754D01*
X33470548Y-58939665D01*
X33666665Y-58743548D01*
X33820754Y-58512938D01*
X33926892Y-58256699D01*
X33981000Y-57984676D01*
X33981000Y-57707324D01*
X33968867Y-57646324D01*
X35569000Y-57646324D01*
X35569000Y-57923676D01*
X35623108Y-58195699D01*
X35729246Y-58451938D01*
X35883335Y-58682548D01*
X36079452Y-58878665D01*
X36310062Y-59032754D01*
X36566301Y-59138892D01*
X36838324Y-59193000D01*
X37115676Y-59193000D01*
X37387699Y-59138892D01*
X37643938Y-59032754D01*
X37874548Y-58878665D01*
X38070665Y-58682548D01*
X38224754Y-58451938D01*
X38330892Y-58195699D01*
X38385000Y-57923676D01*
X38385000Y-57646324D01*
X38330892Y-57374301D01*
X38224754Y-57118062D01*
X38070665Y-56887452D01*
X37874548Y-56691335D01*
X37643938Y-56537246D01*
X37387699Y-56431108D01*
X37115676Y-56377000D01*
X36838324Y-56377000D01*
X36566301Y-56431108D01*
X36310062Y-56537246D01*
X36079452Y-56691335D01*
X35883335Y-56887452D01*
X35729246Y-57118062D01*
X35623108Y-57374301D01*
X35569000Y-57646324D01*
X33968867Y-57646324D01*
X33926892Y-57435301D01*
X33820754Y-57179062D01*
X33666665Y-56948452D01*
X33470548Y-56752335D01*
X33239938Y-56598246D01*
X32983699Y-56492108D01*
X32711676Y-56438000D01*
X32434324Y-56438000D01*
X32162301Y-56492108D01*
X31906062Y-56598246D01*
X31675452Y-56752335D01*
X31479335Y-56948452D01*
X31325246Y-57179062D01*
X31219108Y-57435301D01*
X31165000Y-57707324D01*
X28903457Y-57707324D01*
X28903457Y-57196200D01*
X28888841Y-57047803D01*
X28845555Y-56905109D01*
X28775263Y-56773602D01*
X28680666Y-56658334D01*
X28565398Y-56563737D01*
X28433891Y-56493445D01*
X28291197Y-56450159D01*
X28142800Y-56435543D01*
X26843200Y-56435543D01*
X26694803Y-56450159D01*
X26552109Y-56493445D01*
X26420602Y-56563737D01*
X26305334Y-56658334D01*
X26210737Y-56773602D01*
X26140445Y-56905109D01*
X26097159Y-57047803D01*
X26082543Y-57196200D01*
X17533000Y-57196200D01*
X17533000Y-51942000D01*
X60051547Y-51942000D01*
X60051547Y-53392000D01*
X60066159Y-53540358D01*
X60109433Y-53683014D01*
X60179707Y-53814487D01*
X60274280Y-53929724D01*
X60389517Y-54024297D01*
X60520990Y-54094571D01*
X60663646Y-54137845D01*
X60812004Y-54152457D01*
X62012004Y-54152457D01*
X62160362Y-54137845D01*
X62303018Y-54094571D01*
X62434491Y-54024297D01*
X62549728Y-53929724D01*
X62644301Y-53814487D01*
X62714575Y-53683014D01*
X62757849Y-53540358D01*
X62760081Y-53517700D01*
X62777406Y-53550114D01*
X62947108Y-53756897D01*
X63153891Y-53926598D01*
X63389807Y-54052698D01*
X63645791Y-54130350D01*
X63912004Y-54156570D01*
X64178218Y-54130350D01*
X64434202Y-54052698D01*
X64670118Y-53926598D01*
X64876901Y-53756897D01*
X65046602Y-53550113D01*
X65172702Y-53314197D01*
X65250354Y-53058213D01*
X65270004Y-52858705D01*
X65270004Y-52475294D01*
X65250354Y-52275786D01*
X65172702Y-52019802D01*
X65117752Y-51916997D01*
X70251544Y-51916997D01*
X70251544Y-53366997D01*
X70266156Y-53515355D01*
X70309430Y-53658011D01*
X70379704Y-53789484D01*
X70474277Y-53904721D01*
X70589514Y-53999294D01*
X70720987Y-54069568D01*
X70863643Y-54112842D01*
X71012001Y-54127454D01*
X72212001Y-54127454D01*
X72360359Y-54112842D01*
X72503015Y-54069568D01*
X72634488Y-53999294D01*
X72749725Y-53904721D01*
X72844298Y-53789484D01*
X72914572Y-53658011D01*
X72957846Y-53515355D01*
X72960078Y-53492697D01*
X72977403Y-53525111D01*
X73147105Y-53731894D01*
X73353888Y-53901595D01*
X73589804Y-54027695D01*
X73845788Y-54105347D01*
X74112001Y-54131567D01*
X74378215Y-54105347D01*
X74634199Y-54027695D01*
X74870115Y-53901595D01*
X75076898Y-53731894D01*
X75246599Y-53525110D01*
X75372699Y-53289194D01*
X75450351Y-53033210D01*
X75470001Y-52833702D01*
X75470001Y-52450291D01*
X75450351Y-52250783D01*
X75372699Y-51994799D01*
X75304389Y-51866999D01*
X80501540Y-51866999D01*
X80501540Y-53316999D01*
X80516152Y-53465357D01*
X80559426Y-53608013D01*
X80629700Y-53739486D01*
X80724273Y-53854723D01*
X80839510Y-53949296D01*
X80970983Y-54019570D01*
X81113639Y-54062844D01*
X81261997Y-54077456D01*
X82461997Y-54077456D01*
X82610355Y-54062844D01*
X82753011Y-54019570D01*
X82884484Y-53949296D01*
X82999721Y-53854723D01*
X83094294Y-53739486D01*
X83164568Y-53608013D01*
X83207842Y-53465357D01*
X83210074Y-53442699D01*
X83227399Y-53475113D01*
X83397101Y-53681896D01*
X83603884Y-53851597D01*
X83839800Y-53977697D01*
X84095784Y-54055349D01*
X84361997Y-54081569D01*
X84628211Y-54055349D01*
X84884195Y-53977697D01*
X85120111Y-53851597D01*
X85326894Y-53681896D01*
X85496595Y-53475112D01*
X85622695Y-53239196D01*
X85700347Y-52983212D01*
X85719997Y-52783704D01*
X85719997Y-52400293D01*
X85700347Y-52200785D01*
X85622695Y-51944801D01*
X85555718Y-51819495D01*
X90712947Y-51819495D01*
X90712947Y-53269495D01*
X90727559Y-53417853D01*
X90770833Y-53560509D01*
X90841107Y-53691982D01*
X90935680Y-53807219D01*
X91050917Y-53901792D01*
X91182390Y-53972066D01*
X91325046Y-54015340D01*
X91473404Y-54029952D01*
X92673404Y-54029952D01*
X92821762Y-54015340D01*
X92964418Y-53972066D01*
X93095891Y-53901792D01*
X93211128Y-53807219D01*
X93305701Y-53691982D01*
X93375975Y-53560509D01*
X93419249Y-53417853D01*
X93421481Y-53395195D01*
X93438806Y-53427609D01*
X93608508Y-53634392D01*
X93815291Y-53804093D01*
X94051207Y-53930193D01*
X94307191Y-54007845D01*
X94573404Y-54034065D01*
X94839618Y-54007845D01*
X95095602Y-53930193D01*
X95331518Y-53804093D01*
X95538301Y-53634392D01*
X95708002Y-53427608D01*
X95834102Y-53191692D01*
X95911754Y-52935708D01*
X95931404Y-52736200D01*
X95931404Y-52352789D01*
X95911754Y-52153281D01*
X95834102Y-51897297D01*
X95708002Y-51661381D01*
X95538300Y-51454598D01*
X95331517Y-51284897D01*
X95095601Y-51158797D01*
X94839617Y-51081145D01*
X94573404Y-51054925D01*
X94307190Y-51081145D01*
X94051206Y-51158797D01*
X93815290Y-51284897D01*
X93608507Y-51454599D01*
X93438806Y-51661382D01*
X93421481Y-51693795D01*
X93419249Y-51671137D01*
X93375975Y-51528481D01*
X93305701Y-51397008D01*
X93211128Y-51281771D01*
X93095891Y-51187198D01*
X92964418Y-51116924D01*
X92821762Y-51073650D01*
X92673404Y-51059038D01*
X91473404Y-51059038D01*
X91325046Y-51073650D01*
X91182390Y-51116924D01*
X91050917Y-51187198D01*
X90935680Y-51281771D01*
X90841107Y-51397008D01*
X90770833Y-51528481D01*
X90727559Y-51671137D01*
X90712947Y-51819495D01*
X85555718Y-51819495D01*
X85496595Y-51708885D01*
X85326893Y-51502102D01*
X85120110Y-51332401D01*
X84884194Y-51206301D01*
X84628210Y-51128649D01*
X84361997Y-51102429D01*
X84095783Y-51128649D01*
X83839799Y-51206301D01*
X83603883Y-51332401D01*
X83397100Y-51502103D01*
X83227399Y-51708886D01*
X83210074Y-51741299D01*
X83207842Y-51718641D01*
X83164568Y-51575985D01*
X83094294Y-51444512D01*
X82999721Y-51329275D01*
X82884484Y-51234702D01*
X82753011Y-51164428D01*
X82610355Y-51121154D01*
X82461997Y-51106542D01*
X81261997Y-51106542D01*
X81113639Y-51121154D01*
X80970983Y-51164428D01*
X80839510Y-51234702D01*
X80724273Y-51329275D01*
X80629700Y-51444512D01*
X80559426Y-51575985D01*
X80516152Y-51718641D01*
X80501540Y-51866999D01*
X75304389Y-51866999D01*
X75246599Y-51758883D01*
X75076897Y-51552100D01*
X74870114Y-51382399D01*
X74634198Y-51256299D01*
X74378214Y-51178647D01*
X74112001Y-51152427D01*
X73845787Y-51178647D01*
X73589803Y-51256299D01*
X73353887Y-51382399D01*
X73147104Y-51552101D01*
X72977403Y-51758884D01*
X72960078Y-51791297D01*
X72957846Y-51768639D01*
X72914572Y-51625983D01*
X72844298Y-51494510D01*
X72749725Y-51379273D01*
X72634488Y-51284700D01*
X72503015Y-51214426D01*
X72360359Y-51171152D01*
X72212001Y-51156540D01*
X71012001Y-51156540D01*
X70863643Y-51171152D01*
X70720987Y-51214426D01*
X70589514Y-51284700D01*
X70474277Y-51379273D01*
X70379704Y-51494510D01*
X70309430Y-51625983D01*
X70266156Y-51768639D01*
X70251544Y-51916997D01*
X65117752Y-51916997D01*
X65046602Y-51783886D01*
X64876900Y-51577103D01*
X64670117Y-51407402D01*
X64434201Y-51281302D01*
X64178217Y-51203650D01*
X63912004Y-51177430D01*
X63645790Y-51203650D01*
X63389806Y-51281302D01*
X63153890Y-51407402D01*
X62947107Y-51577104D01*
X62777406Y-51783887D01*
X62760081Y-51816300D01*
X62757849Y-51793642D01*
X62714575Y-51650986D01*
X62644301Y-51519513D01*
X62549728Y-51404276D01*
X62434491Y-51309703D01*
X62303018Y-51239429D01*
X62160362Y-51196155D01*
X62012004Y-51181543D01*
X60812004Y-51181543D01*
X60663646Y-51196155D01*
X60520990Y-51239429D01*
X60389517Y-51309703D01*
X60274280Y-51404276D01*
X60179707Y-51519513D01*
X60109433Y-51650986D01*
X60066159Y-51793642D01*
X60051547Y-51942000D01*
X17533000Y-51942000D01*
X17533000Y-41576419D01*
X20909000Y-41576419D01*
X20909000Y-41735581D01*
X20940051Y-41891685D01*
X21000959Y-42038732D01*
X21089385Y-42171070D01*
X21201930Y-42283615D01*
X21334268Y-42372041D01*
X21481315Y-42432949D01*
X21637419Y-42464000D01*
X21796581Y-42464000D01*
X21952685Y-42432949D01*
X22099732Y-42372041D01*
X22232070Y-42283615D01*
X22344615Y-42171070D01*
X22433041Y-42038732D01*
X22493949Y-41891685D01*
X22525000Y-41735581D01*
X22525000Y-41710103D01*
X22985504Y-41249600D01*
X25120915Y-41249600D01*
X25138930Y-41267615D01*
X25271268Y-41356041D01*
X25418315Y-41416949D01*
X25574419Y-41448000D01*
X25733581Y-41448000D01*
X25889685Y-41416949D01*
X26036732Y-41356041D01*
X26169070Y-41267615D01*
X26281615Y-41155070D01*
X26370041Y-41022732D01*
X26430949Y-40875685D01*
X26462000Y-40719581D01*
X26462000Y-40560419D01*
X26430949Y-40404315D01*
X26370041Y-40257268D01*
X26281615Y-40124930D01*
X26169070Y-40012385D01*
X26036732Y-39923959D01*
X25889685Y-39863051D01*
X25733581Y-39832000D01*
X25574419Y-39832000D01*
X25418315Y-39863051D01*
X25271268Y-39923959D01*
X25138930Y-40012385D01*
X25120915Y-40030400D01*
X22762941Y-40030400D01*
X22733000Y-40027451D01*
X22613497Y-40039221D01*
X22581551Y-40048912D01*
X22498588Y-40074079D01*
X22392686Y-40130684D01*
X22299862Y-40206862D01*
X22280769Y-40230127D01*
X21662897Y-40848000D01*
X21637419Y-40848000D01*
X21481315Y-40879051D01*
X21334268Y-40939959D01*
X21201930Y-41028385D01*
X21089385Y-41140930D01*
X21000959Y-41273268D01*
X20940051Y-41420315D01*
X20909000Y-41576419D01*
X17533000Y-41576419D01*
X17533000Y-33274000D01*
X21331700Y-33274000D01*
X21348864Y-33448274D01*
X21399698Y-33615852D01*
X21482248Y-33770291D01*
X21593341Y-33905659D01*
X21728709Y-34016752D01*
X21883148Y-34099302D01*
X22050726Y-34150136D01*
X22225000Y-34167300D01*
X22399274Y-34150136D01*
X22566852Y-34099302D01*
X22721291Y-34016752D01*
X22822740Y-33933495D01*
X24202613Y-32553622D01*
X24264385Y-32646070D01*
X24376930Y-32758615D01*
X24479136Y-32826908D01*
X24373822Y-32897277D01*
X24261277Y-33009822D01*
X24172851Y-33142160D01*
X24111943Y-33289207D01*
X24080892Y-33445311D01*
X24080892Y-33604473D01*
X24111943Y-33760577D01*
X24172851Y-33907624D01*
X24261277Y-34039962D01*
X24373822Y-34152507D01*
X24506160Y-34240933D01*
X24653207Y-34301841D01*
X24809311Y-34332892D01*
X24834789Y-34332892D01*
X25862000Y-35360104D01*
X25862000Y-35385581D01*
X25876485Y-35458402D01*
X23647085Y-35458402D01*
X23629070Y-35440387D01*
X23496732Y-35351961D01*
X23349685Y-35291053D01*
X23193581Y-35260002D01*
X23034419Y-35260002D01*
X22878315Y-35291053D01*
X22731268Y-35351961D01*
X22598930Y-35440387D01*
X22486385Y-35552932D01*
X22397959Y-35685270D01*
X22337051Y-35832317D01*
X22306000Y-35988421D01*
X22306000Y-36147583D01*
X22337051Y-36303687D01*
X22397959Y-36450734D01*
X22485788Y-36582179D01*
X22422992Y-36676160D01*
X22362084Y-36823207D01*
X22331033Y-36979311D01*
X22331033Y-37138473D01*
X22362084Y-37294577D01*
X22422992Y-37441624D01*
X22511418Y-37573962D01*
X22623963Y-37686507D01*
X22756301Y-37774933D01*
X22903348Y-37835841D01*
X23059452Y-37866892D01*
X23218614Y-37866892D01*
X23374718Y-37835841D01*
X23521765Y-37774933D01*
X23654103Y-37686507D01*
X23766648Y-37573962D01*
X23855074Y-37441624D01*
X23915982Y-37294577D01*
X23947033Y-37138473D01*
X23947033Y-37115344D01*
X28066832Y-37115344D01*
X28556444Y-37604956D01*
X28519842Y-37641558D01*
X28437885Y-37764214D01*
X28360180Y-37647921D01*
X28247635Y-37535376D01*
X28115297Y-37446950D01*
X27968250Y-37386042D01*
X27812146Y-37354991D01*
X27652984Y-37354991D01*
X27496880Y-37386042D01*
X27349833Y-37446950D01*
X27217495Y-37535376D01*
X27104950Y-37647921D01*
X27016524Y-37780259D01*
X26977297Y-37874963D01*
X26878819Y-37894551D01*
X26731772Y-37955459D01*
X26599434Y-38043885D01*
X26486889Y-38156430D01*
X26398463Y-38288768D01*
X26337555Y-38435815D01*
X26306504Y-38591919D01*
X26306504Y-38751081D01*
X26337555Y-38907185D01*
X26398463Y-39054232D01*
X26486889Y-39186570D01*
X26504905Y-39204586D01*
X26504904Y-40694210D01*
X26501955Y-40724152D01*
X26513725Y-40843654D01*
X26520237Y-40865120D01*
X26548583Y-40958563D01*
X26605188Y-41064465D01*
X26681366Y-41157290D01*
X26704636Y-41176387D01*
X28775237Y-43246990D01*
X28794325Y-43270249D01*
X28887149Y-43346427D01*
X28993051Y-43403032D01*
X29107961Y-43437890D01*
X29197522Y-43446711D01*
X29197523Y-43446711D01*
X29227462Y-43449660D01*
X29257401Y-43446711D01*
X33134370Y-43446711D01*
X33132051Y-43452309D01*
X33101000Y-43608413D01*
X33101000Y-43767575D01*
X33121486Y-43870566D01*
X28730681Y-43870566D01*
X28494000Y-43633886D01*
X28494000Y-43608408D01*
X28462949Y-43452304D01*
X28402041Y-43305257D01*
X28313615Y-43172919D01*
X28201070Y-43060374D01*
X28068732Y-42971948D01*
X27921685Y-42911040D01*
X27765581Y-42879989D01*
X27606419Y-42879989D01*
X27450315Y-42911040D01*
X27303268Y-42971948D01*
X27268318Y-42995301D01*
X27201222Y-42950469D01*
X27054175Y-42889561D01*
X26898071Y-42858510D01*
X26738909Y-42858510D01*
X26582805Y-42889561D01*
X26440803Y-42948379D01*
X26364977Y-42897714D01*
X26217930Y-42836806D01*
X26061826Y-42805755D01*
X25902664Y-42805755D01*
X25746560Y-42836806D01*
X25604556Y-42895625D01*
X25528730Y-42844959D01*
X25381683Y-42784051D01*
X25225579Y-42753000D01*
X25066417Y-42753000D01*
X24910313Y-42784051D01*
X24763266Y-42844959D01*
X24630928Y-42933385D01*
X24518383Y-43045930D01*
X24429957Y-43178268D01*
X24369049Y-43325315D01*
X24337998Y-43481419D01*
X24337998Y-43640581D01*
X24369049Y-43796685D01*
X24429957Y-43943732D01*
X24518383Y-44076070D01*
X24630928Y-44188615D01*
X24763266Y-44277041D01*
X24910313Y-44337949D01*
X25066417Y-44369000D01*
X25091895Y-44369000D01*
X25133925Y-44411030D01*
X25098581Y-44404000D01*
X24939419Y-44404000D01*
X24783315Y-44435051D01*
X24636268Y-44495959D01*
X24503930Y-44584385D01*
X24391385Y-44696930D01*
X24302959Y-44829268D01*
X24242051Y-44976315D01*
X24211000Y-45132419D01*
X24211000Y-45291581D01*
X24242051Y-45447685D01*
X24302959Y-45594732D01*
X24391385Y-45727070D01*
X24503930Y-45839615D01*
X24636268Y-45928041D01*
X24783315Y-45988949D01*
X24939419Y-46020000D01*
X24964896Y-46020000D01*
X25735218Y-46790323D01*
X25754306Y-46813582D01*
X25847130Y-46889760D01*
X25953032Y-46946365D01*
X26067942Y-46981223D01*
X26157503Y-46990044D01*
X26157504Y-46990044D01*
X26187443Y-46992993D01*
X26217382Y-46990044D01*
X34547917Y-46990044D01*
X34536930Y-46997385D01*
X34424385Y-47109930D01*
X34335959Y-47242268D01*
X34324721Y-47269400D01*
X31906941Y-47269400D01*
X31877000Y-47266451D01*
X31757497Y-47278221D01*
X31736186Y-47284686D01*
X31642588Y-47313079D01*
X31536686Y-47369684D01*
X31443862Y-47445862D01*
X31424769Y-47469127D01*
X30578127Y-48315770D01*
X30554863Y-48334862D01*
X30478685Y-48427686D01*
X30422079Y-48533588D01*
X30408672Y-48577783D01*
X30345438Y-48620035D01*
X30205035Y-48760438D01*
X30094722Y-48925533D01*
X30018737Y-49108977D01*
X29980000Y-49303721D01*
X29980000Y-49502279D01*
X30018737Y-49697023D01*
X30094722Y-49880467D01*
X30205035Y-50045562D01*
X30345438Y-50185965D01*
X30510533Y-50296278D01*
X30693977Y-50372263D01*
X30888721Y-50411000D01*
X31087279Y-50411000D01*
X31282023Y-50372263D01*
X31465467Y-50296278D01*
X31623000Y-50191018D01*
X31780533Y-50296278D01*
X31963977Y-50372263D01*
X32158721Y-50411000D01*
X32357279Y-50411000D01*
X32552023Y-50372263D01*
X32716181Y-50304267D01*
X32744405Y-50327429D01*
X32832657Y-50374601D01*
X32928415Y-50403649D01*
X33028000Y-50413457D01*
X34028000Y-50413457D01*
X34127585Y-50403649D01*
X34223343Y-50374601D01*
X34276385Y-50346249D01*
X45058000Y-50346249D01*
X45058000Y-50613751D01*
X45110187Y-50876114D01*
X45212556Y-51123254D01*
X45361172Y-51345675D01*
X45550325Y-51534828D01*
X45772746Y-51683444D01*
X46019886Y-51785813D01*
X46282249Y-51838000D01*
X46549751Y-51838000D01*
X46812114Y-51785813D01*
X47059254Y-51683444D01*
X47281675Y-51534828D01*
X47470828Y-51345675D01*
X47595543Y-51159025D01*
X47595543Y-51330000D01*
X47605351Y-51429585D01*
X47634399Y-51525343D01*
X47681571Y-51613595D01*
X47745052Y-51690948D01*
X47822405Y-51754429D01*
X47910657Y-51801601D01*
X48006415Y-51830649D01*
X48106000Y-51840457D01*
X49806000Y-51840457D01*
X49905585Y-51830649D01*
X50001343Y-51801601D01*
X50089595Y-51754429D01*
X50166948Y-51690948D01*
X50230429Y-51613595D01*
X50277601Y-51525343D01*
X50306649Y-51429585D01*
X50316457Y-51330000D01*
X50316457Y-49630000D01*
X50306649Y-49530415D01*
X50277601Y-49434657D01*
X50230429Y-49346405D01*
X50166948Y-49269052D01*
X50089595Y-49205571D01*
X50001343Y-49158399D01*
X49905585Y-49129351D01*
X49806000Y-49119543D01*
X48106000Y-49119543D01*
X48006415Y-49129351D01*
X47910657Y-49158399D01*
X47822405Y-49205571D01*
X47745052Y-49269052D01*
X47681571Y-49346405D01*
X47634399Y-49434657D01*
X47605351Y-49530415D01*
X47595543Y-49630000D01*
X47595543Y-49800975D01*
X47470828Y-49614325D01*
X47281675Y-49425172D01*
X47059254Y-49276556D01*
X46812114Y-49174187D01*
X46549751Y-49122000D01*
X46282249Y-49122000D01*
X46019886Y-49174187D01*
X45772746Y-49276556D01*
X45550325Y-49425172D01*
X45361172Y-49614325D01*
X45212556Y-49836746D01*
X45110187Y-50083886D01*
X45058000Y-50346249D01*
X34276385Y-50346249D01*
X34311595Y-50327429D01*
X34388948Y-50263948D01*
X34452429Y-50186595D01*
X34499601Y-50098343D01*
X34528649Y-50002585D01*
X34538457Y-49903000D01*
X34538457Y-49006788D01*
X34906028Y-49006788D01*
X34924043Y-49024803D01*
X35056381Y-49113229D01*
X35203428Y-49174137D01*
X35359532Y-49205188D01*
X35518694Y-49205188D01*
X35674798Y-49174137D01*
X35821845Y-49113229D01*
X35954183Y-49024803D01*
X36066728Y-48912258D01*
X36155154Y-48779920D01*
X36216062Y-48632873D01*
X36247113Y-48476769D01*
X36247113Y-48375444D01*
X36300814Y-48404147D01*
X36378411Y-48427686D01*
X36415723Y-48439005D01*
X36535225Y-48450775D01*
X36565167Y-48447826D01*
X41018641Y-48447826D01*
X41036656Y-48465841D01*
X41168994Y-48554267D01*
X41316041Y-48615175D01*
X41472145Y-48646226D01*
X41631307Y-48646226D01*
X41787411Y-48615175D01*
X41934458Y-48554267D01*
X42066796Y-48465841D01*
X42179341Y-48353296D01*
X42267767Y-48220958D01*
X42328675Y-48073911D01*
X42359726Y-47917807D01*
X42359726Y-47758645D01*
X42328675Y-47602541D01*
X42324127Y-47591562D01*
X42345619Y-47570070D01*
X42408863Y-47475419D01*
X45858000Y-47475419D01*
X45858000Y-47634581D01*
X45889051Y-47790685D01*
X45949959Y-47937732D01*
X46038385Y-48070070D01*
X46150930Y-48182615D01*
X46283268Y-48271041D01*
X46430315Y-48331949D01*
X46586419Y-48363000D01*
X46745581Y-48363000D01*
X46901685Y-48331949D01*
X47048732Y-48271041D01*
X47181070Y-48182615D01*
X47199085Y-48164600D01*
X51366497Y-48164600D01*
X53252127Y-50050232D01*
X53238187Y-50083886D01*
X53186000Y-50346249D01*
X53186000Y-50613751D01*
X53238187Y-50876114D01*
X53340556Y-51123254D01*
X53489172Y-51345675D01*
X53678325Y-51534828D01*
X53900746Y-51683444D01*
X54147886Y-51785813D01*
X54410249Y-51838000D01*
X54677751Y-51838000D01*
X54940114Y-51785813D01*
X55187254Y-51683444D01*
X55409675Y-51534828D01*
X55598828Y-51345675D01*
X55723543Y-51159025D01*
X55723543Y-51330000D01*
X55733351Y-51429585D01*
X55762399Y-51525343D01*
X55809571Y-51613595D01*
X55873052Y-51690948D01*
X55950405Y-51754429D01*
X56038657Y-51801601D01*
X56134415Y-51830649D01*
X56234000Y-51840457D01*
X57934000Y-51840457D01*
X58033585Y-51830649D01*
X58129343Y-51801601D01*
X58217595Y-51754429D01*
X58294948Y-51690948D01*
X58358429Y-51613595D01*
X58405601Y-51525343D01*
X58434649Y-51429585D01*
X58444457Y-51330000D01*
X58444457Y-49630000D01*
X58434649Y-49530415D01*
X58405601Y-49434657D01*
X58358429Y-49346405D01*
X58294948Y-49269052D01*
X58217595Y-49205571D01*
X58129343Y-49158399D01*
X58033585Y-49129351D01*
X57934000Y-49119543D01*
X56234000Y-49119543D01*
X56134415Y-49129351D01*
X56038657Y-49158399D01*
X55950405Y-49205571D01*
X55873052Y-49269052D01*
X55809571Y-49346405D01*
X55762399Y-49434657D01*
X55733351Y-49530415D01*
X55723543Y-49630000D01*
X55723543Y-49800975D01*
X55598828Y-49614325D01*
X55409675Y-49425172D01*
X55187254Y-49276556D01*
X54940114Y-49174187D01*
X54677751Y-49122000D01*
X54410249Y-49122000D01*
X54147886Y-49174187D01*
X54114232Y-49188127D01*
X52071235Y-47145132D01*
X52052138Y-47121862D01*
X51959314Y-47045684D01*
X51853412Y-46989079D01*
X51738502Y-46954221D01*
X51648941Y-46945400D01*
X51619000Y-46942451D01*
X51589059Y-46945400D01*
X47199085Y-46945400D01*
X47181070Y-46927385D01*
X47048732Y-46838959D01*
X46901685Y-46778051D01*
X46745581Y-46747000D01*
X46586419Y-46747000D01*
X46430315Y-46778051D01*
X46283268Y-46838959D01*
X46150930Y-46927385D01*
X46038385Y-47039930D01*
X45949959Y-47172268D01*
X45889051Y-47319315D01*
X45858000Y-47475419D01*
X42408863Y-47475419D01*
X42434045Y-47437732D01*
X42494953Y-47290685D01*
X42526004Y-47134581D01*
X42526004Y-46975419D01*
X42494953Y-46819315D01*
X42434045Y-46672268D01*
X42345619Y-46539930D01*
X42233074Y-46427385D01*
X42100736Y-46338959D01*
X41953689Y-46278051D01*
X41797585Y-46247000D01*
X41638423Y-46247000D01*
X41628361Y-46249001D01*
X42030363Y-45847000D01*
X71820370Y-45847000D01*
X73897064Y-47923694D01*
X73899051Y-47933685D01*
X73959959Y-48080732D01*
X74048385Y-48213070D01*
X74160930Y-48325615D01*
X74293268Y-48414041D01*
X74440315Y-48474949D01*
X74450306Y-48476936D01*
X76269714Y-50296344D01*
X76293576Y-50325420D01*
X76367217Y-50385855D01*
X76409605Y-50420643D01*
X76480362Y-50458463D01*
X76541983Y-50491400D01*
X76685620Y-50534972D01*
X76797572Y-50545998D01*
X76797575Y-50545998D01*
X76834998Y-50549684D01*
X76872421Y-50545998D01*
X81516224Y-50545998D01*
X81552315Y-50560947D01*
X81708419Y-50591998D01*
X81867581Y-50591998D01*
X82023685Y-50560947D01*
X82170732Y-50500039D01*
X82303070Y-50411613D01*
X82415615Y-50299068D01*
X82504041Y-50166730D01*
X82564949Y-50019683D01*
X82596000Y-49863579D01*
X82596000Y-49704417D01*
X82564949Y-49548313D01*
X82504041Y-49401266D01*
X82415615Y-49268928D01*
X82303070Y-49156383D01*
X82170732Y-49067957D01*
X82023685Y-49007049D01*
X81867581Y-48975998D01*
X81833718Y-48975998D01*
X81834000Y-48974581D01*
X81834000Y-48815419D01*
X81802949Y-48659315D01*
X81742041Y-48512268D01*
X81653615Y-48379930D01*
X81628917Y-48355232D01*
X81675949Y-48241685D01*
X81707000Y-48085581D01*
X81707000Y-47926419D01*
X81675949Y-47770315D01*
X81615041Y-47623268D01*
X81526615Y-47490930D01*
X81414070Y-47378385D01*
X81281732Y-47289959D01*
X81134685Y-47229051D01*
X80978581Y-47198000D01*
X80953104Y-47198000D01*
X77468481Y-43713378D01*
X77868517Y-43713378D01*
X77898458Y-43716327D01*
X77928399Y-43713378D01*
X78017960Y-43704557D01*
X78132870Y-43669699D01*
X78238772Y-43613094D01*
X78331596Y-43536916D01*
X78350693Y-43513646D01*
X85694740Y-36169600D01*
X90533518Y-36169600D01*
X90454302Y-36317802D01*
X90376650Y-36573786D01*
X90350430Y-36840000D01*
X90376650Y-37106214D01*
X90454302Y-37362198D01*
X90580402Y-37598114D01*
X90750103Y-37804897D01*
X90956886Y-37974598D01*
X91172787Y-38090000D01*
X90956886Y-38205402D01*
X90750103Y-38375103D01*
X90580402Y-38581886D01*
X90454302Y-38817802D01*
X90376650Y-39073786D01*
X90350430Y-39340000D01*
X90376650Y-39606214D01*
X90454302Y-39862198D01*
X90580402Y-40098114D01*
X90750103Y-40304897D01*
X90956886Y-40474598D01*
X91192802Y-40600698D01*
X91448786Y-40678350D01*
X91648294Y-40698000D01*
X92031706Y-40698000D01*
X92231214Y-40678350D01*
X92487198Y-40600698D01*
X92723114Y-40474598D01*
X92929897Y-40304897D01*
X93099598Y-40098114D01*
X93225698Y-39862198D01*
X93303350Y-39606214D01*
X93329570Y-39340000D01*
X93303350Y-39073786D01*
X93225698Y-38817802D01*
X93099598Y-38581886D01*
X92929897Y-38375103D01*
X92723114Y-38205402D01*
X92507213Y-38090000D01*
X92723114Y-37974598D01*
X92929897Y-37804897D01*
X93099598Y-37598114D01*
X93225698Y-37362198D01*
X93303350Y-37106214D01*
X93329570Y-36840000D01*
X93303350Y-36573786D01*
X93225698Y-36317802D01*
X93099598Y-36081886D01*
X92929897Y-35875103D01*
X92723114Y-35705402D01*
X92487198Y-35579302D01*
X92231214Y-35501650D01*
X92031706Y-35482000D01*
X91648294Y-35482000D01*
X91547972Y-35491881D01*
X96219862Y-30819992D01*
X96243127Y-30800899D01*
X96319305Y-30708075D01*
X96368550Y-30615943D01*
X96375910Y-30602174D01*
X96410768Y-30487264D01*
X96422538Y-30367761D01*
X96419589Y-30337820D01*
X96419589Y-26378083D01*
X96437604Y-26360068D01*
X96526030Y-26227730D01*
X96586938Y-26080683D01*
X96617989Y-25924579D01*
X96617989Y-25765417D01*
X96586938Y-25609313D01*
X96526030Y-25462266D01*
X96437604Y-25329928D01*
X96325059Y-25217383D01*
X96192721Y-25128957D01*
X96045674Y-25068049D01*
X95889570Y-25036998D01*
X95730408Y-25036998D01*
X95574304Y-25068049D01*
X95427257Y-25128957D01*
X95294919Y-25217383D01*
X95256579Y-25255723D01*
X95112181Y-25227000D01*
X94953019Y-25227000D01*
X94796915Y-25258051D01*
X94649868Y-25318959D01*
X94517530Y-25407385D01*
X94404985Y-25519930D01*
X94316559Y-25652268D01*
X94255651Y-25799315D01*
X94224600Y-25955419D01*
X94224600Y-26114581D01*
X94255651Y-26270685D01*
X94316559Y-26417732D01*
X94404985Y-26550070D01*
X94423001Y-26568086D01*
X94423000Y-30317895D01*
X90298497Y-34442400D01*
X85405427Y-34442400D01*
X85375486Y-34439451D01*
X85255983Y-34451221D01*
X85141073Y-34486079D01*
X85086743Y-34515119D01*
X85035172Y-34542684D01*
X84942348Y-34618862D01*
X84923255Y-34642127D01*
X77426816Y-42138567D01*
X74971627Y-42138567D01*
X74976000Y-42116581D01*
X74976000Y-41957419D01*
X74944949Y-41801315D01*
X74884041Y-41654268D01*
X74795615Y-41521930D01*
X74683070Y-41409385D01*
X74550732Y-41320959D01*
X74403685Y-41260051D01*
X74247581Y-41229000D01*
X74088419Y-41229000D01*
X73932315Y-41260051D01*
X73785268Y-41320959D01*
X73652930Y-41409385D01*
X73634915Y-41427400D01*
X71753504Y-41427400D01*
X70531000Y-40204897D01*
X70531000Y-40179419D01*
X70499949Y-40023315D01*
X70439041Y-39876268D01*
X70350615Y-39743930D01*
X70238070Y-39631385D01*
X70105732Y-39542959D01*
X69958685Y-39482051D01*
X69802581Y-39451000D01*
X69643419Y-39451000D01*
X69487315Y-39482051D01*
X69340268Y-39542959D01*
X69207930Y-39631385D01*
X69095385Y-39743930D01*
X69006959Y-39876268D01*
X68946051Y-40023315D01*
X68915000Y-40179419D01*
X68915000Y-40338581D01*
X68946051Y-40494685D01*
X69006959Y-40641732D01*
X69095385Y-40774070D01*
X69207930Y-40886615D01*
X69340268Y-40975041D01*
X69487315Y-41035949D01*
X69643419Y-41067000D01*
X69668897Y-41067000D01*
X70740463Y-42138567D01*
X39241536Y-42138567D01*
X44756685Y-36623419D01*
X55707000Y-36623419D01*
X55707000Y-36782581D01*
X55738051Y-36938685D01*
X55798959Y-37085732D01*
X55887385Y-37218070D01*
X55999930Y-37330615D01*
X56132268Y-37419041D01*
X56279315Y-37479949D01*
X56435419Y-37511000D01*
X56594581Y-37511000D01*
X56750685Y-37479949D01*
X56897732Y-37419041D01*
X57030070Y-37330615D01*
X57142615Y-37218070D01*
X57231041Y-37085732D01*
X57291949Y-36938685D01*
X57323000Y-36782581D01*
X57323000Y-36757103D01*
X61809504Y-32270600D01*
X73337915Y-32270600D01*
X73355930Y-32288615D01*
X73488268Y-32377041D01*
X73635315Y-32437949D01*
X73791419Y-32469000D01*
X73950581Y-32469000D01*
X74106685Y-32437949D01*
X74253732Y-32377041D01*
X74386070Y-32288615D01*
X74498615Y-32176070D01*
X74587041Y-32043732D01*
X74647949Y-31896685D01*
X74679000Y-31740581D01*
X74679000Y-31581419D01*
X74647949Y-31425315D01*
X74587041Y-31278268D01*
X74498615Y-31145930D01*
X74386070Y-31033385D01*
X74253732Y-30944959D01*
X74106685Y-30884051D01*
X73950581Y-30853000D01*
X73791419Y-30853000D01*
X73635315Y-30884051D01*
X73488268Y-30944959D01*
X73355930Y-31033385D01*
X73337915Y-31051400D01*
X61586941Y-31051400D01*
X61557000Y-31048451D01*
X61437497Y-31060221D01*
X61322587Y-31095079D01*
X61282081Y-31116730D01*
X61216686Y-31151684D01*
X61123862Y-31227862D01*
X61104769Y-31251127D01*
X56460897Y-35895000D01*
X56435419Y-35895000D01*
X56279315Y-35926051D01*
X56132268Y-35986959D01*
X55999930Y-36075385D01*
X55887385Y-36187930D01*
X55798959Y-36320268D01*
X55738051Y-36467315D01*
X55707000Y-36623419D01*
X44756685Y-36623419D01*
X47658666Y-33721439D01*
X47681925Y-33702351D01*
X47701021Y-33679082D01*
X48087649Y-33292456D01*
X48110908Y-33273368D01*
X48187086Y-33180544D01*
X48243691Y-33074642D01*
X48252879Y-33044353D01*
X48278549Y-32959733D01*
X48290319Y-32840230D01*
X48287370Y-32810289D01*
X48287370Y-32562513D01*
X48305385Y-32544498D01*
X48393811Y-32412160D01*
X48454719Y-32265113D01*
X48485770Y-32109009D01*
X48485770Y-31949847D01*
X48454719Y-31793743D01*
X48393811Y-31646696D01*
X48318576Y-31534100D01*
X49817559Y-31534100D01*
X49847500Y-31537049D01*
X49877441Y-31534100D01*
X49905047Y-31531381D01*
X49958421Y-31541998D01*
X50117583Y-31541998D01*
X50273687Y-31510947D01*
X50420734Y-31450039D01*
X50553072Y-31361613D01*
X50665617Y-31249068D01*
X50754043Y-31116730D01*
X50814951Y-30969683D01*
X50846002Y-30813579D01*
X50846002Y-30654417D01*
X50814951Y-30498313D01*
X50754043Y-30351266D01*
X50665617Y-30218928D01*
X50553072Y-30106383D01*
X50420734Y-30017957D01*
X50273687Y-29957049D01*
X50117583Y-29925998D01*
X49958421Y-29925998D01*
X49802317Y-29957049D01*
X49655270Y-30017957D01*
X49522932Y-30106383D01*
X49410387Y-30218928D01*
X49346260Y-30314900D01*
X46908850Y-30314900D01*
X46878911Y-30311951D01*
X46848972Y-30314900D01*
X46848971Y-30314900D01*
X46759410Y-30323721D01*
X46644500Y-30358579D01*
X46538598Y-30415184D01*
X46445774Y-30491362D01*
X46426687Y-30514620D01*
X45500627Y-31440682D01*
X45477363Y-31459774D01*
X45409884Y-31541998D01*
X45401185Y-31552598D01*
X45344580Y-31658500D01*
X45309721Y-31773410D01*
X45297951Y-31892912D01*
X45300901Y-31922863D01*
X45300900Y-32576995D01*
X41814548Y-36063347D01*
X41723823Y-35972622D01*
X41719154Y-35969502D01*
X41737041Y-35942732D01*
X41797949Y-35795685D01*
X41829000Y-35639581D01*
X41829000Y-35480419D01*
X41797949Y-35324315D01*
X41737041Y-35177268D01*
X41648615Y-35044930D01*
X41536070Y-34932385D01*
X41403732Y-34843959D01*
X41256685Y-34783051D01*
X41100581Y-34752000D01*
X40941419Y-34752000D01*
X40785315Y-34783051D01*
X40638268Y-34843959D01*
X40505930Y-34932385D01*
X40393385Y-35044930D01*
X40304959Y-35177268D01*
X40244051Y-35324315D01*
X40213000Y-35480419D01*
X40213000Y-35505895D01*
X39808052Y-35910844D01*
X39829449Y-35859185D01*
X39860500Y-35703081D01*
X39860500Y-35543919D01*
X39829449Y-35387815D01*
X39768541Y-35240768D01*
X39680115Y-35108430D01*
X39567570Y-34995885D01*
X39435232Y-34907459D01*
X39288185Y-34846551D01*
X39132081Y-34815500D01*
X38972919Y-34815500D01*
X38816815Y-34846551D01*
X38669768Y-34907459D01*
X38537430Y-34995885D01*
X38424885Y-35108430D01*
X38336459Y-35240768D01*
X38275551Y-35387815D01*
X38244500Y-35543919D01*
X38244500Y-35703081D01*
X38264462Y-35803435D01*
X34862997Y-39204900D01*
X32383505Y-39204900D01*
X28836737Y-35658134D01*
X28817640Y-35634864D01*
X28770668Y-35596315D01*
X28836070Y-35552615D01*
X28948615Y-35440070D01*
X29037041Y-35307732D01*
X29097949Y-35160685D01*
X29113501Y-35082501D01*
X29191685Y-35066949D01*
X29338732Y-35006041D01*
X29471070Y-34917615D01*
X29583615Y-34805070D01*
X29672041Y-34672732D01*
X29732949Y-34525685D01*
X29764000Y-34369581D01*
X29764000Y-34210419D01*
X29732949Y-34054315D01*
X29672041Y-33907268D01*
X29583615Y-33774930D01*
X29565600Y-33756915D01*
X29565600Y-31735255D01*
X29590698Y-31674662D01*
X29621749Y-31518558D01*
X29621749Y-31369000D01*
X34379577Y-31369000D01*
X34417000Y-31372686D01*
X34454423Y-31369000D01*
X34653244Y-31369000D01*
X34542268Y-31414967D01*
X34409930Y-31503393D01*
X34297385Y-31615938D01*
X34208959Y-31748276D01*
X34148051Y-31895323D01*
X34117000Y-32051427D01*
X34117000Y-32210589D01*
X34148051Y-32366693D01*
X34208959Y-32513740D01*
X34297385Y-32646078D01*
X34409930Y-32758623D01*
X34542268Y-32847049D01*
X34689315Y-32907957D01*
X34845419Y-32939008D01*
X34883083Y-32939008D01*
X34884685Y-32940323D01*
X34949216Y-32974815D01*
X34990586Y-32996928D01*
X35105496Y-33031786D01*
X35224999Y-33043556D01*
X35254940Y-33040607D01*
X37960552Y-33040607D01*
X37990493Y-33043556D01*
X38020434Y-33040607D01*
X38030781Y-33039588D01*
X38109995Y-33031786D01*
X38224905Y-32996928D01*
X38330807Y-32940323D01*
X38423631Y-32864145D01*
X38442728Y-32840875D01*
X39258439Y-32025165D01*
X40169906Y-32025165D01*
X40187921Y-32043180D01*
X40320259Y-32131606D01*
X40467306Y-32192514D01*
X40623410Y-32223565D01*
X40782572Y-32223565D01*
X40938676Y-32192514D01*
X41085723Y-32131606D01*
X41218061Y-32043180D01*
X41330606Y-31930635D01*
X41419032Y-31798297D01*
X41479940Y-31651250D01*
X41510991Y-31495146D01*
X41510991Y-31335984D01*
X41498446Y-31272914D01*
X41530732Y-31259541D01*
X41663070Y-31171115D01*
X41775615Y-31058570D01*
X41864041Y-30926232D01*
X41924949Y-30779185D01*
X41956000Y-30623081D01*
X41956000Y-30621611D01*
X42102232Y-30561041D01*
X42234570Y-30472615D01*
X42347115Y-30360070D01*
X42435541Y-30227732D01*
X42496449Y-30080685D01*
X42527500Y-29924581D01*
X42527500Y-29765419D01*
X42496449Y-29609315D01*
X42435541Y-29462268D01*
X42347115Y-29329930D01*
X42234570Y-29217385D01*
X42102232Y-29128959D01*
X41955185Y-29068051D01*
X41799081Y-29037000D01*
X41639919Y-29037000D01*
X41483815Y-29068051D01*
X41336768Y-29128959D01*
X41204430Y-29217385D01*
X41186415Y-29235400D01*
X38137277Y-29235400D01*
X38107336Y-29232451D01*
X37987833Y-29244221D01*
X37876250Y-29278070D01*
X37872924Y-29279079D01*
X37767022Y-29335684D01*
X37674198Y-29411862D01*
X37655110Y-29435121D01*
X36812500Y-30277732D01*
X36812500Y-30209919D01*
X36781449Y-30053815D01*
X36720541Y-29906768D01*
X36632115Y-29774430D01*
X36519570Y-29661885D01*
X36471719Y-29629912D01*
X37418212Y-28683419D01*
X61864000Y-28683419D01*
X61864000Y-28842581D01*
X61895051Y-28998685D01*
X61955959Y-29145732D01*
X62044385Y-29278070D01*
X62156930Y-29390615D01*
X62289268Y-29479041D01*
X62436315Y-29539949D01*
X62592419Y-29571000D01*
X62751581Y-29571000D01*
X62907685Y-29539949D01*
X63054732Y-29479041D01*
X63187070Y-29390615D01*
X63299615Y-29278070D01*
X63388041Y-29145732D01*
X63448949Y-28998685D01*
X63480000Y-28842581D01*
X63480000Y-28817103D01*
X63813504Y-28483600D01*
X68651059Y-28483600D01*
X68681000Y-28486549D01*
X68710941Y-28483600D01*
X68800502Y-28474779D01*
X68915412Y-28439921D01*
X69021314Y-28383316D01*
X69114138Y-28307138D01*
X69133235Y-28283868D01*
X71316600Y-26100503D01*
X71333802Y-26109698D01*
X71589786Y-26187350D01*
X71856000Y-26213570D01*
X72122213Y-26187350D01*
X72378197Y-26109698D01*
X72614113Y-25983598D01*
X72820896Y-25813897D01*
X72990598Y-25607114D01*
X73116698Y-25371198D01*
X73194350Y-25115214D01*
X73214000Y-24915706D01*
X73214000Y-24482295D01*
X73194350Y-24282787D01*
X73116698Y-24026803D01*
X72990598Y-23790886D01*
X72820897Y-23584103D01*
X72614114Y-23414402D01*
X72378198Y-23288302D01*
X72122214Y-23210650D01*
X71856000Y-23184430D01*
X71589787Y-23210650D01*
X71333803Y-23288302D01*
X71097887Y-23414402D01*
X70891104Y-23584103D01*
X70721402Y-23790886D01*
X70595302Y-24026802D01*
X70517650Y-24282786D01*
X70498000Y-24482294D01*
X70498000Y-24915705D01*
X70517650Y-25115213D01*
X70531622Y-25161274D01*
X68428497Y-27264400D01*
X63590941Y-27264400D01*
X63561000Y-27261451D01*
X63441497Y-27273221D01*
X63406639Y-27283795D01*
X63326588Y-27308079D01*
X63220686Y-27364684D01*
X63127862Y-27440862D01*
X63108769Y-27464127D01*
X62617897Y-27955000D01*
X62592419Y-27955000D01*
X62436315Y-27986051D01*
X62289268Y-28046959D01*
X62156930Y-28135385D01*
X62044385Y-28247930D01*
X61955959Y-28380268D01*
X61895051Y-28527315D01*
X61864000Y-28683419D01*
X37418212Y-28683419D01*
X37780631Y-28321000D01*
X44432224Y-28321000D01*
X44468315Y-28335949D01*
X44624419Y-28367000D01*
X44783581Y-28367000D01*
X44939685Y-28335949D01*
X45086732Y-28275041D01*
X45219070Y-28186615D01*
X45331615Y-28074070D01*
X45420041Y-27941732D01*
X45434991Y-27905639D01*
X45495139Y-27845491D01*
X45531232Y-27830541D01*
X45663570Y-27742115D01*
X45776115Y-27629570D01*
X45864541Y-27497232D01*
X45925449Y-27350185D01*
X45956500Y-27194081D01*
X45956500Y-27034919D01*
X45925449Y-26878815D01*
X45864541Y-26731768D01*
X45776115Y-26599430D01*
X45663570Y-26486885D01*
X45531232Y-26398459D01*
X45384185Y-26337551D01*
X45228081Y-26306500D01*
X45068919Y-26306500D01*
X44912815Y-26337551D01*
X44765768Y-26398459D01*
X44633430Y-26486885D01*
X44520885Y-26599430D01*
X44432459Y-26731768D01*
X44417509Y-26767861D01*
X44388370Y-26797000D01*
X37502423Y-26797000D01*
X37465000Y-26793314D01*
X37427577Y-26797000D01*
X37427574Y-26797000D01*
X37315622Y-26808026D01*
X37171985Y-26851598D01*
X37121066Y-26878815D01*
X37039607Y-26922355D01*
X37016952Y-26940948D01*
X36923578Y-27017578D01*
X36899721Y-27046648D01*
X34101370Y-29845000D01*
X33574000Y-29845000D01*
X33574000Y-29765419D01*
X33542949Y-29609315D01*
X33482041Y-29462268D01*
X33393615Y-29329930D01*
X33375600Y-29311915D01*
X33375600Y-25779503D01*
X33518603Y-25636500D01*
X33544081Y-25636500D01*
X33700185Y-25605449D01*
X33847232Y-25544541D01*
X33979570Y-25456115D01*
X34092115Y-25343570D01*
X34180541Y-25211232D01*
X34241449Y-25064185D01*
X34272500Y-24908081D01*
X34272500Y-24748919D01*
X34241449Y-24592815D01*
X34180541Y-24445768D01*
X34092115Y-24313430D01*
X33979570Y-24200885D01*
X33847232Y-24112459D01*
X33700185Y-24051551D01*
X33544081Y-24020500D01*
X33384919Y-24020500D01*
X33228815Y-24051551D01*
X33081768Y-24112459D01*
X32949430Y-24200885D01*
X32836885Y-24313430D01*
X32748459Y-24445768D01*
X32687551Y-24592815D01*
X32656500Y-24748919D01*
X32656500Y-24774397D01*
X32356127Y-25074770D01*
X32332863Y-25093862D01*
X32256685Y-25186686D01*
X32200080Y-25292588D01*
X32165221Y-25407498D01*
X32153451Y-25527000D01*
X32156401Y-25556952D01*
X32156400Y-29311915D01*
X32138385Y-29329930D01*
X32049959Y-29462268D01*
X31989051Y-29609315D01*
X31958000Y-29765419D01*
X31958000Y-29845000D01*
X30434758Y-29845000D01*
X30434041Y-29843268D01*
X30345615Y-29710930D01*
X30233070Y-29598385D01*
X30100732Y-29509959D01*
X29953685Y-29449051D01*
X29797581Y-29418000D01*
X29638419Y-29418000D01*
X29482315Y-29449051D01*
X29335268Y-29509959D01*
X29202930Y-29598385D01*
X29090385Y-29710930D01*
X29001959Y-29843268D01*
X29001242Y-29845000D01*
X25026363Y-29845000D01*
X24973041Y-29716268D01*
X24884615Y-29583930D01*
X24772070Y-29471385D01*
X24639732Y-29382959D01*
X24492685Y-29322051D01*
X24336581Y-29291000D01*
X24177419Y-29291000D01*
X24021315Y-29322051D01*
X23874268Y-29382959D01*
X23741930Y-29471385D01*
X23629385Y-29583930D01*
X23540959Y-29716268D01*
X23480051Y-29863315D01*
X23449000Y-30019419D01*
X23449000Y-30178581D01*
X23480051Y-30334685D01*
X23540959Y-30481732D01*
X23622001Y-30603018D01*
X23622001Y-30619764D01*
X21565505Y-32676260D01*
X21482248Y-32777709D01*
X21399698Y-32932148D01*
X21348864Y-33099726D01*
X21331700Y-33274000D01*
X17533000Y-33274000D01*
X17533000Y-23580000D01*
X64217543Y-23580000D01*
X64217543Y-26580000D01*
X64227351Y-26679585D01*
X64256399Y-26775343D01*
X64303571Y-26863595D01*
X64367052Y-26940948D01*
X64444405Y-27004429D01*
X64532657Y-27051601D01*
X64628415Y-27080649D01*
X64728000Y-27090457D01*
X67728000Y-27090457D01*
X67827585Y-27080649D01*
X67923343Y-27051601D01*
X68011595Y-27004429D01*
X68088948Y-26940948D01*
X68152429Y-26863595D01*
X68199601Y-26775343D01*
X68228649Y-26679585D01*
X68238457Y-26580000D01*
X68238457Y-23580000D01*
X68228649Y-23480415D01*
X68199601Y-23384657D01*
X68152429Y-23296405D01*
X68088948Y-23219052D01*
X68011595Y-23155571D01*
X67923343Y-23108399D01*
X67827585Y-23079351D01*
X67728000Y-23069543D01*
X64728000Y-23069543D01*
X64628415Y-23079351D01*
X64532657Y-23108399D01*
X64444405Y-23155571D01*
X64367052Y-23219052D01*
X64303571Y-23296405D01*
X64256399Y-23384657D01*
X64227351Y-23480415D01*
X64217543Y-23580000D01*
X17533000Y-23580000D01*
X17533000Y-20533000D01*
X99466999Y-20532998D01*
X99467001Y-60317000D01*
M02*
