M48
; DRILL file {KiCad (5.1.6)-1} date 02/25/21 15:27:51
; FORMAT={-:-/ absolute / metric / decimal}
; #@! TF.CreationDate,2021-02-25T15:27:51+08:00
; #@! TF.GenerationSoftware,Kicad,Pcbnew,(5.1.6)-1
; #@! TF.FileFunction,Plated,1,2,PTH
FMAT,2
METRIC
T1C0.300
T2C0.400
T3C0.600
T4C0.650
T5C0.850
T6C0.900
T7C0.950
T8C1.000
T9C1.750
%
G90
G05
T1
X21.717Y-41.656
X22.288Y-33.21
X22.796Y-32.703
X23.114Y-36.068
X23.139Y-37.059
X24.257Y-30.099
X24.889Y-33.525
X24.892Y-32.131
X25.019Y-45.212
X25.146Y-43.561
X25.4Y-37.084
X25.45Y-32.964
X25.654Y-40.64
X25.908Y-45.212
X25.982Y-43.614
X26.67Y-35.306
X26.818Y-43.667
X27.115Y-38.672
X27.561Y-35.305
X27.686Y-43.688
X27.733Y-38.163
X28.321Y-34.925
X28.384Y-38.608
X28.814Y-31.439
X28.892Y-51.308
X28.956Y-34.29
X29.147Y-38.157
X29.718Y-30.226
X30.48Y-51.308
X30.861Y-41.148
X31.75Y-41.148
X31.941Y-34.925
X31.941Y-38.1
X32.766Y-29.845
X33.465Y-24.828
X33.528Y-34.925
X33.528Y-36.512
X33.528Y-38.1
X33.782Y-21.336
X33.909Y-43.688
X34.712Y-43.393
X34.925Y-23.304
X34.925Y-32.131
X35.052Y-47.625
X35.179Y-34.925
X35.179Y-38.1
X35.439Y-48.397
X35.657Y-31.703
X35.941Y-25.209
X36.005Y-21.336
X36.005Y-30.29
X36.54Y-31.412
X36.576Y-49.466
X36.957Y-46.147
X37.084Y-23.304
X37.782Y-49.466
X38.1Y-21.336
X38.163Y-25.209
X38.672Y-32.956
X38.672Y-33.972
X39.052Y-35.623
X39.052Y-49.53
X39.206Y-36.507
X39.37Y-23.304
X40.513Y-21.336
X40.513Y-25.209
X40.576Y-41.593
X40.576Y-46.223
X40.703Y-31.416
X41.021Y-35.56
X41.148Y-30.543
X41.209Y-36.6
X41.552Y-47.838
X41.718Y-47.055
X41.719Y-29.845
X42.164Y-41.593
X44.704Y-27.559
X45.148Y-27.114
X45.148Y-38.798
X45.847Y-37.719
X46.418Y-38.798
X46.57Y-32.09
X46.666Y-47.555
X46.982Y-32.719
X47.678Y-32.029
X50.038Y-30.734
X56.515Y-36.703
X62.672Y-28.763
X69.659Y-46.545
X69.723Y-40.259
X70.802Y-46.545
X71.247Y-36.576
X71.247Y-37.655
X71.247Y-38.798
X72.009Y-46.545
X72.39Y-36.576
X72.39Y-37.655
X72.39Y-38.798
X73.871Y-31.661
X74.168Y-42.037
X74.676Y-47.698
X77.47Y-48.895
X77.724Y-47.879
X80.899Y-48.006
X80.957Y-32.327
X80.957Y-33.02
X80.96Y-34.605
X81.026Y-48.895
X81.788Y-49.784
X81.849Y-34.605
X82.738Y-34.605
X83.754Y-34.605
X86.106Y-33.147
X87.249Y-34.036
X90.043Y-34.036
X92.898Y-27.239
X92.898Y-27.747
X92.898Y-28.255
X93.345Y-34.671
X95.033Y-26.035
X95.123Y-34.671
X95.81Y-25.845
X87.322Y-29.029
X87.322Y-29.779
X87.322Y-30.529
X88.072Y-29.029
X88.072Y-29.779
X88.072Y-30.529
X88.822Y-29.029
X88.822Y-29.779
X88.822Y-30.529
T2
X83.378Y-45.527
X85.791Y-45.527
X88.141Y-45.527
X90.485Y-45.527
X97.073Y-39.579
X97.073Y-42.69
X97.073Y-45.611
X97.091Y-36.639
T4
X29.718Y-49.403
X30.988Y-49.403
X32.258Y-49.403
X33.528Y-49.403
T5
X92.908Y-24.719
X97.908Y-24.719
T6
X27.493Y-57.846
X30.033Y-57.846
X32.573Y-57.846
X36.977Y-57.785
X39.477Y-57.785
T7
X71.612Y-52.642
X74.112Y-52.642
X76.612Y-52.642
X92.073Y-52.544
X94.573Y-52.544
X97.073Y-52.544
X91.84Y-36.84
X91.84Y-39.34
X91.84Y-41.84
X61.412Y-52.667
X63.912Y-52.667
X66.412Y-52.667
X81.862Y-52.592
X84.362Y-52.592
X86.862Y-52.592
T8
X52.004Y-50.48
X54.544Y-50.48
X57.084Y-50.48
X71.856Y-24.699
X74.356Y-24.699
X43.876Y-50.48
X46.416Y-50.48
X48.956Y-50.48
T9
X62.348Y-25.08
X66.228Y-25.08
T3
G00X91.908Y-22.369
M15
G01X91.908Y-21.669
M16
G05
G00X98.908Y-21.669
M15
G01X98.908Y-22.369
M16
G05
T0
M30
