G04 #@! TF.GenerationSoftware,KiCad,Pcbnew,(5.1.6)-1*
G04 #@! TF.CreationDate,2021-01-06T20:51:57+08:00*
G04 #@! TF.ProjectId,main_V1.0,6d61696e-5f56-4312-9e30-2e6b69636164,rev?*
G04 #@! TF.SameCoordinates,Original*
G04 #@! TF.FileFunction,Paste,Top*
G04 #@! TF.FilePolarity,Positive*
%FSLAX46Y46*%
G04 Gerber Fmt 4.6, Leading zero omitted, Abs format (unit mm)*
G04 Created by KiCad (PCBNEW (5.1.6)-1) date 2021-01-06 20:51:57*
%MOMM*%
%LPD*%
G01*
G04 APERTURE LIST*
%ADD10R,1.700000X2.000000*%
%ADD11R,1.100000X0.300000*%
%ADD12C,0.100000*%
%ADD13R,0.600000X0.500000*%
%ADD14R,0.400000X0.750000*%
%ADD15R,3.450000X4.350000*%
%ADD16R,0.950000X0.450000*%
%ADD17R,0.400000X1.350000*%
%ADD18R,1.150000X1.000000*%
%ADD19R,1.600000X1.600000*%
%ADD20R,0.800000X0.900000*%
%ADD21R,1.000000X0.500000*%
%ADD22R,0.500000X1.300000*%
%ADD23R,1.060000X0.650000*%
%ADD24C,1.500000*%
G04 APERTURE END LIST*
D10*
X46819000Y5117000D03*
D11*
X44262500Y-8650000D03*
X44262500Y350000D03*
X44262500Y1350000D03*
X44262500Y2350000D03*
X44262500Y-2650000D03*
X44262500Y2850000D03*
X44262500Y-8150000D03*
X44262500Y-5150000D03*
X44262500Y-650000D03*
X44262500Y-7650000D03*
X44262500Y-1150000D03*
X44262500Y1850000D03*
X44262500Y-10650000D03*
D10*
X46819000Y-12917000D03*
D11*
X44262500Y-3650000D03*
X44262500Y-9150000D03*
X44262500Y-6150000D03*
X44262500Y-3150000D03*
X44262500Y-1650000D03*
X44262500Y-11150000D03*
X44262500Y-9650000D03*
X44262500Y-150000D03*
X44262500Y850000D03*
X44262500Y-4150000D03*
X44262500Y-5650000D03*
X44262500Y3350000D03*
X44262500Y-7150000D03*
X44262500Y-4650000D03*
X44262500Y-6650000D03*
X44262500Y-10150000D03*
X44262500Y-2150000D03*
G36*
G01*
X38682105Y-7667711D02*
X38509606Y-7966489D01*
G75*
G02*
X38308117Y-8020478I-127739J73750D01*
G01*
X38052639Y-7872978D01*
G75*
G02*
X37998650Y-7671489I73750J127739D01*
G01*
X38171150Y-7372711D01*
G75*
G02*
X38372639Y-7318722I127739J-73750D01*
G01*
X38628117Y-7466222D01*
G75*
G02*
X38682106Y-7667711I-73750J-127739D01*
G01*
G37*
G36*
G01*
X39522149Y-8152711D02*
X39349650Y-8451489D01*
G75*
G02*
X39148161Y-8505478I-127739J73750D01*
G01*
X38892683Y-8357978D01*
G75*
G02*
X38838694Y-8156489I73750J127739D01*
G01*
X39011194Y-7857711D01*
G75*
G02*
X39212683Y-7803722I127739J-73750D01*
G01*
X39468161Y-7951222D01*
G75*
G02*
X39522150Y-8152711I-73750J-127739D01*
G01*
G37*
G36*
G01*
X38199505Y-8493211D02*
X38027006Y-8791989D01*
G75*
G02*
X37825517Y-8845978I-127739J73750D01*
G01*
X37570039Y-8698478D01*
G75*
G02*
X37516050Y-8496989I73750J127739D01*
G01*
X37688550Y-8198211D01*
G75*
G02*
X37890039Y-8144222I127739J-73750D01*
G01*
X38145517Y-8291722D01*
G75*
G02*
X38199506Y-8493211I-73750J-127739D01*
G01*
G37*
G36*
G01*
X39039549Y-8978211D02*
X38867050Y-9276989D01*
G75*
G02*
X38665561Y-9330978I-127739J73750D01*
G01*
X38410083Y-9183478D01*
G75*
G02*
X38356094Y-8981989I73750J127739D01*
G01*
X38528594Y-8683211D01*
G75*
G02*
X38730083Y-8629222I127739J-73750D01*
G01*
X38985561Y-8776722D01*
G75*
G02*
X39039550Y-8978211I-73750J-127739D01*
G01*
G37*
G36*
G01*
X38796250Y-13240500D02*
X39308750Y-13240500D01*
G75*
G02*
X39527500Y-13459250I0J-218750D01*
G01*
X39527500Y-13896750D01*
G75*
G02*
X39308750Y-14115500I-218750J0D01*
G01*
X38796250Y-14115500D01*
G75*
G02*
X38577500Y-13896750I0J218750D01*
G01*
X38577500Y-13459250D01*
G75*
G02*
X38796250Y-13240500I218750J0D01*
G01*
G37*
G36*
G01*
X38796250Y-11665500D02*
X39308750Y-11665500D01*
G75*
G02*
X39527500Y-11884250I0J-218750D01*
G01*
X39527500Y-12321750D01*
G75*
G02*
X39308750Y-12540500I-218750J0D01*
G01*
X38796250Y-12540500D01*
G75*
G02*
X38577500Y-12321750I0J218750D01*
G01*
X38577500Y-11884250D01*
G75*
G02*
X38796250Y-11665500I218750J0D01*
G01*
G37*
G36*
G01*
X36242581Y-12392384D02*
X36686419Y-12648634D01*
G75*
G02*
X36766487Y-12947452I-109375J-189443D01*
G01*
X36547737Y-13326338D01*
G75*
G02*
X36248919Y-13406406I-189443J109375D01*
G01*
X35805081Y-13150156D01*
G75*
G02*
X35725013Y-12851338I109375J189443D01*
G01*
X35943763Y-12472452D01*
G75*
G02*
X36242581Y-12392384I189443J-109375D01*
G01*
G37*
G36*
G01*
X37030081Y-11028394D02*
X37473919Y-11284644D01*
G75*
G02*
X37553987Y-11583462I-109375J-189443D01*
G01*
X37335237Y-11962348D01*
G75*
G02*
X37036419Y-12042416I-189443J109375D01*
G01*
X36592581Y-11786166D01*
G75*
G02*
X36512513Y-11487348I109375J189443D01*
G01*
X36731263Y-11108462D01*
G75*
G02*
X37030081Y-11028394I189443J-109375D01*
G01*
G37*
D12*
G36*
X40912800Y5856749D02*
G01*
X40479788Y6106749D01*
X40779788Y6626365D01*
X41212800Y6376365D01*
X40912800Y5856749D01*
G37*
G36*
X40427800Y5016704D02*
G01*
X39778280Y5391704D01*
X39978280Y5738114D01*
X40627800Y5363114D01*
X40427800Y5016704D01*
G37*
G36*
X39452800Y3327954D02*
G01*
X39019788Y3577954D01*
X39319788Y4097570D01*
X39752800Y3847570D01*
X39452800Y3327954D01*
G37*
G36*
X39977800Y4237282D02*
G01*
X39328280Y4612282D01*
X39528280Y4958692D01*
X40177800Y4583692D01*
X39977800Y4237282D01*
G37*
G36*
G01*
X63258301Y-21965702D02*
X63258301Y-21620702D01*
G75*
G02*
X63405801Y-21473202I147500J0D01*
G01*
X63700801Y-21473202D01*
G75*
G02*
X63848301Y-21620702I0J-147500D01*
G01*
X63848301Y-21965702D01*
G75*
G02*
X63700801Y-22113202I-147500J0D01*
G01*
X63405801Y-22113202D01*
G75*
G02*
X63258301Y-21965702I0J147500D01*
G01*
G37*
G36*
G01*
X62288301Y-21965702D02*
X62288301Y-21620702D01*
G75*
G02*
X62435801Y-21473202I147500J0D01*
G01*
X62730801Y-21473202D01*
G75*
G02*
X62878301Y-21620702I0J-147500D01*
G01*
X62878301Y-21965702D01*
G75*
G02*
X62730801Y-22113202I-147500J0D01*
G01*
X62435801Y-22113202D01*
G75*
G02*
X62288301Y-21965702I0J147500D01*
G01*
G37*
G36*
G01*
X67042799Y-21991104D02*
X67042799Y-21646104D01*
G75*
G02*
X67190299Y-21498604I147500J0D01*
G01*
X67485299Y-21498604D01*
G75*
G02*
X67632799Y-21646104I0J-147500D01*
G01*
X67632799Y-21991104D01*
G75*
G02*
X67485299Y-22138604I-147500J0D01*
G01*
X67190299Y-22138604D01*
G75*
G02*
X67042799Y-21991104I0J147500D01*
G01*
G37*
G36*
G01*
X66072799Y-21991104D02*
X66072799Y-21646104D01*
G75*
G02*
X66220299Y-21498604I147500J0D01*
G01*
X66515299Y-21498604D01*
G75*
G02*
X66662799Y-21646104I0J-147500D01*
G01*
X66662799Y-21991104D01*
G75*
G02*
X66515299Y-22138604I-147500J0D01*
G01*
X66220299Y-22138604D01*
G75*
G02*
X66072799Y-21991104I0J147500D01*
G01*
G37*
G36*
G01*
X70751200Y-21940299D02*
X70751200Y-21595299D01*
G75*
G02*
X70898700Y-21447799I147500J0D01*
G01*
X71193700Y-21447799D01*
G75*
G02*
X71341200Y-21595299I0J-147500D01*
G01*
X71341200Y-21940299D01*
G75*
G02*
X71193700Y-22087799I-147500J0D01*
G01*
X70898700Y-22087799D01*
G75*
G02*
X70751200Y-21940299I0J147500D01*
G01*
G37*
G36*
G01*
X69781200Y-21940299D02*
X69781200Y-21595299D01*
G75*
G02*
X69928700Y-21447799I147500J0D01*
G01*
X70223700Y-21447799D01*
G75*
G02*
X70371200Y-21595299I0J-147500D01*
G01*
X70371200Y-21940299D01*
G75*
G02*
X70223700Y-22087799I-147500J0D01*
G01*
X69928700Y-22087799D01*
G75*
G02*
X69781200Y-21940299I0J147500D01*
G01*
G37*
G36*
G01*
X59722800Y-32512500D02*
X59377800Y-32512500D01*
G75*
G02*
X59230300Y-32365000I0J147500D01*
G01*
X59230300Y-32070000D01*
G75*
G02*
X59377800Y-31922500I147500J0D01*
G01*
X59722800Y-31922500D01*
G75*
G02*
X59870300Y-32070000I0J-147500D01*
G01*
X59870300Y-32365000D01*
G75*
G02*
X59722800Y-32512500I-147500J0D01*
G01*
G37*
G36*
G01*
X59722800Y-33482500D02*
X59377800Y-33482500D01*
G75*
G02*
X59230300Y-33335000I0J147500D01*
G01*
X59230300Y-33040000D01*
G75*
G02*
X59377800Y-32892500I147500J0D01*
G01*
X59722800Y-32892500D01*
G75*
G02*
X59870300Y-33040000I0J-147500D01*
G01*
X59870300Y-33335000D01*
G75*
G02*
X59722800Y-33482500I-147500J0D01*
G01*
G37*
G36*
G01*
X40423600Y-17431800D02*
X40423600Y-17086800D01*
G75*
G02*
X40571100Y-16939300I147500J0D01*
G01*
X40866100Y-16939300D01*
G75*
G02*
X41013600Y-17086800I0J-147500D01*
G01*
X41013600Y-17431800D01*
G75*
G02*
X40866100Y-17579300I-147500J0D01*
G01*
X40571100Y-17579300D01*
G75*
G02*
X40423600Y-17431800I0J147500D01*
G01*
G37*
G36*
G01*
X39453600Y-17431800D02*
X39453600Y-17086800D01*
G75*
G02*
X39601100Y-16939300I147500J0D01*
G01*
X39896100Y-16939300D01*
G75*
G02*
X40043600Y-17086800I0J-147500D01*
G01*
X40043600Y-17431800D01*
G75*
G02*
X39896100Y-17579300I-147500J0D01*
G01*
X39601100Y-17579300D01*
G75*
G02*
X39453600Y-17431800I0J147500D01*
G01*
G37*
G36*
G01*
X43886800Y-17433400D02*
X43886800Y-17088400D01*
G75*
G02*
X44034300Y-16940900I147500J0D01*
G01*
X44329300Y-16940900D01*
G75*
G02*
X44476800Y-17088400I0J-147500D01*
G01*
X44476800Y-17433400D01*
G75*
G02*
X44329300Y-17580900I-147500J0D01*
G01*
X44034300Y-17580900D01*
G75*
G02*
X43886800Y-17433400I0J147500D01*
G01*
G37*
G36*
G01*
X42916800Y-17433400D02*
X42916800Y-17088400D01*
G75*
G02*
X43064300Y-16940900I147500J0D01*
G01*
X43359300Y-16940900D01*
G75*
G02*
X43506800Y-17088400I0J-147500D01*
G01*
X43506800Y-17433400D01*
G75*
G02*
X43359300Y-17580900I-147500J0D01*
G01*
X43064300Y-17580900D01*
G75*
G02*
X42916800Y-17433400I0J147500D01*
G01*
G37*
G36*
G01*
X73934100Y-26899100D02*
X73589100Y-26899100D01*
G75*
G02*
X73441600Y-26751600I0J147500D01*
G01*
X73441600Y-26456600D01*
G75*
G02*
X73589100Y-26309100I147500J0D01*
G01*
X73934100Y-26309100D01*
G75*
G02*
X74081600Y-26456600I0J-147500D01*
G01*
X74081600Y-26751600D01*
G75*
G02*
X73934100Y-26899100I-147500J0D01*
G01*
G37*
G36*
G01*
X73934100Y-27869100D02*
X73589100Y-27869100D01*
G75*
G02*
X73441600Y-27721600I0J147500D01*
G01*
X73441600Y-27426600D01*
G75*
G02*
X73589100Y-27279100I147500J0D01*
G01*
X73934100Y-27279100D01*
G75*
G02*
X74081600Y-27426600I0J-147500D01*
G01*
X74081600Y-27721600D01*
G75*
G02*
X73934100Y-27869100I-147500J0D01*
G01*
G37*
G36*
G01*
X74486000Y-18382200D02*
X74486000Y-18727200D01*
G75*
G02*
X74338500Y-18874700I-147500J0D01*
G01*
X74043500Y-18874700D01*
G75*
G02*
X73896000Y-18727200I0J147500D01*
G01*
X73896000Y-18382200D01*
G75*
G02*
X74043500Y-18234700I147500J0D01*
G01*
X74338500Y-18234700D01*
G75*
G02*
X74486000Y-18382200I0J-147500D01*
G01*
G37*
G36*
G01*
X75456000Y-18382200D02*
X75456000Y-18727200D01*
G75*
G02*
X75308500Y-18874700I-147500J0D01*
G01*
X75013500Y-18874700D01*
G75*
G02*
X74866000Y-18727200I0J147500D01*
G01*
X74866000Y-18382200D01*
G75*
G02*
X75013500Y-18234700I147500J0D01*
G01*
X75308500Y-18234700D01*
G75*
G02*
X75456000Y-18382200I0J-147500D01*
G01*
G37*
G36*
G01*
X87940100Y-21259300D02*
X88285100Y-21259300D01*
G75*
G02*
X88432600Y-21406800I0J-147500D01*
G01*
X88432600Y-21701800D01*
G75*
G02*
X88285100Y-21849300I-147500J0D01*
G01*
X87940100Y-21849300D01*
G75*
G02*
X87792600Y-21701800I0J147500D01*
G01*
X87792600Y-21406800D01*
G75*
G02*
X87940100Y-21259300I147500J0D01*
G01*
G37*
G36*
G01*
X87940100Y-20289300D02*
X88285100Y-20289300D01*
G75*
G02*
X88432600Y-20436800I0J-147500D01*
G01*
X88432600Y-20731800D01*
G75*
G02*
X88285100Y-20879300I-147500J0D01*
G01*
X87940100Y-20879300D01*
G75*
G02*
X87792600Y-20731800I0J147500D01*
G01*
X87792600Y-20436800D01*
G75*
G02*
X87940100Y-20289300I147500J0D01*
G01*
G37*
G36*
G01*
X77348300Y-33248100D02*
X77693300Y-33248100D01*
G75*
G02*
X77840800Y-33395600I0J-147500D01*
G01*
X77840800Y-33690600D01*
G75*
G02*
X77693300Y-33838100I-147500J0D01*
G01*
X77348300Y-33838100D01*
G75*
G02*
X77200800Y-33690600I0J147500D01*
G01*
X77200800Y-33395600D01*
G75*
G02*
X77348300Y-33248100I147500J0D01*
G01*
G37*
G36*
G01*
X77348300Y-32278100D02*
X77693300Y-32278100D01*
G75*
G02*
X77840800Y-32425600I0J-147500D01*
G01*
X77840800Y-32720600D01*
G75*
G02*
X77693300Y-32868100I-147500J0D01*
G01*
X77348300Y-32868100D01*
G75*
G02*
X77200800Y-32720600I0J147500D01*
G01*
X77200800Y-32425600D01*
G75*
G02*
X77348300Y-32278100I147500J0D01*
G01*
G37*
G36*
X37966400Y776749D02*
G01*
X37533388Y1026749D01*
X37833388Y1546365D01*
X38266400Y1296365D01*
X37966400Y776749D01*
G37*
G36*
X37481400Y-63296D02*
G01*
X36831880Y311704D01*
X37031880Y658114D01*
X37681400Y283114D01*
X37481400Y-63296D01*
G37*
G36*
X36506400Y-1752046D02*
G01*
X36073388Y-1502046D01*
X36373388Y-982430D01*
X36806400Y-1232430D01*
X36506400Y-1752046D01*
G37*
G36*
X37031400Y-842718D02*
G01*
X36381880Y-467718D01*
X36581880Y-121308D01*
X37231400Y-496308D01*
X37031400Y-842718D01*
G37*
G36*
X35281000Y-3959949D02*
G01*
X34847988Y-3709949D01*
X35147988Y-3190333D01*
X35581000Y-3440333D01*
X35281000Y-3959949D01*
G37*
G36*
X34796000Y-4799994D02*
G01*
X34146480Y-4424994D01*
X34346480Y-4078584D01*
X34996000Y-4453584D01*
X34796000Y-4799994D01*
G37*
G36*
X33821000Y-6488744D02*
G01*
X33387988Y-6238744D01*
X33687988Y-5719128D01*
X34121000Y-5969128D01*
X33821000Y-6488744D01*
G37*
G36*
X34346000Y-5579416D02*
G01*
X33696480Y-5204416D01*
X33896480Y-4858006D01*
X34546000Y-5233006D01*
X34346000Y-5579416D01*
G37*
D13*
X91202700Y-21649500D03*
D14*
X92272700Y-21774500D03*
D13*
X94122700Y-21649500D03*
D14*
X93172700Y-21774500D03*
D15*
X90728800Y-31330900D03*
D16*
X86828800Y-33235900D03*
X86828800Y-31965900D03*
X86828800Y-30695900D03*
X86828800Y-29425900D03*
X94628800Y-29425900D03*
X94628800Y-30695900D03*
X94628800Y-31965900D03*
X94628800Y-33235900D03*
D17*
X52118500Y-28814300D03*
X51468500Y-28814300D03*
X53418500Y-28814300D03*
X54068500Y-28814300D03*
X52768500Y-28814300D03*
G36*
G01*
X37729605Y-9318711D02*
X37557106Y-9617489D01*
G75*
G02*
X37355617Y-9671478I-127739J73750D01*
G01*
X37100139Y-9523978D01*
G75*
G02*
X37046150Y-9322489I73750J127739D01*
G01*
X37218650Y-9023711D01*
G75*
G02*
X37420139Y-8969722I127739J-73750D01*
G01*
X37675617Y-9117222D01*
G75*
G02*
X37729606Y-9318711I-73750J-127739D01*
G01*
G37*
G36*
G01*
X38569649Y-9803711D02*
X38397150Y-10102489D01*
G75*
G02*
X38195661Y-10156478I-127739J73750D01*
G01*
X37940183Y-10008978D01*
G75*
G02*
X37886194Y-9807489I73750J127739D01*
G01*
X38058694Y-9508711D01*
G75*
G02*
X38260183Y-9454722I127739J-73750D01*
G01*
X38515661Y-9602222D01*
G75*
G02*
X38569650Y-9803711I-73750J-127739D01*
G01*
G37*
G36*
G01*
X37259705Y-10144211D02*
X37087206Y-10442989D01*
G75*
G02*
X36885717Y-10496978I-127739J73750D01*
G01*
X36630239Y-10349478D01*
G75*
G02*
X36576250Y-10147989I73750J127739D01*
G01*
X36748750Y-9849211D01*
G75*
G02*
X36950239Y-9795222I127739J-73750D01*
G01*
X37205717Y-9942722D01*
G75*
G02*
X37259706Y-10144211I-73750J-127739D01*
G01*
G37*
G36*
G01*
X38099749Y-10629211D02*
X37927250Y-10927989D01*
G75*
G02*
X37725761Y-10981978I-127739J73750D01*
G01*
X37470283Y-10834478D01*
G75*
G02*
X37416294Y-10632989I73750J127739D01*
G01*
X37588794Y-10334211D01*
G75*
G02*
X37790283Y-10280222I127739J-73750D01*
G01*
X38045761Y-10427722D01*
G75*
G02*
X38099750Y-10629211I-73750J-127739D01*
G01*
G37*
G36*
G01*
X39634605Y-6029411D02*
X39462106Y-6328189D01*
G75*
G02*
X39260617Y-6382178I-127739J73750D01*
G01*
X39005139Y-6234678D01*
G75*
G02*
X38951150Y-6033189I73750J127739D01*
G01*
X39123650Y-5734411D01*
G75*
G02*
X39325139Y-5680422I127739J-73750D01*
G01*
X39580617Y-5827922D01*
G75*
G02*
X39634606Y-6029411I-73750J-127739D01*
G01*
G37*
G36*
G01*
X40474649Y-6514411D02*
X40302150Y-6813189D01*
G75*
G02*
X40100661Y-6867178I-127739J73750D01*
G01*
X39845183Y-6719678D01*
G75*
G02*
X39791194Y-6518189I73750J127739D01*
G01*
X39963694Y-6219411D01*
G75*
G02*
X40165183Y-6165422I127739J-73750D01*
G01*
X40420661Y-6312922D01*
G75*
G02*
X40474650Y-6514411I-73750J-127739D01*
G01*
G37*
G36*
G01*
X39152005Y-6842211D02*
X38979506Y-7140989D01*
G75*
G02*
X38778017Y-7194978I-127739J73750D01*
G01*
X38522539Y-7047478D01*
G75*
G02*
X38468550Y-6845989I73750J127739D01*
G01*
X38641050Y-6547211D01*
G75*
G02*
X38842539Y-6493222I127739J-73750D01*
G01*
X39098017Y-6640722D01*
G75*
G02*
X39152006Y-6842211I-73750J-127739D01*
G01*
G37*
G36*
G01*
X39992049Y-7327211D02*
X39819550Y-7625989D01*
G75*
G02*
X39618061Y-7679978I-127739J73750D01*
G01*
X39362583Y-7532478D01*
G75*
G02*
X39308594Y-7330989I73750J127739D01*
G01*
X39481094Y-7032211D01*
G75*
G02*
X39682583Y-6978222I127739J-73750D01*
G01*
X39938061Y-7125722D01*
G75*
G02*
X39992050Y-7327211I-73750J-127739D01*
G01*
G37*
G36*
G01*
X41057005Y-3552911D02*
X40884506Y-3851689D01*
G75*
G02*
X40683017Y-3905678I-127739J73750D01*
G01*
X40427539Y-3758178D01*
G75*
G02*
X40373550Y-3556689I73750J127739D01*
G01*
X40546050Y-3257911D01*
G75*
G02*
X40747539Y-3203922I127739J-73750D01*
G01*
X41003017Y-3351422D01*
G75*
G02*
X41057006Y-3552911I-73750J-127739D01*
G01*
G37*
G36*
G01*
X41897049Y-4037911D02*
X41724550Y-4336689D01*
G75*
G02*
X41523061Y-4390678I-127739J73750D01*
G01*
X41267583Y-4243178D01*
G75*
G02*
X41213594Y-4041689I73750J127739D01*
G01*
X41386094Y-3742911D01*
G75*
G02*
X41587583Y-3688922I127739J-73750D01*
G01*
X41843061Y-3836422D01*
G75*
G02*
X41897050Y-4037911I-73750J-127739D01*
G01*
G37*
G36*
G01*
X40587105Y-4378411D02*
X40414606Y-4677189D01*
G75*
G02*
X40213117Y-4731178I-127739J73750D01*
G01*
X39957639Y-4583678D01*
G75*
G02*
X39903650Y-4382189I73750J127739D01*
G01*
X40076150Y-4083411D01*
G75*
G02*
X40277639Y-4029422I127739J-73750D01*
G01*
X40533117Y-4176922D01*
G75*
G02*
X40587106Y-4378411I-73750J-127739D01*
G01*
G37*
G36*
G01*
X41427149Y-4863411D02*
X41254650Y-5162189D01*
G75*
G02*
X41053161Y-5216178I-127739J73750D01*
G01*
X40797683Y-5068678D01*
G75*
G02*
X40743694Y-4867189I73750J127739D01*
G01*
X40916194Y-4568411D01*
G75*
G02*
X41117683Y-4514422I127739J-73750D01*
G01*
X41373161Y-4661922D01*
G75*
G02*
X41427150Y-4863411I-73750J-127739D01*
G01*
G37*
G36*
G01*
X40104505Y-5203911D02*
X39932006Y-5502689D01*
G75*
G02*
X39730517Y-5556678I-127739J73750D01*
G01*
X39475039Y-5409178D01*
G75*
G02*
X39421050Y-5207689I73750J127739D01*
G01*
X39593550Y-4908911D01*
G75*
G02*
X39795039Y-4854922I127739J-73750D01*
G01*
X40050517Y-5002422D01*
G75*
G02*
X40104506Y-5203911I-73750J-127739D01*
G01*
G37*
G36*
G01*
X40944549Y-5688911D02*
X40772050Y-5987689D01*
G75*
G02*
X40570561Y-6041678I-127739J73750D01*
G01*
X40315083Y-5894178D01*
G75*
G02*
X40261094Y-5692689I73750J127739D01*
G01*
X40433594Y-5393911D01*
G75*
G02*
X40635083Y-5339922I127739J-73750D01*
G01*
X40890561Y-5487422D01*
G75*
G02*
X40944550Y-5688911I-73750J-127739D01*
G01*
G37*
G36*
G01*
X91569300Y-23070900D02*
X91224300Y-23070900D01*
G75*
G02*
X91076800Y-22923400I0J147500D01*
G01*
X91076800Y-22628400D01*
G75*
G02*
X91224300Y-22480900I147500J0D01*
G01*
X91569300Y-22480900D01*
G75*
G02*
X91716800Y-22628400I0J-147500D01*
G01*
X91716800Y-22923400D01*
G75*
G02*
X91569300Y-23070900I-147500J0D01*
G01*
G37*
G36*
G01*
X91569300Y-24040900D02*
X91224300Y-24040900D01*
G75*
G02*
X91076800Y-23893400I0J147500D01*
G01*
X91076800Y-23598400D01*
G75*
G02*
X91224300Y-23450900I147500J0D01*
G01*
X91569300Y-23450900D01*
G75*
G02*
X91716800Y-23598400I0J-147500D01*
G01*
X91716800Y-23893400D01*
G75*
G02*
X91569300Y-24040900I-147500J0D01*
G01*
G37*
G36*
G01*
X93319300Y-23070900D02*
X92974300Y-23070900D01*
G75*
G02*
X92826800Y-22923400I0J147500D01*
G01*
X92826800Y-22628400D01*
G75*
G02*
X92974300Y-22480900I147500J0D01*
G01*
X93319300Y-22480900D01*
G75*
G02*
X93466800Y-22628400I0J-147500D01*
G01*
X93466800Y-22923400D01*
G75*
G02*
X93319300Y-23070900I-147500J0D01*
G01*
G37*
G36*
G01*
X93319300Y-24040900D02*
X92974300Y-24040900D01*
G75*
G02*
X92826800Y-23893400I0J147500D01*
G01*
X92826800Y-23598400D01*
G75*
G02*
X92974300Y-23450900I147500J0D01*
G01*
X93319300Y-23450900D01*
G75*
G02*
X93466800Y-23598400I0J-147500D01*
G01*
X93466800Y-23893400D01*
G75*
G02*
X93319300Y-24040900I-147500J0D01*
G01*
G37*
G36*
G01*
X94269300Y-23070900D02*
X93924300Y-23070900D01*
G75*
G02*
X93776800Y-22923400I0J147500D01*
G01*
X93776800Y-22628400D01*
G75*
G02*
X93924300Y-22480900I147500J0D01*
G01*
X94269300Y-22480900D01*
G75*
G02*
X94416800Y-22628400I0J-147500D01*
G01*
X94416800Y-22923400D01*
G75*
G02*
X94269300Y-23070900I-147500J0D01*
G01*
G37*
G36*
G01*
X94269300Y-24040900D02*
X93924300Y-24040900D01*
G75*
G02*
X93776800Y-23893400I0J147500D01*
G01*
X93776800Y-23598400D01*
G75*
G02*
X93924300Y-23450900I147500J0D01*
G01*
X94269300Y-23450900D01*
G75*
G02*
X94416800Y-23598400I0J-147500D01*
G01*
X94416800Y-23893400D01*
G75*
G02*
X94269300Y-24040900I-147500J0D01*
G01*
G37*
D18*
X82193100Y-33758100D03*
X80443100Y-33758100D03*
X80443100Y-32358100D03*
X82193100Y-32358100D03*
D12*
G36*
X35527300Y-18340200D02*
G01*
X37127300Y-18340200D01*
X37127300Y-19540200D01*
X36727300Y-19940200D01*
X35527300Y-19940200D01*
X35527300Y-18340200D01*
G37*
D19*
X32227300Y-14540200D03*
X36327300Y-14540200D03*
X32227300Y-19140200D03*
D20*
X68287900Y-29333700D03*
X67337900Y-27333700D03*
X69237900Y-27333700D03*
G36*
G01*
X83288600Y-23039500D02*
X82658600Y-23039500D01*
G75*
G02*
X82408600Y-22789500I0J250000D01*
G01*
X82408600Y-22159500D01*
G75*
G02*
X82658600Y-21909500I250000J0D01*
G01*
X83288600Y-21909500D01*
G75*
G02*
X83538600Y-22159500I0J-250000D01*
G01*
X83538600Y-22789500D01*
G75*
G02*
X83288600Y-23039500I-250000J0D01*
G01*
G37*
G36*
G01*
X81888600Y-23039500D02*
X81258600Y-23039500D01*
G75*
G02*
X81008600Y-22789500I0J250000D01*
G01*
X81008600Y-22159500D01*
G75*
G02*
X81258600Y-21909500I250000J0D01*
G01*
X81888600Y-21909500D01*
G75*
G02*
X82138600Y-22159500I0J-250000D01*
G01*
X82138600Y-22789500D01*
G75*
G02*
X81888600Y-23039500I-250000J0D01*
G01*
G37*
G36*
G01*
X80488600Y-23039500D02*
X79858600Y-23039500D01*
G75*
G02*
X79608600Y-22789500I0J250000D01*
G01*
X79608600Y-22159500D01*
G75*
G02*
X79858600Y-21909500I250000J0D01*
G01*
X80488600Y-21909500D01*
G75*
G02*
X80738600Y-22159500I0J-250000D01*
G01*
X80738600Y-22789500D01*
G75*
G02*
X80488600Y-23039500I-250000J0D01*
G01*
G37*
G36*
G01*
X79088600Y-23039500D02*
X78458600Y-23039500D01*
G75*
G02*
X78208600Y-22789500I0J250000D01*
G01*
X78208600Y-22159500D01*
G75*
G02*
X78458600Y-21909500I250000J0D01*
G01*
X79088600Y-21909500D01*
G75*
G02*
X79338600Y-22159500I0J-250000D01*
G01*
X79338600Y-22789500D01*
G75*
G02*
X79088600Y-23039500I-250000J0D01*
G01*
G37*
G36*
G01*
X83288600Y-24439500D02*
X82658600Y-24439500D01*
G75*
G02*
X82408600Y-24189500I0J250000D01*
G01*
X82408600Y-23559500D01*
G75*
G02*
X82658600Y-23309500I250000J0D01*
G01*
X83288600Y-23309500D01*
G75*
G02*
X83538600Y-23559500I0J-250000D01*
G01*
X83538600Y-24189500D01*
G75*
G02*
X83288600Y-24439500I-250000J0D01*
G01*
G37*
G36*
G01*
X81888600Y-24439500D02*
X81258600Y-24439500D01*
G75*
G02*
X81008600Y-24189500I0J250000D01*
G01*
X81008600Y-23559500D01*
G75*
G02*
X81258600Y-23309500I250000J0D01*
G01*
X81888600Y-23309500D01*
G75*
G02*
X82138600Y-23559500I0J-250000D01*
G01*
X82138600Y-24189500D01*
G75*
G02*
X81888600Y-24439500I-250000J0D01*
G01*
G37*
G36*
G01*
X80488600Y-24439500D02*
X79858600Y-24439500D01*
G75*
G02*
X79608600Y-24189500I0J250000D01*
G01*
X79608600Y-23559500D01*
G75*
G02*
X79858600Y-23309500I250000J0D01*
G01*
X80488600Y-23309500D01*
G75*
G02*
X80738600Y-23559500I0J-250000D01*
G01*
X80738600Y-24189500D01*
G75*
G02*
X80488600Y-24439500I-250000J0D01*
G01*
G37*
G36*
G01*
X79088600Y-24439500D02*
X78458600Y-24439500D01*
G75*
G02*
X78208600Y-24189500I0J250000D01*
G01*
X78208600Y-23559500D01*
G75*
G02*
X78458600Y-23309500I250000J0D01*
G01*
X79088600Y-23309500D01*
G75*
G02*
X79338600Y-23559500I0J-250000D01*
G01*
X79338600Y-24189500D01*
G75*
G02*
X79088600Y-24439500I-250000J0D01*
G01*
G37*
G36*
G01*
X83288600Y-25839500D02*
X82658600Y-25839500D01*
G75*
G02*
X82408600Y-25589500I0J250000D01*
G01*
X82408600Y-24959500D01*
G75*
G02*
X82658600Y-24709500I250000J0D01*
G01*
X83288600Y-24709500D01*
G75*
G02*
X83538600Y-24959500I0J-250000D01*
G01*
X83538600Y-25589500D01*
G75*
G02*
X83288600Y-25839500I-250000J0D01*
G01*
G37*
G36*
G01*
X81888600Y-25839500D02*
X81258600Y-25839500D01*
G75*
G02*
X81008600Y-25589500I0J250000D01*
G01*
X81008600Y-24959500D01*
G75*
G02*
X81258600Y-24709500I250000J0D01*
G01*
X81888600Y-24709500D01*
G75*
G02*
X82138600Y-24959500I0J-250000D01*
G01*
X82138600Y-25589500D01*
G75*
G02*
X81888600Y-25839500I-250000J0D01*
G01*
G37*
G36*
G01*
X80488600Y-25839500D02*
X79858600Y-25839500D01*
G75*
G02*
X79608600Y-25589500I0J250000D01*
G01*
X79608600Y-24959500D01*
G75*
G02*
X79858600Y-24709500I250000J0D01*
G01*
X80488600Y-24709500D01*
G75*
G02*
X80738600Y-24959500I0J-250000D01*
G01*
X80738600Y-25589500D01*
G75*
G02*
X80488600Y-25839500I-250000J0D01*
G01*
G37*
G36*
G01*
X79088600Y-25839500D02*
X78458600Y-25839500D01*
G75*
G02*
X78208600Y-25589500I0J250000D01*
G01*
X78208600Y-24959500D01*
G75*
G02*
X78458600Y-24709500I250000J0D01*
G01*
X79088600Y-24709500D01*
G75*
G02*
X79338600Y-24959500I0J-250000D01*
G01*
X79338600Y-25589500D01*
G75*
G02*
X79088600Y-25839500I-250000J0D01*
G01*
G37*
G36*
G01*
X83288600Y-27239500D02*
X82658600Y-27239500D01*
G75*
G02*
X82408600Y-26989500I0J250000D01*
G01*
X82408600Y-26359500D01*
G75*
G02*
X82658600Y-26109500I250000J0D01*
G01*
X83288600Y-26109500D01*
G75*
G02*
X83538600Y-26359500I0J-250000D01*
G01*
X83538600Y-26989500D01*
G75*
G02*
X83288600Y-27239500I-250000J0D01*
G01*
G37*
G36*
G01*
X81888600Y-27239500D02*
X81258600Y-27239500D01*
G75*
G02*
X81008600Y-26989500I0J250000D01*
G01*
X81008600Y-26359500D01*
G75*
G02*
X81258600Y-26109500I250000J0D01*
G01*
X81888600Y-26109500D01*
G75*
G02*
X82138600Y-26359500I0J-250000D01*
G01*
X82138600Y-26989500D01*
G75*
G02*
X81888600Y-27239500I-250000J0D01*
G01*
G37*
G36*
G01*
X80488600Y-27239500D02*
X79858600Y-27239500D01*
G75*
G02*
X79608600Y-26989500I0J250000D01*
G01*
X79608600Y-26359500D01*
G75*
G02*
X79858600Y-26109500I250000J0D01*
G01*
X80488600Y-26109500D01*
G75*
G02*
X80738600Y-26359500I0J-250000D01*
G01*
X80738600Y-26989500D01*
G75*
G02*
X80488600Y-27239500I-250000J0D01*
G01*
G37*
G36*
G01*
X79088600Y-27239500D02*
X78458600Y-27239500D01*
G75*
G02*
X78208600Y-26989500I0J250000D01*
G01*
X78208600Y-26359500D01*
G75*
G02*
X78458600Y-26109500I250000J0D01*
G01*
X79088600Y-26109500D01*
G75*
G02*
X79338600Y-26359500I0J-250000D01*
G01*
X79338600Y-26989500D01*
G75*
G02*
X79088600Y-27239500I-250000J0D01*
G01*
G37*
G36*
G01*
X77811100Y-27449500D02*
X77061100Y-27449500D01*
G75*
G02*
X76998600Y-27387000I0J62500D01*
G01*
X76998600Y-27262000D01*
G75*
G02*
X77061100Y-27199500I62500J0D01*
G01*
X77811100Y-27199500D01*
G75*
G02*
X77873600Y-27262000I0J-62500D01*
G01*
X77873600Y-27387000D01*
G75*
G02*
X77811100Y-27449500I-62500J0D01*
G01*
G37*
G36*
G01*
X77811100Y-26949500D02*
X77061100Y-26949500D01*
G75*
G02*
X76998600Y-26887000I0J62500D01*
G01*
X76998600Y-26762000D01*
G75*
G02*
X77061100Y-26699500I62500J0D01*
G01*
X77811100Y-26699500D01*
G75*
G02*
X77873600Y-26762000I0J-62500D01*
G01*
X77873600Y-26887000D01*
G75*
G02*
X77811100Y-26949500I-62500J0D01*
G01*
G37*
G36*
G01*
X77811100Y-26449500D02*
X77061100Y-26449500D01*
G75*
G02*
X76998600Y-26387000I0J62500D01*
G01*
X76998600Y-26262000D01*
G75*
G02*
X77061100Y-26199500I62500J0D01*
G01*
X77811100Y-26199500D01*
G75*
G02*
X77873600Y-26262000I0J-62500D01*
G01*
X77873600Y-26387000D01*
G75*
G02*
X77811100Y-26449500I-62500J0D01*
G01*
G37*
G36*
G01*
X77811100Y-25949500D02*
X77061100Y-25949500D01*
G75*
G02*
X76998600Y-25887000I0J62500D01*
G01*
X76998600Y-25762000D01*
G75*
G02*
X77061100Y-25699500I62500J0D01*
G01*
X77811100Y-25699500D01*
G75*
G02*
X77873600Y-25762000I0J-62500D01*
G01*
X77873600Y-25887000D01*
G75*
G02*
X77811100Y-25949500I-62500J0D01*
G01*
G37*
G36*
G01*
X77811100Y-25449500D02*
X77061100Y-25449500D01*
G75*
G02*
X76998600Y-25387000I0J62500D01*
G01*
X76998600Y-25262000D01*
G75*
G02*
X77061100Y-25199500I62500J0D01*
G01*
X77811100Y-25199500D01*
G75*
G02*
X77873600Y-25262000I0J-62500D01*
G01*
X77873600Y-25387000D01*
G75*
G02*
X77811100Y-25449500I-62500J0D01*
G01*
G37*
G36*
G01*
X77811100Y-24949500D02*
X77061100Y-24949500D01*
G75*
G02*
X76998600Y-24887000I0J62500D01*
G01*
X76998600Y-24762000D01*
G75*
G02*
X77061100Y-24699500I62500J0D01*
G01*
X77811100Y-24699500D01*
G75*
G02*
X77873600Y-24762000I0J-62500D01*
G01*
X77873600Y-24887000D01*
G75*
G02*
X77811100Y-24949500I-62500J0D01*
G01*
G37*
G36*
G01*
X77811100Y-24449500D02*
X77061100Y-24449500D01*
G75*
G02*
X76998600Y-24387000I0J62500D01*
G01*
X76998600Y-24262000D01*
G75*
G02*
X77061100Y-24199500I62500J0D01*
G01*
X77811100Y-24199500D01*
G75*
G02*
X77873600Y-24262000I0J-62500D01*
G01*
X77873600Y-24387000D01*
G75*
G02*
X77811100Y-24449500I-62500J0D01*
G01*
G37*
G36*
G01*
X77811100Y-23949500D02*
X77061100Y-23949500D01*
G75*
G02*
X76998600Y-23887000I0J62500D01*
G01*
X76998600Y-23762000D01*
G75*
G02*
X77061100Y-23699500I62500J0D01*
G01*
X77811100Y-23699500D01*
G75*
G02*
X77873600Y-23762000I0J-62500D01*
G01*
X77873600Y-23887000D01*
G75*
G02*
X77811100Y-23949500I-62500J0D01*
G01*
G37*
G36*
G01*
X77811100Y-23449500D02*
X77061100Y-23449500D01*
G75*
G02*
X76998600Y-23387000I0J62500D01*
G01*
X76998600Y-23262000D01*
G75*
G02*
X77061100Y-23199500I62500J0D01*
G01*
X77811100Y-23199500D01*
G75*
G02*
X77873600Y-23262000I0J-62500D01*
G01*
X77873600Y-23387000D01*
G75*
G02*
X77811100Y-23449500I-62500J0D01*
G01*
G37*
G36*
G01*
X77811100Y-22949500D02*
X77061100Y-22949500D01*
G75*
G02*
X76998600Y-22887000I0J62500D01*
G01*
X76998600Y-22762000D01*
G75*
G02*
X77061100Y-22699500I62500J0D01*
G01*
X77811100Y-22699500D01*
G75*
G02*
X77873600Y-22762000I0J-62500D01*
G01*
X77873600Y-22887000D01*
G75*
G02*
X77811100Y-22949500I-62500J0D01*
G01*
G37*
G36*
G01*
X77811100Y-22449500D02*
X77061100Y-22449500D01*
G75*
G02*
X76998600Y-22387000I0J62500D01*
G01*
X76998600Y-22262000D01*
G75*
G02*
X77061100Y-22199500I62500J0D01*
G01*
X77811100Y-22199500D01*
G75*
G02*
X77873600Y-22262000I0J-62500D01*
G01*
X77873600Y-22387000D01*
G75*
G02*
X77811100Y-22449500I-62500J0D01*
G01*
G37*
G36*
G01*
X77811100Y-21949500D02*
X77061100Y-21949500D01*
G75*
G02*
X76998600Y-21887000I0J62500D01*
G01*
X76998600Y-21762000D01*
G75*
G02*
X77061100Y-21699500I62500J0D01*
G01*
X77811100Y-21699500D01*
G75*
G02*
X77873600Y-21762000I0J-62500D01*
G01*
X77873600Y-21887000D01*
G75*
G02*
X77811100Y-21949500I-62500J0D01*
G01*
G37*
G36*
G01*
X78186100Y-21574500D02*
X78061100Y-21574500D01*
G75*
G02*
X77998600Y-21512000I0J62500D01*
G01*
X77998600Y-20762000D01*
G75*
G02*
X78061100Y-20699500I62500J0D01*
G01*
X78186100Y-20699500D01*
G75*
G02*
X78248600Y-20762000I0J-62500D01*
G01*
X78248600Y-21512000D01*
G75*
G02*
X78186100Y-21574500I-62500J0D01*
G01*
G37*
G36*
G01*
X78686100Y-21574500D02*
X78561100Y-21574500D01*
G75*
G02*
X78498600Y-21512000I0J62500D01*
G01*
X78498600Y-20762000D01*
G75*
G02*
X78561100Y-20699500I62500J0D01*
G01*
X78686100Y-20699500D01*
G75*
G02*
X78748600Y-20762000I0J-62500D01*
G01*
X78748600Y-21512000D01*
G75*
G02*
X78686100Y-21574500I-62500J0D01*
G01*
G37*
G36*
G01*
X79186100Y-21574500D02*
X79061100Y-21574500D01*
G75*
G02*
X78998600Y-21512000I0J62500D01*
G01*
X78998600Y-20762000D01*
G75*
G02*
X79061100Y-20699500I62500J0D01*
G01*
X79186100Y-20699500D01*
G75*
G02*
X79248600Y-20762000I0J-62500D01*
G01*
X79248600Y-21512000D01*
G75*
G02*
X79186100Y-21574500I-62500J0D01*
G01*
G37*
G36*
G01*
X79686100Y-21574500D02*
X79561100Y-21574500D01*
G75*
G02*
X79498600Y-21512000I0J62500D01*
G01*
X79498600Y-20762000D01*
G75*
G02*
X79561100Y-20699500I62500J0D01*
G01*
X79686100Y-20699500D01*
G75*
G02*
X79748600Y-20762000I0J-62500D01*
G01*
X79748600Y-21512000D01*
G75*
G02*
X79686100Y-21574500I-62500J0D01*
G01*
G37*
G36*
G01*
X80186100Y-21574500D02*
X80061100Y-21574500D01*
G75*
G02*
X79998600Y-21512000I0J62500D01*
G01*
X79998600Y-20762000D01*
G75*
G02*
X80061100Y-20699500I62500J0D01*
G01*
X80186100Y-20699500D01*
G75*
G02*
X80248600Y-20762000I0J-62500D01*
G01*
X80248600Y-21512000D01*
G75*
G02*
X80186100Y-21574500I-62500J0D01*
G01*
G37*
G36*
G01*
X80686100Y-21574500D02*
X80561100Y-21574500D01*
G75*
G02*
X80498600Y-21512000I0J62500D01*
G01*
X80498600Y-20762000D01*
G75*
G02*
X80561100Y-20699500I62500J0D01*
G01*
X80686100Y-20699500D01*
G75*
G02*
X80748600Y-20762000I0J-62500D01*
G01*
X80748600Y-21512000D01*
G75*
G02*
X80686100Y-21574500I-62500J0D01*
G01*
G37*
G36*
G01*
X81186100Y-21574500D02*
X81061100Y-21574500D01*
G75*
G02*
X80998600Y-21512000I0J62500D01*
G01*
X80998600Y-20762000D01*
G75*
G02*
X81061100Y-20699500I62500J0D01*
G01*
X81186100Y-20699500D01*
G75*
G02*
X81248600Y-20762000I0J-62500D01*
G01*
X81248600Y-21512000D01*
G75*
G02*
X81186100Y-21574500I-62500J0D01*
G01*
G37*
G36*
G01*
X81686100Y-21574500D02*
X81561100Y-21574500D01*
G75*
G02*
X81498600Y-21512000I0J62500D01*
G01*
X81498600Y-20762000D01*
G75*
G02*
X81561100Y-20699500I62500J0D01*
G01*
X81686100Y-20699500D01*
G75*
G02*
X81748600Y-20762000I0J-62500D01*
G01*
X81748600Y-21512000D01*
G75*
G02*
X81686100Y-21574500I-62500J0D01*
G01*
G37*
G36*
G01*
X82186100Y-21574500D02*
X82061100Y-21574500D01*
G75*
G02*
X81998600Y-21512000I0J62500D01*
G01*
X81998600Y-20762000D01*
G75*
G02*
X82061100Y-20699500I62500J0D01*
G01*
X82186100Y-20699500D01*
G75*
G02*
X82248600Y-20762000I0J-62500D01*
G01*
X82248600Y-21512000D01*
G75*
G02*
X82186100Y-21574500I-62500J0D01*
G01*
G37*
G36*
G01*
X82686100Y-21574500D02*
X82561100Y-21574500D01*
G75*
G02*
X82498600Y-21512000I0J62500D01*
G01*
X82498600Y-20762000D01*
G75*
G02*
X82561100Y-20699500I62500J0D01*
G01*
X82686100Y-20699500D01*
G75*
G02*
X82748600Y-20762000I0J-62500D01*
G01*
X82748600Y-21512000D01*
G75*
G02*
X82686100Y-21574500I-62500J0D01*
G01*
G37*
G36*
G01*
X83186100Y-21574500D02*
X83061100Y-21574500D01*
G75*
G02*
X82998600Y-21512000I0J62500D01*
G01*
X82998600Y-20762000D01*
G75*
G02*
X83061100Y-20699500I62500J0D01*
G01*
X83186100Y-20699500D01*
G75*
G02*
X83248600Y-20762000I0J-62500D01*
G01*
X83248600Y-21512000D01*
G75*
G02*
X83186100Y-21574500I-62500J0D01*
G01*
G37*
G36*
G01*
X83686100Y-21574500D02*
X83561100Y-21574500D01*
G75*
G02*
X83498600Y-21512000I0J62500D01*
G01*
X83498600Y-20762000D01*
G75*
G02*
X83561100Y-20699500I62500J0D01*
G01*
X83686100Y-20699500D01*
G75*
G02*
X83748600Y-20762000I0J-62500D01*
G01*
X83748600Y-21512000D01*
G75*
G02*
X83686100Y-21574500I-62500J0D01*
G01*
G37*
G36*
G01*
X84686100Y-21949500D02*
X83936100Y-21949500D01*
G75*
G02*
X83873600Y-21887000I0J62500D01*
G01*
X83873600Y-21762000D01*
G75*
G02*
X83936100Y-21699500I62500J0D01*
G01*
X84686100Y-21699500D01*
G75*
G02*
X84748600Y-21762000I0J-62500D01*
G01*
X84748600Y-21887000D01*
G75*
G02*
X84686100Y-21949500I-62500J0D01*
G01*
G37*
G36*
G01*
X84686100Y-22449500D02*
X83936100Y-22449500D01*
G75*
G02*
X83873600Y-22387000I0J62500D01*
G01*
X83873600Y-22262000D01*
G75*
G02*
X83936100Y-22199500I62500J0D01*
G01*
X84686100Y-22199500D01*
G75*
G02*
X84748600Y-22262000I0J-62500D01*
G01*
X84748600Y-22387000D01*
G75*
G02*
X84686100Y-22449500I-62500J0D01*
G01*
G37*
G36*
G01*
X84686100Y-22949500D02*
X83936100Y-22949500D01*
G75*
G02*
X83873600Y-22887000I0J62500D01*
G01*
X83873600Y-22762000D01*
G75*
G02*
X83936100Y-22699500I62500J0D01*
G01*
X84686100Y-22699500D01*
G75*
G02*
X84748600Y-22762000I0J-62500D01*
G01*
X84748600Y-22887000D01*
G75*
G02*
X84686100Y-22949500I-62500J0D01*
G01*
G37*
G36*
G01*
X84686100Y-23449500D02*
X83936100Y-23449500D01*
G75*
G02*
X83873600Y-23387000I0J62500D01*
G01*
X83873600Y-23262000D01*
G75*
G02*
X83936100Y-23199500I62500J0D01*
G01*
X84686100Y-23199500D01*
G75*
G02*
X84748600Y-23262000I0J-62500D01*
G01*
X84748600Y-23387000D01*
G75*
G02*
X84686100Y-23449500I-62500J0D01*
G01*
G37*
G36*
G01*
X84686100Y-23949500D02*
X83936100Y-23949500D01*
G75*
G02*
X83873600Y-23887000I0J62500D01*
G01*
X83873600Y-23762000D01*
G75*
G02*
X83936100Y-23699500I62500J0D01*
G01*
X84686100Y-23699500D01*
G75*
G02*
X84748600Y-23762000I0J-62500D01*
G01*
X84748600Y-23887000D01*
G75*
G02*
X84686100Y-23949500I-62500J0D01*
G01*
G37*
G36*
G01*
X84686100Y-24449500D02*
X83936100Y-24449500D01*
G75*
G02*
X83873600Y-24387000I0J62500D01*
G01*
X83873600Y-24262000D01*
G75*
G02*
X83936100Y-24199500I62500J0D01*
G01*
X84686100Y-24199500D01*
G75*
G02*
X84748600Y-24262000I0J-62500D01*
G01*
X84748600Y-24387000D01*
G75*
G02*
X84686100Y-24449500I-62500J0D01*
G01*
G37*
G36*
G01*
X84686100Y-24949500D02*
X83936100Y-24949500D01*
G75*
G02*
X83873600Y-24887000I0J62500D01*
G01*
X83873600Y-24762000D01*
G75*
G02*
X83936100Y-24699500I62500J0D01*
G01*
X84686100Y-24699500D01*
G75*
G02*
X84748600Y-24762000I0J-62500D01*
G01*
X84748600Y-24887000D01*
G75*
G02*
X84686100Y-24949500I-62500J0D01*
G01*
G37*
G36*
G01*
X84686100Y-25449500D02*
X83936100Y-25449500D01*
G75*
G02*
X83873600Y-25387000I0J62500D01*
G01*
X83873600Y-25262000D01*
G75*
G02*
X83936100Y-25199500I62500J0D01*
G01*
X84686100Y-25199500D01*
G75*
G02*
X84748600Y-25262000I0J-62500D01*
G01*
X84748600Y-25387000D01*
G75*
G02*
X84686100Y-25449500I-62500J0D01*
G01*
G37*
G36*
G01*
X84686100Y-25949500D02*
X83936100Y-25949500D01*
G75*
G02*
X83873600Y-25887000I0J62500D01*
G01*
X83873600Y-25762000D01*
G75*
G02*
X83936100Y-25699500I62500J0D01*
G01*
X84686100Y-25699500D01*
G75*
G02*
X84748600Y-25762000I0J-62500D01*
G01*
X84748600Y-25887000D01*
G75*
G02*
X84686100Y-25949500I-62500J0D01*
G01*
G37*
G36*
G01*
X84686100Y-26449500D02*
X83936100Y-26449500D01*
G75*
G02*
X83873600Y-26387000I0J62500D01*
G01*
X83873600Y-26262000D01*
G75*
G02*
X83936100Y-26199500I62500J0D01*
G01*
X84686100Y-26199500D01*
G75*
G02*
X84748600Y-26262000I0J-62500D01*
G01*
X84748600Y-26387000D01*
G75*
G02*
X84686100Y-26449500I-62500J0D01*
G01*
G37*
G36*
G01*
X84686100Y-26949500D02*
X83936100Y-26949500D01*
G75*
G02*
X83873600Y-26887000I0J62500D01*
G01*
X83873600Y-26762000D01*
G75*
G02*
X83936100Y-26699500I62500J0D01*
G01*
X84686100Y-26699500D01*
G75*
G02*
X84748600Y-26762000I0J-62500D01*
G01*
X84748600Y-26887000D01*
G75*
G02*
X84686100Y-26949500I-62500J0D01*
G01*
G37*
G36*
G01*
X84686100Y-27449500D02*
X83936100Y-27449500D01*
G75*
G02*
X83873600Y-27387000I0J62500D01*
G01*
X83873600Y-27262000D01*
G75*
G02*
X83936100Y-27199500I62500J0D01*
G01*
X84686100Y-27199500D01*
G75*
G02*
X84748600Y-27262000I0J-62500D01*
G01*
X84748600Y-27387000D01*
G75*
G02*
X84686100Y-27449500I-62500J0D01*
G01*
G37*
G36*
G01*
X83686100Y-28449500D02*
X83561100Y-28449500D01*
G75*
G02*
X83498600Y-28387000I0J62500D01*
G01*
X83498600Y-27637000D01*
G75*
G02*
X83561100Y-27574500I62500J0D01*
G01*
X83686100Y-27574500D01*
G75*
G02*
X83748600Y-27637000I0J-62500D01*
G01*
X83748600Y-28387000D01*
G75*
G02*
X83686100Y-28449500I-62500J0D01*
G01*
G37*
G36*
G01*
X83186100Y-28449500D02*
X83061100Y-28449500D01*
G75*
G02*
X82998600Y-28387000I0J62500D01*
G01*
X82998600Y-27637000D01*
G75*
G02*
X83061100Y-27574500I62500J0D01*
G01*
X83186100Y-27574500D01*
G75*
G02*
X83248600Y-27637000I0J-62500D01*
G01*
X83248600Y-28387000D01*
G75*
G02*
X83186100Y-28449500I-62500J0D01*
G01*
G37*
G36*
G01*
X82686100Y-28449500D02*
X82561100Y-28449500D01*
G75*
G02*
X82498600Y-28387000I0J62500D01*
G01*
X82498600Y-27637000D01*
G75*
G02*
X82561100Y-27574500I62500J0D01*
G01*
X82686100Y-27574500D01*
G75*
G02*
X82748600Y-27637000I0J-62500D01*
G01*
X82748600Y-28387000D01*
G75*
G02*
X82686100Y-28449500I-62500J0D01*
G01*
G37*
G36*
G01*
X82186100Y-28449500D02*
X82061100Y-28449500D01*
G75*
G02*
X81998600Y-28387000I0J62500D01*
G01*
X81998600Y-27637000D01*
G75*
G02*
X82061100Y-27574500I62500J0D01*
G01*
X82186100Y-27574500D01*
G75*
G02*
X82248600Y-27637000I0J-62500D01*
G01*
X82248600Y-28387000D01*
G75*
G02*
X82186100Y-28449500I-62500J0D01*
G01*
G37*
G36*
G01*
X81686100Y-28449500D02*
X81561100Y-28449500D01*
G75*
G02*
X81498600Y-28387000I0J62500D01*
G01*
X81498600Y-27637000D01*
G75*
G02*
X81561100Y-27574500I62500J0D01*
G01*
X81686100Y-27574500D01*
G75*
G02*
X81748600Y-27637000I0J-62500D01*
G01*
X81748600Y-28387000D01*
G75*
G02*
X81686100Y-28449500I-62500J0D01*
G01*
G37*
G36*
G01*
X81186100Y-28449500D02*
X81061100Y-28449500D01*
G75*
G02*
X80998600Y-28387000I0J62500D01*
G01*
X80998600Y-27637000D01*
G75*
G02*
X81061100Y-27574500I62500J0D01*
G01*
X81186100Y-27574500D01*
G75*
G02*
X81248600Y-27637000I0J-62500D01*
G01*
X81248600Y-28387000D01*
G75*
G02*
X81186100Y-28449500I-62500J0D01*
G01*
G37*
G36*
G01*
X80686100Y-28449500D02*
X80561100Y-28449500D01*
G75*
G02*
X80498600Y-28387000I0J62500D01*
G01*
X80498600Y-27637000D01*
G75*
G02*
X80561100Y-27574500I62500J0D01*
G01*
X80686100Y-27574500D01*
G75*
G02*
X80748600Y-27637000I0J-62500D01*
G01*
X80748600Y-28387000D01*
G75*
G02*
X80686100Y-28449500I-62500J0D01*
G01*
G37*
G36*
G01*
X80186100Y-28449500D02*
X80061100Y-28449500D01*
G75*
G02*
X79998600Y-28387000I0J62500D01*
G01*
X79998600Y-27637000D01*
G75*
G02*
X80061100Y-27574500I62500J0D01*
G01*
X80186100Y-27574500D01*
G75*
G02*
X80248600Y-27637000I0J-62500D01*
G01*
X80248600Y-28387000D01*
G75*
G02*
X80186100Y-28449500I-62500J0D01*
G01*
G37*
G36*
G01*
X79686100Y-28449500D02*
X79561100Y-28449500D01*
G75*
G02*
X79498600Y-28387000I0J62500D01*
G01*
X79498600Y-27637000D01*
G75*
G02*
X79561100Y-27574500I62500J0D01*
G01*
X79686100Y-27574500D01*
G75*
G02*
X79748600Y-27637000I0J-62500D01*
G01*
X79748600Y-28387000D01*
G75*
G02*
X79686100Y-28449500I-62500J0D01*
G01*
G37*
G36*
G01*
X79186100Y-28449500D02*
X79061100Y-28449500D01*
G75*
G02*
X78998600Y-28387000I0J62500D01*
G01*
X78998600Y-27637000D01*
G75*
G02*
X79061100Y-27574500I62500J0D01*
G01*
X79186100Y-27574500D01*
G75*
G02*
X79248600Y-27637000I0J-62500D01*
G01*
X79248600Y-28387000D01*
G75*
G02*
X79186100Y-28449500I-62500J0D01*
G01*
G37*
G36*
G01*
X78686100Y-28449500D02*
X78561100Y-28449500D01*
G75*
G02*
X78498600Y-28387000I0J62500D01*
G01*
X78498600Y-27637000D01*
G75*
G02*
X78561100Y-27574500I62500J0D01*
G01*
X78686100Y-27574500D01*
G75*
G02*
X78748600Y-27637000I0J-62500D01*
G01*
X78748600Y-28387000D01*
G75*
G02*
X78686100Y-28449500I-62500J0D01*
G01*
G37*
G36*
G01*
X78186100Y-28449500D02*
X78061100Y-28449500D01*
G75*
G02*
X77998600Y-28387000I0J62500D01*
G01*
X77998600Y-27637000D01*
G75*
G02*
X78061100Y-27574500I62500J0D01*
G01*
X78186100Y-27574500D01*
G75*
G02*
X78248600Y-27637000I0J-62500D01*
G01*
X78248600Y-28387000D01*
G75*
G02*
X78186100Y-28449500I-62500J0D01*
G01*
G37*
D21*
X76250800Y-32854900D03*
X70916800Y-32855400D03*
X76250800Y-30505400D03*
X70916800Y-30505400D03*
D22*
X72583800Y-29743400D03*
X74583800Y-29743400D03*
X73583800Y-29743400D03*
G36*
G01*
X69031600Y-33949350D02*
X69031600Y-33436850D01*
G75*
G02*
X69250350Y-33218100I218750J0D01*
G01*
X69687850Y-33218100D01*
G75*
G02*
X69906600Y-33436850I0J-218750D01*
G01*
X69906600Y-33949350D01*
G75*
G02*
X69687850Y-34168100I-218750J0D01*
G01*
X69250350Y-34168100D01*
G75*
G02*
X69031600Y-33949350I0J218750D01*
G01*
G37*
G36*
G01*
X67456600Y-33949350D02*
X67456600Y-33436850D01*
G75*
G02*
X67675350Y-33218100I218750J0D01*
G01*
X68112850Y-33218100D01*
G75*
G02*
X68331600Y-33436850I0J-218750D01*
G01*
X68331600Y-33949350D01*
G75*
G02*
X68112850Y-34168100I-218750J0D01*
G01*
X67675350Y-34168100D01*
G75*
G02*
X67456600Y-33949350I0J218750D01*
G01*
G37*
G36*
G01*
X63823000Y-30313950D02*
X63823000Y-29401450D01*
G75*
G02*
X64066750Y-29157700I243750J0D01*
G01*
X64554250Y-29157700D01*
G75*
G02*
X64798000Y-29401450I0J-243750D01*
G01*
X64798000Y-30313950D01*
G75*
G02*
X64554250Y-30557700I-243750J0D01*
G01*
X64066750Y-30557700D01*
G75*
G02*
X63823000Y-30313950I0J243750D01*
G01*
G37*
G36*
G01*
X61948000Y-30313950D02*
X61948000Y-29401450D01*
G75*
G02*
X62191750Y-29157700I243750J0D01*
G01*
X62679250Y-29157700D01*
G75*
G02*
X62923000Y-29401450I0J-243750D01*
G01*
X62923000Y-30313950D01*
G75*
G02*
X62679250Y-30557700I-243750J0D01*
G01*
X62191750Y-30557700D01*
G75*
G02*
X61948000Y-30313950I0J243750D01*
G01*
G37*
G36*
G01*
X35036484Y-11458619D02*
X35292734Y-11014781D01*
G75*
G02*
X35591552Y-10934713I189443J-109375D01*
G01*
X35970438Y-11153463D01*
G75*
G02*
X36050506Y-11452281I-109375J-189443D01*
G01*
X35794256Y-11896119D01*
G75*
G02*
X35495438Y-11976187I-189443J109375D01*
G01*
X35116552Y-11757437D01*
G75*
G02*
X35036484Y-11458619I109375J189443D01*
G01*
G37*
G36*
G01*
X33672494Y-10671119D02*
X33928744Y-10227281D01*
G75*
G02*
X34227562Y-10147213I189443J-109375D01*
G01*
X34606448Y-10365963D01*
G75*
G02*
X34686516Y-10664781I-109375J-189443D01*
G01*
X34430266Y-11108619D01*
G75*
G02*
X34131448Y-11188687I-189443J109375D01*
G01*
X33752562Y-10969937D01*
G75*
G02*
X33672494Y-10671119I109375J189443D01*
G01*
G37*
G36*
G01*
X81018900Y-30503150D02*
X81018900Y-31015650D01*
G75*
G02*
X80800150Y-31234400I-218750J0D01*
G01*
X80362650Y-31234400D01*
G75*
G02*
X80143900Y-31015650I0J218750D01*
G01*
X80143900Y-30503150D01*
G75*
G02*
X80362650Y-30284400I218750J0D01*
G01*
X80800150Y-30284400D01*
G75*
G02*
X81018900Y-30503150I0J-218750D01*
G01*
G37*
G36*
G01*
X82593900Y-30503150D02*
X82593900Y-31015650D01*
G75*
G02*
X82375150Y-31234400I-218750J0D01*
G01*
X81937650Y-31234400D01*
G75*
G02*
X81718900Y-31015650I0J218750D01*
G01*
X81718900Y-30503150D01*
G75*
G02*
X81937650Y-30284400I218750J0D01*
G01*
X82375150Y-30284400D01*
G75*
G02*
X82593900Y-30503150I0J-218750D01*
G01*
G37*
G36*
G01*
X37742150Y-15882100D02*
X38254650Y-15882100D01*
G75*
G02*
X38473400Y-16100850I0J-218750D01*
G01*
X38473400Y-16538350D01*
G75*
G02*
X38254650Y-16757100I-218750J0D01*
G01*
X37742150Y-16757100D01*
G75*
G02*
X37523400Y-16538350I0J218750D01*
G01*
X37523400Y-16100850D01*
G75*
G02*
X37742150Y-15882100I218750J0D01*
G01*
G37*
G36*
G01*
X37742150Y-14307100D02*
X38254650Y-14307100D01*
G75*
G02*
X38473400Y-14525850I0J-218750D01*
G01*
X38473400Y-14963350D01*
G75*
G02*
X38254650Y-15182100I-218750J0D01*
G01*
X37742150Y-15182100D01*
G75*
G02*
X37523400Y-14963350I0J218750D01*
G01*
X37523400Y-14525850D01*
G75*
G02*
X37742150Y-14307100I218750J0D01*
G01*
G37*
G36*
G01*
X72057550Y-27058100D02*
X72570050Y-27058100D01*
G75*
G02*
X72788800Y-27276850I0J-218750D01*
G01*
X72788800Y-27714350D01*
G75*
G02*
X72570050Y-27933100I-218750J0D01*
G01*
X72057550Y-27933100D01*
G75*
G02*
X71838800Y-27714350I0J218750D01*
G01*
X71838800Y-27276850D01*
G75*
G02*
X72057550Y-27058100I218750J0D01*
G01*
G37*
G36*
G01*
X72057550Y-25483100D02*
X72570050Y-25483100D01*
G75*
G02*
X72788800Y-25701850I0J-218750D01*
G01*
X72788800Y-26139350D01*
G75*
G02*
X72570050Y-26358100I-218750J0D01*
G01*
X72057550Y-26358100D01*
G75*
G02*
X71838800Y-26139350I0J218750D01*
G01*
X71838800Y-25701850D01*
G75*
G02*
X72057550Y-25483100I218750J0D01*
G01*
G37*
D20*
X63093600Y-18316695D03*
X64043600Y-20316695D03*
X62143600Y-20316695D03*
X66852802Y-18329399D03*
X67802802Y-20329399D03*
X65902802Y-20329399D03*
X70662795Y-18342101D03*
X71612795Y-20342101D03*
X69712795Y-20342101D03*
X40563800Y-14024100D03*
X41513800Y-16024100D03*
X39613800Y-16024100D03*
D23*
X64165300Y-32613600D03*
X64165300Y-33563600D03*
X64165300Y-31663600D03*
X66365300Y-31663600D03*
X66365300Y-32613600D03*
X66365300Y-33563600D03*
G36*
G01*
X61422800Y-33271750D02*
X61422800Y-33784250D01*
G75*
G02*
X61204050Y-34003000I-218750J0D01*
G01*
X60766550Y-34003000D01*
G75*
G02*
X60547800Y-33784250I0J218750D01*
G01*
X60547800Y-33271750D01*
G75*
G02*
X60766550Y-33053000I218750J0D01*
G01*
X61204050Y-33053000D01*
G75*
G02*
X61422800Y-33271750I0J-218750D01*
G01*
G37*
G36*
G01*
X62997800Y-33271750D02*
X62997800Y-33784250D01*
G75*
G02*
X62779050Y-34003000I-218750J0D01*
G01*
X62341550Y-34003000D01*
G75*
G02*
X62122800Y-33784250I0J218750D01*
G01*
X62122800Y-33271750D01*
G75*
G02*
X62341550Y-33053000I218750J0D01*
G01*
X62779050Y-33053000D01*
G75*
G02*
X62997800Y-33271750I0J-218750D01*
G01*
G37*
G36*
G01*
X61422800Y-31684250D02*
X61422800Y-32196750D01*
G75*
G02*
X61204050Y-32415500I-218750J0D01*
G01*
X60766550Y-32415500D01*
G75*
G02*
X60547800Y-32196750I0J218750D01*
G01*
X60547800Y-31684250D01*
G75*
G02*
X60766550Y-31465500I218750J0D01*
G01*
X61204050Y-31465500D01*
G75*
G02*
X61422800Y-31684250I0J-218750D01*
G01*
G37*
G36*
G01*
X62997800Y-31684250D02*
X62997800Y-32196750D01*
G75*
G02*
X62779050Y-32415500I-218750J0D01*
G01*
X62341550Y-32415500D01*
G75*
G02*
X62122800Y-32196750I0J218750D01*
G01*
X62122800Y-31684250D01*
G75*
G02*
X62341550Y-31465500I218750J0D01*
G01*
X62779050Y-31465500D01*
G75*
G02*
X62997800Y-31684250I0J-218750D01*
G01*
G37*
G36*
G01*
X68331600Y-31252450D02*
X68331600Y-31764950D01*
G75*
G02*
X68112850Y-31983700I-218750J0D01*
G01*
X67675350Y-31983700D01*
G75*
G02*
X67456600Y-31764950I0J218750D01*
G01*
X67456600Y-31252450D01*
G75*
G02*
X67675350Y-31033700I218750J0D01*
G01*
X68112850Y-31033700D01*
G75*
G02*
X68331600Y-31252450I0J-218750D01*
G01*
G37*
G36*
G01*
X69906600Y-31252450D02*
X69906600Y-31764950D01*
G75*
G02*
X69687850Y-31983700I-218750J0D01*
G01*
X69250350Y-31983700D01*
G75*
G02*
X69031600Y-31764950I0J218750D01*
G01*
X69031600Y-31252450D01*
G75*
G02*
X69250350Y-31033700I218750J0D01*
G01*
X69687850Y-31033700D01*
G75*
G02*
X69906600Y-31252450I0J-218750D01*
G01*
G37*
G36*
G01*
X60497200Y-30317150D02*
X60497200Y-29804650D01*
G75*
G02*
X60715950Y-29585900I218750J0D01*
G01*
X61153450Y-29585900D01*
G75*
G02*
X61372200Y-29804650I0J-218750D01*
G01*
X61372200Y-30317150D01*
G75*
G02*
X61153450Y-30535900I-218750J0D01*
G01*
X60715950Y-30535900D01*
G75*
G02*
X60497200Y-30317150I0J218750D01*
G01*
G37*
G36*
G01*
X58922200Y-30317150D02*
X58922200Y-29804650D01*
G75*
G02*
X59140950Y-29585900I218750J0D01*
G01*
X59578450Y-29585900D01*
G75*
G02*
X59797200Y-29804650I0J-218750D01*
G01*
X59797200Y-30317150D01*
G75*
G02*
X59578450Y-30535900I-218750J0D01*
G01*
X59140950Y-30535900D01*
G75*
G02*
X58922200Y-30317150I0J218750D01*
G01*
G37*
G36*
G01*
X34287184Y-12766719D02*
X34543434Y-12322881D01*
G75*
G02*
X34842252Y-12242813I189443J-109375D01*
G01*
X35221138Y-12461563D01*
G75*
G02*
X35301206Y-12760381I-109375J-189443D01*
G01*
X35044956Y-13204219D01*
G75*
G02*
X34746138Y-13284287I-189443J109375D01*
G01*
X34367252Y-13065537D01*
G75*
G02*
X34287184Y-12766719I109375J189443D01*
G01*
G37*
G36*
G01*
X32923194Y-11979219D02*
X33179444Y-11535381D01*
G75*
G02*
X33478262Y-11455313I189443J-109375D01*
G01*
X33857148Y-11674063D01*
G75*
G02*
X33937216Y-11972881I-109375J-189443D01*
G01*
X33680966Y-12416719D01*
G75*
G02*
X33382148Y-12496787I-189443J109375D01*
G01*
X33003262Y-12278037D01*
G75*
G02*
X32923194Y-11979219I109375J189443D01*
G01*
G37*
G36*
G01*
X84063550Y-32708100D02*
X83551050Y-32708100D01*
G75*
G02*
X83332300Y-32489350I0J218750D01*
G01*
X83332300Y-32051850D01*
G75*
G02*
X83551050Y-31833100I218750J0D01*
G01*
X84063550Y-31833100D01*
G75*
G02*
X84282300Y-32051850I0J-218750D01*
G01*
X84282300Y-32489350D01*
G75*
G02*
X84063550Y-32708100I-218750J0D01*
G01*
G37*
G36*
G01*
X84063550Y-34283100D02*
X83551050Y-34283100D01*
G75*
G02*
X83332300Y-34064350I0J218750D01*
G01*
X83332300Y-33626850D01*
G75*
G02*
X83551050Y-33408100I218750J0D01*
G01*
X84063550Y-33408100D01*
G75*
G02*
X84282300Y-33626850I0J-218750D01*
G01*
X84282300Y-34064350D01*
G75*
G02*
X84063550Y-34283100I-218750J0D01*
G01*
G37*
G36*
G01*
X78996250Y-32720800D02*
X78483750Y-32720800D01*
G75*
G02*
X78265000Y-32502050I0J218750D01*
G01*
X78265000Y-32064550D01*
G75*
G02*
X78483750Y-31845800I218750J0D01*
G01*
X78996250Y-31845800D01*
G75*
G02*
X79215000Y-32064550I0J-218750D01*
G01*
X79215000Y-32502050D01*
G75*
G02*
X78996250Y-32720800I-218750J0D01*
G01*
G37*
G36*
G01*
X78996250Y-34295800D02*
X78483750Y-34295800D01*
G75*
G02*
X78265000Y-34077050I0J218750D01*
G01*
X78265000Y-33639550D01*
G75*
G02*
X78483750Y-33420800I218750J0D01*
G01*
X78996250Y-33420800D01*
G75*
G02*
X79215000Y-33639550I0J-218750D01*
G01*
X79215000Y-34077050D01*
G75*
G02*
X78996250Y-34295800I-218750J0D01*
G01*
G37*
G36*
G01*
X68523600Y-26100750D02*
X68523600Y-25588250D01*
G75*
G02*
X68742350Y-25369500I218750J0D01*
G01*
X69179850Y-25369500D01*
G75*
G02*
X69398600Y-25588250I0J-218750D01*
G01*
X69398600Y-26100750D01*
G75*
G02*
X69179850Y-26319500I-218750J0D01*
G01*
X68742350Y-26319500D01*
G75*
G02*
X68523600Y-26100750I0J218750D01*
G01*
G37*
G36*
G01*
X66948600Y-26100750D02*
X66948600Y-25588250D01*
G75*
G02*
X67167350Y-25369500I218750J0D01*
G01*
X67604850Y-25369500D01*
G75*
G02*
X67823600Y-25588250I0J-218750D01*
G01*
X67823600Y-26100750D01*
G75*
G02*
X67604850Y-26319500I-218750J0D01*
G01*
X67167350Y-26319500D01*
G75*
G02*
X66948600Y-26100750I0J218750D01*
G01*
G37*
G36*
G01*
X71096850Y-26358100D02*
X70584350Y-26358100D01*
G75*
G02*
X70365600Y-26139350I0J218750D01*
G01*
X70365600Y-25701850D01*
G75*
G02*
X70584350Y-25483100I218750J0D01*
G01*
X71096850Y-25483100D01*
G75*
G02*
X71315600Y-25701850I0J-218750D01*
G01*
X71315600Y-26139350D01*
G75*
G02*
X71096850Y-26358100I-218750J0D01*
G01*
G37*
G36*
G01*
X71096850Y-27933100D02*
X70584350Y-27933100D01*
G75*
G02*
X70365600Y-27714350I0J218750D01*
G01*
X70365600Y-27276850D01*
G75*
G02*
X70584350Y-27058100I218750J0D01*
G01*
X71096850Y-27058100D01*
G75*
G02*
X71315600Y-27276850I0J-218750D01*
G01*
X71315600Y-27714350D01*
G75*
G02*
X71096850Y-27933100I-218750J0D01*
G01*
G37*
G36*
G01*
X87457800Y-23048250D02*
X87457800Y-23560750D01*
G75*
G02*
X87239050Y-23779500I-218750J0D01*
G01*
X86801550Y-23779500D01*
G75*
G02*
X86582800Y-23560750I0J218750D01*
G01*
X86582800Y-23048250D01*
G75*
G02*
X86801550Y-22829500I218750J0D01*
G01*
X87239050Y-22829500D01*
G75*
G02*
X87457800Y-23048250I0J-218750D01*
G01*
G37*
G36*
G01*
X89032800Y-23048250D02*
X89032800Y-23560750D01*
G75*
G02*
X88814050Y-23779500I-218750J0D01*
G01*
X88376550Y-23779500D01*
G75*
G02*
X88157800Y-23560750I0J218750D01*
G01*
X88157800Y-23048250D01*
G75*
G02*
X88376550Y-22829500I218750J0D01*
G01*
X88814050Y-22829500D01*
G75*
G02*
X89032800Y-23048250I0J-218750D01*
G01*
G37*
D24*
X48818800Y-23576100D03*
X48818800Y-25776100D03*
M02*
