G04 #@! TF.GenerationSoftware,KiCad,Pcbnew,(5.1.6)-1*
G04 #@! TF.CreationDate,2021-01-06T20:51:57+08:00*
G04 #@! TF.ProjectId,main_V1.0,6d61696e-5f56-4312-9e30-2e6b69636164,rev?*
G04 #@! TF.SameCoordinates,Original*
G04 #@! TF.FileFunction,Legend,Bot*
G04 #@! TF.FilePolarity,Positive*
%FSLAX46Y46*%
G04 Gerber Fmt 4.6, Leading zero omitted, Abs format (unit mm)*
G04 Created by KiCad (PCBNEW (5.1.6)-1) date 2021-01-06 20:51:57*
%MOMM*%
%LPD*%
G01*
G04 APERTURE LIST*
%ADD10C,0.150000*%
G04 APERTURE END LIST*
D10*
X37173240Y-7456901D02*
X37700010Y-7211175D01*
X37668111Y-7742616D02*
X38168111Y-6876590D01*
X37838197Y-6686114D01*
X37731909Y-6679734D01*
X37666860Y-6697164D01*
X37578002Y-6755833D01*
X37506573Y-6879551D01*
X37500193Y-6985839D01*
X37517623Y-7050888D01*
X37576292Y-7139747D01*
X37906207Y-7330223D01*
X37295706Y-6482878D02*
X37278276Y-6417830D01*
X37219607Y-6328971D01*
X37013411Y-6209924D01*
X36907123Y-6203544D01*
X36842074Y-6220974D01*
X36753215Y-6279643D01*
X36705596Y-6362121D01*
X36675407Y-6509649D01*
X36884565Y-7290235D01*
X36348454Y-6980711D01*
X36312343Y-5805162D02*
X36229864Y-5757543D01*
X36123576Y-5751163D01*
X36058527Y-5768593D01*
X35969669Y-5827262D01*
X35833191Y-5968410D01*
X35714144Y-6174606D01*
X35660145Y-6363373D01*
X35653765Y-6469661D01*
X35671195Y-6534710D01*
X35729864Y-6623568D01*
X35812343Y-6671187D01*
X35918631Y-6677567D01*
X35983680Y-6660137D01*
X36072538Y-6601468D01*
X36209015Y-6460320D01*
X36328063Y-6254124D01*
X36382062Y-6065357D01*
X36388441Y-5959069D01*
X36371012Y-5894020D01*
X36312343Y-5805162D01*
X40589540Y-10530301D02*
X41116310Y-10284575D01*
X41084411Y-10816016D02*
X41584411Y-9949990D01*
X41254497Y-9759514D01*
X41148209Y-9753134D01*
X41083160Y-9770564D01*
X40994302Y-9829233D01*
X40922873Y-9952951D01*
X40916493Y-10059239D01*
X40933923Y-10124288D01*
X40992592Y-10213147D01*
X41322507Y-10403623D01*
X40712006Y-9556278D02*
X40694576Y-9491230D01*
X40635907Y-9402371D01*
X40429711Y-9283324D01*
X40323423Y-9276944D01*
X40258374Y-9294374D01*
X40169515Y-9353043D01*
X40121896Y-9435521D01*
X40091707Y-9583049D01*
X40300865Y-10363635D01*
X39764754Y-10054111D01*
X39481207Y-8735705D02*
X39893600Y-8973800D01*
X39696744Y-9410002D01*
X39679314Y-9344954D01*
X39620645Y-9256095D01*
X39414448Y-9137048D01*
X39308160Y-9130668D01*
X39243112Y-9148098D01*
X39154253Y-9206767D01*
X39035206Y-9412963D01*
X39028826Y-9519251D01*
X39046256Y-9584300D01*
X39104925Y-9673159D01*
X39311121Y-9792206D01*
X39417409Y-9798586D01*
X39482458Y-9781156D01*
X39759300Y5150038D02*
X40460368Y4745276D01*
X40519037Y4656418D01*
X40536467Y4591369D01*
X40530087Y4485081D01*
X40434849Y4320123D01*
X40345991Y4261454D01*
X40280942Y4244025D01*
X40174654Y4250404D01*
X39473586Y4655166D01*
X39283109Y4325252D02*
X38949776Y3747902D01*
X40030087Y3619055D01*
X60015380Y-32535833D02*
X59539190Y-32202500D01*
X60015380Y-31964404D02*
X59015380Y-31964404D01*
X59015380Y-32345357D01*
X59063000Y-32440595D01*
X59110619Y-32488214D01*
X59205857Y-32535833D01*
X59348714Y-32535833D01*
X59443952Y-32488214D01*
X59491571Y-32440595D01*
X59539190Y-32345357D01*
X59539190Y-31964404D01*
X59443952Y-33107261D02*
X59396333Y-33012023D01*
X59348714Y-32964404D01*
X59253476Y-32916785D01*
X59205857Y-32916785D01*
X59110619Y-32964404D01*
X59063000Y-33012023D01*
X59015380Y-33107261D01*
X59015380Y-33297738D01*
X59063000Y-33392976D01*
X59110619Y-33440595D01*
X59205857Y-33488214D01*
X59253476Y-33488214D01*
X59348714Y-33440595D01*
X59396333Y-33392976D01*
X59443952Y-33297738D01*
X59443952Y-33107261D01*
X59491571Y-33012023D01*
X59539190Y-32964404D01*
X59634428Y-32916785D01*
X59824904Y-32916785D01*
X59920142Y-32964404D01*
X59967761Y-33012023D01*
X60015380Y-33107261D01*
X60015380Y-33297738D01*
X59967761Y-33392976D01*
X59920142Y-33440595D01*
X59824904Y-33488214D01*
X59634428Y-33488214D01*
X59539190Y-33440595D01*
X59491571Y-33392976D01*
X59443952Y-33297738D01*
X36863700Y6538D02*
X37564768Y-398223D01*
X37623437Y-487081D01*
X37640867Y-552130D01*
X37634487Y-658418D01*
X37539249Y-823376D01*
X37450391Y-882045D01*
X37385342Y-899474D01*
X37279054Y-893095D01*
X36577986Y-488333D01*
X36639616Y-1238729D02*
X36645995Y-1132441D01*
X36628565Y-1067392D01*
X36569896Y-978534D01*
X36528657Y-954725D01*
X36422369Y-948345D01*
X36357320Y-965775D01*
X36268462Y-1024444D01*
X36173224Y-1189401D01*
X36166844Y-1295689D01*
X36184274Y-1360738D01*
X36242943Y-1449596D01*
X36284182Y-1473406D01*
X36390470Y-1479786D01*
X36455519Y-1462356D01*
X36544377Y-1403687D01*
X36639616Y-1238729D01*
X36728474Y-1180060D01*
X36793523Y-1162631D01*
X36899811Y-1169010D01*
X37064768Y-1264248D01*
X37123437Y-1353107D01*
X37140867Y-1418156D01*
X37134487Y-1524444D01*
X37039249Y-1689401D01*
X36950391Y-1748070D01*
X36885342Y-1765500D01*
X36779054Y-1759120D01*
X36614097Y-1663882D01*
X36555427Y-1575024D01*
X36537998Y-1509975D01*
X36544377Y-1403687D01*
X34692000Y-4095561D02*
X35393068Y-4500323D01*
X35451737Y-4589181D01*
X35469167Y-4654230D01*
X35462787Y-4760518D01*
X35367549Y-4925476D01*
X35278691Y-4984145D01*
X35213642Y-5001574D01*
X35107354Y-4995195D01*
X34406286Y-4590433D01*
X33953905Y-5373980D02*
X34049143Y-5209022D01*
X34138001Y-5150353D01*
X34203050Y-5132923D01*
X34374387Y-5121873D01*
X34563154Y-5175872D01*
X34893068Y-5366348D01*
X34951737Y-5455207D01*
X34969167Y-5520256D01*
X34962787Y-5626544D01*
X34867549Y-5791501D01*
X34778691Y-5850170D01*
X34713642Y-5867600D01*
X34607354Y-5861220D01*
X34401157Y-5742172D01*
X34342488Y-5653314D01*
X34325058Y-5588265D01*
X34331438Y-5481977D01*
X34426676Y-5317020D01*
X34515535Y-5258351D01*
X34580583Y-5240921D01*
X34686872Y-5247301D01*
X40005340Y-11571701D02*
X40532110Y-11325975D01*
X40500211Y-11857416D02*
X41000211Y-10991390D01*
X40670297Y-10800914D01*
X40564009Y-10794534D01*
X40498960Y-10811964D01*
X40410102Y-10870633D01*
X40338673Y-10994351D01*
X40332293Y-11100639D01*
X40349723Y-11165688D01*
X40408392Y-11254547D01*
X40738307Y-11445023D01*
X40127806Y-10597678D02*
X40110376Y-10532630D01*
X40051707Y-10443771D01*
X39845511Y-10324724D01*
X39739223Y-10318344D01*
X39674174Y-10335774D01*
X39585315Y-10394443D01*
X39537696Y-10476921D01*
X39507507Y-10624449D01*
X39716665Y-11405035D01*
X39180554Y-11095511D01*
X38771579Y-10089589D02*
X38438246Y-10666940D01*
X39168252Y-9878722D02*
X39017306Y-10616360D01*
X38481195Y-10306836D01*
X35636540Y-9920701D02*
X36163310Y-9674975D01*
X36131411Y-10206416D02*
X36631411Y-9340390D01*
X36301497Y-9149914D01*
X36195209Y-9143534D01*
X36130160Y-9160964D01*
X36041302Y-9219633D01*
X35969873Y-9343351D01*
X35963493Y-9449639D01*
X35980923Y-9514688D01*
X36039592Y-9603547D01*
X36369507Y-9794023D01*
X35759006Y-8946678D02*
X35741576Y-8881630D01*
X35682907Y-8792771D01*
X35476711Y-8673724D01*
X35370423Y-8667344D01*
X35305374Y-8684774D01*
X35216515Y-8743443D01*
X35168896Y-8825921D01*
X35138707Y-8973449D01*
X35347865Y-9754035D01*
X34811754Y-9444511D01*
X35023078Y-8411819D02*
X34486967Y-8102295D01*
X34585166Y-8598876D01*
X34461448Y-8527448D01*
X34355160Y-8521068D01*
X34290112Y-8538498D01*
X34201253Y-8597167D01*
X34082206Y-8803363D01*
X34075826Y-8909651D01*
X34093256Y-8974700D01*
X34151925Y-9063559D01*
X34399360Y-9206416D01*
X34505649Y-9212795D01*
X34570697Y-9195366D01*
X41999240Y-8257001D02*
X42526010Y-8011275D01*
X42494111Y-8542716D02*
X42994111Y-7676690D01*
X42664197Y-7486214D01*
X42557909Y-7479834D01*
X42492860Y-7497264D01*
X42404002Y-7555933D01*
X42332573Y-7679651D01*
X42326193Y-7785939D01*
X42343623Y-7850988D01*
X42402292Y-7939847D01*
X42732207Y-8130323D01*
X42121706Y-7282978D02*
X42104276Y-7217930D01*
X42045607Y-7129071D01*
X41839411Y-7010024D01*
X41733123Y-7003644D01*
X41668074Y-7021074D01*
X41579215Y-7079743D01*
X41531596Y-7162221D01*
X41501407Y-7309749D01*
X41710565Y-8090335D01*
X41174454Y-7780811D01*
X41296920Y-6806788D02*
X41279490Y-6741739D01*
X41220821Y-6652881D01*
X41014625Y-6533833D01*
X40908337Y-6527453D01*
X40843288Y-6544883D01*
X40754429Y-6603552D01*
X40706810Y-6686031D01*
X40676621Y-6833558D01*
X40885778Y-7614144D01*
X40349667Y-7304621D01*
X37732040Y-6453601D02*
X38258810Y-6207875D01*
X38226911Y-6739316D02*
X38726911Y-5873290D01*
X38396997Y-5682814D01*
X38290709Y-5676434D01*
X38225660Y-5693864D01*
X38136802Y-5752533D01*
X38065373Y-5876251D01*
X38058993Y-5982539D01*
X38076423Y-6047588D01*
X38135092Y-6136447D01*
X38465007Y-6326923D01*
X37854506Y-5479578D02*
X37837076Y-5414530D01*
X37778407Y-5325671D01*
X37572211Y-5206624D01*
X37465923Y-5200244D01*
X37400874Y-5217674D01*
X37312015Y-5276343D01*
X37264396Y-5358821D01*
X37234207Y-5506349D01*
X37443365Y-6286935D01*
X36907254Y-5977411D01*
X36082467Y-5501221D02*
X36577339Y-5786935D01*
X36329903Y-5644078D02*
X36829903Y-4778052D01*
X36840953Y-4949389D01*
X36875813Y-5079487D01*
X36934482Y-5168345D01*
X39611640Y-3164301D02*
X40138410Y-2918575D01*
X40106511Y-3450016D02*
X40606511Y-2583990D01*
X40276597Y-2393514D01*
X40170309Y-2387134D01*
X40105260Y-2404564D01*
X40016402Y-2463233D01*
X39944973Y-2586951D01*
X39938593Y-2693239D01*
X39956023Y-2758288D01*
X40014692Y-2847147D01*
X40344607Y-3037623D01*
X38786854Y-2688111D02*
X39281725Y-2973825D01*
X39034289Y-2830968D02*
X39534289Y-1964943D01*
X39545339Y-2136280D01*
X39580199Y-2266377D01*
X39638868Y-2355236D01*
X38374460Y-2450016D02*
X38209503Y-2354778D01*
X38150834Y-2265919D01*
X38133404Y-2200870D01*
X38122354Y-2029534D01*
X38176353Y-1840767D01*
X38366829Y-1510852D01*
X38455688Y-1452183D01*
X38520737Y-1434753D01*
X38627025Y-1441133D01*
X38791982Y-1536371D01*
X38850651Y-1625230D01*
X38868081Y-1690278D01*
X38861701Y-1796567D01*
X38742653Y-2002763D01*
X38653795Y-2061432D01*
X38588746Y-2078862D01*
X38482458Y-2072482D01*
X38317501Y-1977244D01*
X38258832Y-1888386D01*
X38241402Y-1823337D01*
X38247782Y-1717049D01*
X38989340Y-4231101D02*
X39516110Y-3985375D01*
X39484211Y-4516816D02*
X39984211Y-3650790D01*
X39654297Y-3460314D01*
X39548009Y-3453934D01*
X39482960Y-3471364D01*
X39394102Y-3530033D01*
X39322673Y-3653751D01*
X39316293Y-3760039D01*
X39333723Y-3825088D01*
X39392392Y-3913947D01*
X39722307Y-4104423D01*
X38164554Y-3754911D02*
X38659425Y-4040625D01*
X38411989Y-3897768D02*
X38911989Y-3031743D01*
X38923039Y-3203080D01*
X38957899Y-3333177D01*
X39016568Y-3422036D01*
X37955396Y-2974325D02*
X38061684Y-2980705D01*
X38126733Y-2963275D01*
X38215591Y-2904606D01*
X38239401Y-2863367D01*
X38245781Y-2757078D01*
X38228351Y-2692030D01*
X38169682Y-2603171D01*
X38004725Y-2507933D01*
X37898437Y-2501553D01*
X37833388Y-2518983D01*
X37744529Y-2577652D01*
X37720720Y-2618892D01*
X37714340Y-2725180D01*
X37731770Y-2790229D01*
X37790439Y-2879087D01*
X37955396Y-2974325D01*
X38014065Y-3063183D01*
X38031495Y-3128232D01*
X38025115Y-3234520D01*
X37929877Y-3399478D01*
X37841019Y-3458147D01*
X37775970Y-3475576D01*
X37669682Y-3469197D01*
X37504725Y-3373959D01*
X37446056Y-3285100D01*
X37428626Y-3220051D01*
X37435006Y-3113763D01*
X37530244Y-2948806D01*
X37619102Y-2890137D01*
X37684151Y-2872707D01*
X37790439Y-2879087D01*
X42608840Y-7253701D02*
X43135610Y-7007975D01*
X43103711Y-7539416D02*
X43603711Y-6673390D01*
X43273797Y-6482914D01*
X43167509Y-6476534D01*
X43102460Y-6493964D01*
X43013602Y-6552633D01*
X42942173Y-6676351D01*
X42935793Y-6782639D01*
X42953223Y-6847688D01*
X43011892Y-6936547D01*
X43341807Y-7127023D01*
X41784054Y-6777511D02*
X42278925Y-7063225D01*
X42031489Y-6920368D02*
X42531489Y-6054343D01*
X42542539Y-6225680D01*
X42577399Y-6355777D01*
X42636068Y-6444636D01*
X41995378Y-5744819D02*
X41418028Y-5411486D01*
X41289182Y-6491797D01*
X81743490Y-32983490D02*
X81743490Y-33459680D01*
X82076823Y-32459680D02*
X81743490Y-32983490D01*
X81410157Y-32459680D01*
X80553014Y-33459680D02*
X81124442Y-33459680D01*
X80838728Y-33459680D02*
X80838728Y-32459680D01*
X80933966Y-32602538D01*
X81029204Y-32697776D01*
X81124442Y-32745395D01*
X63188838Y-20029419D02*
X63284076Y-19981800D01*
X63379314Y-19886561D01*
X63522171Y-19743704D01*
X63617409Y-19696085D01*
X63712647Y-19696085D01*
X63665028Y-19934180D02*
X63760266Y-19886561D01*
X63855504Y-19791323D01*
X63903123Y-19600847D01*
X63903123Y-19267514D01*
X63855504Y-19077038D01*
X63760266Y-18981800D01*
X63665028Y-18934180D01*
X63474552Y-18934180D01*
X63379314Y-18981800D01*
X63284076Y-19077038D01*
X63236457Y-19267514D01*
X63236457Y-19600847D01*
X63284076Y-19791323D01*
X63379314Y-19886561D01*
X63474552Y-19934180D01*
X63665028Y-19934180D01*
X62379314Y-19267514D02*
X62379314Y-19934180D01*
X62617409Y-18886561D02*
X62855504Y-19600847D01*
X62236457Y-19600847D01*
X66986138Y-19991319D02*
X67081376Y-19943700D01*
X67176614Y-19848461D01*
X67319471Y-19705604D01*
X67414709Y-19657985D01*
X67509947Y-19657985D01*
X67462328Y-19896080D02*
X67557566Y-19848461D01*
X67652804Y-19753223D01*
X67700423Y-19562747D01*
X67700423Y-19229414D01*
X67652804Y-19038938D01*
X67557566Y-18943700D01*
X67462328Y-18896080D01*
X67271852Y-18896080D01*
X67176614Y-18943700D01*
X67081376Y-19038938D01*
X67033757Y-19229414D01*
X67033757Y-19562747D01*
X67081376Y-19753223D01*
X67176614Y-19848461D01*
X67271852Y-19896080D01*
X67462328Y-19896080D01*
X66700423Y-18896080D02*
X66081376Y-18896080D01*
X66414709Y-19277033D01*
X66271852Y-19277033D01*
X66176614Y-19324652D01*
X66128995Y-19372271D01*
X66081376Y-19467509D01*
X66081376Y-19705604D01*
X66128995Y-19800842D01*
X66176614Y-19848461D01*
X66271852Y-19896080D01*
X66557566Y-19896080D01*
X66652804Y-19848461D01*
X66700423Y-19800842D01*
X70770738Y-20042119D02*
X70865976Y-19994500D01*
X70961214Y-19899261D01*
X71104071Y-19756404D01*
X71199309Y-19708785D01*
X71294547Y-19708785D01*
X71246928Y-19946880D02*
X71342166Y-19899261D01*
X71437404Y-19804023D01*
X71485023Y-19613547D01*
X71485023Y-19280214D01*
X71437404Y-19089738D01*
X71342166Y-18994500D01*
X71246928Y-18946880D01*
X71056452Y-18946880D01*
X70961214Y-18994500D01*
X70865976Y-19089738D01*
X70818357Y-19280214D01*
X70818357Y-19613547D01*
X70865976Y-19804023D01*
X70961214Y-19899261D01*
X71056452Y-19946880D01*
X71246928Y-19946880D01*
X70437404Y-19042119D02*
X70389785Y-18994500D01*
X70294547Y-18946880D01*
X70056452Y-18946880D01*
X69961214Y-18994500D01*
X69913595Y-19042119D01*
X69865976Y-19137357D01*
X69865976Y-19232595D01*
X69913595Y-19375452D01*
X70485023Y-19946880D01*
X69865976Y-19946880D01*
X66127190Y-33192980D02*
X66127190Y-32192980D01*
X65079571Y-33097742D02*
X65127190Y-33145361D01*
X65270047Y-33192980D01*
X65365285Y-33192980D01*
X65508142Y-33145361D01*
X65603380Y-33050123D01*
X65651000Y-32954885D01*
X65698619Y-32764409D01*
X65698619Y-32621552D01*
X65651000Y-32431076D01*
X65603380Y-32335838D01*
X65508142Y-32240600D01*
X65365285Y-32192980D01*
X65270047Y-32192980D01*
X65127190Y-32240600D01*
X65079571Y-32288219D01*
X64127190Y-33192980D02*
X64698619Y-33192980D01*
X64412904Y-33192980D02*
X64412904Y-32192980D01*
X64508142Y-32335838D01*
X64603380Y-32431076D01*
X64698619Y-32478695D01*
X62625195Y-33954980D02*
X62625195Y-32954980D01*
X62387100Y-32954980D01*
X62244242Y-33002600D01*
X62149004Y-33097838D01*
X62101385Y-33193076D01*
X62053766Y-33383552D01*
X62053766Y-33526409D01*
X62101385Y-33716885D01*
X62149004Y-33812123D01*
X62244242Y-33907361D01*
X62387100Y-33954980D01*
X62625195Y-33954980D01*
X61720433Y-32954980D02*
X61101385Y-32954980D01*
X61434719Y-33335933D01*
X61291861Y-33335933D01*
X61196623Y-33383552D01*
X61149004Y-33431171D01*
X61101385Y-33526409D01*
X61101385Y-33764504D01*
X61149004Y-33859742D01*
X61196623Y-33907361D01*
X61291861Y-33954980D01*
X61577576Y-33954980D01*
X61672814Y-33907361D01*
X61720433Y-33859742D01*
X62599795Y-32418280D02*
X62599795Y-31418280D01*
X62361700Y-31418280D01*
X62218842Y-31465900D01*
X62123604Y-31561138D01*
X62075985Y-31656376D01*
X62028366Y-31846852D01*
X62028366Y-31989709D01*
X62075985Y-32180185D01*
X62123604Y-32275423D01*
X62218842Y-32370661D01*
X62361700Y-32418280D01*
X62599795Y-32418280D01*
X61647414Y-31513519D02*
X61599795Y-31465900D01*
X61504557Y-31418280D01*
X61266461Y-31418280D01*
X61171223Y-31465900D01*
X61123604Y-31513519D01*
X61075985Y-31608757D01*
X61075985Y-31703995D01*
X61123604Y-31846852D01*
X61695033Y-32418280D01*
X61075985Y-32418280D01*
M02*
