M48
; DRILL file {KiCad (5.1.6)-1} date 01/06/21 20:52:00
; FORMAT={-:-/ absolute / metric / decimal}
; #@! TF.CreationDate,2021-01-06T20:52:00+08:00
; #@! TF.GenerationSoftware,Kicad,Pcbnew,(5.1.6)-1
; #@! TF.FileFunction,Plated,1,2,PTH
FMAT,2
METRIC
T1C0.300
T2C0.400
T3C0.500
T4C0.550
%
G90
G05
T1
X35.161Y-4.757
X37.871Y-0.025
X37.998Y-13.741
X37.998Y-14.199
X38.291Y-10.947
X38.797Y-10.161
X39.814Y-8.674
X40.07Y-7.546
X40.422Y-9.832
X40.805Y5.016
X41.034Y-6.032
X41.135Y-4.877
X41.747Y-17.311
X41.758Y-16.764
X43.173Y-16.935
X45.099Y-2.582
X45.725Y-3.082
X46.397Y-3.761
X46.707Y-4.661
X47.305Y-5.261
X47.597Y-6.061
X48.097Y-6.661
X48.688Y-7.261
X52.368Y-27.381
X52.918Y-27.73
X56.147Y-25.211
X57.197Y-25.211
X57.247Y-22.611
X57.397Y-21.761
X57.897Y-23.211
X57.997Y-21.261
X58.497Y-23.761
X58.547Y-20.711
X58.949Y-20.173
X59.644Y-20.173
X59.997Y-27.561
X60.597Y-27.961
X64.165Y-33.832
X65.227Y-17.691
X66.997Y-29.961
X67.297Y-30.361
X67.767Y-34.277
X68.199Y-18.123
X68.897Y-24.061
X69.597Y-23.761
X71.945Y-18.898
X74.689Y-26.149
X75.235Y-22.695
X75.235Y-23.783
X75.786Y-23.303
X75.857Y-26.187
X75.893Y-24.291
X76.366Y-24.789
X77.794Y-28.988
X78.205Y-30.856
X78.27Y-19.495
X78.925Y-30.19
X79.388Y-33.831
X79.602Y-29.578
X81.852Y-29.705
X81.978Y-28.969
X82.029Y-20.32
X82.156Y-33.831
X82.537Y-19.863
X83.167Y-20.285
X84.595Y-29.667
X84.897Y-31.761
X85.344Y-33.481
X85.447Y-25.061
X85.547Y-19.561
X85.649Y-18.885
X86.197Y-25.011
X86.423Y-27.419
X86.797Y-25.438
X86.829Y-31.966
X87.96Y-33.831
X87.978Y-19.98
X87.997Y-31.361
X92.597Y-28.115
X93.247Y-28.561
X93.847Y-27.561
X94.043Y-33.731
X94.856Y-27.851
X94.869Y-29.502
X95.479Y-34.15
X96.368Y-29.159
T2
X34.785Y-17.069
X39.094Y-11.551
X42.814Y-0.368
X42.926Y-10.264
X43.114Y-1.75
X43.443Y-16.138
X44.618Y-12.129
X49.644Y-24.105
X50.297Y-24.561
X54.764Y-28.814
X55.399Y-28.814
X62.147Y-24.561
X62.847Y-24.561
X66.076Y-30.14
X66.365Y-30.892
X79.223Y-23.076
X80.81Y-23.076
X80.835Y-24.447
X82.436Y-23.114
T3
X76.931Y-18.504
X78.181Y-18.504
X79.431Y-18.504
X80.681Y-18.504
T4
G00X47.918Y-30.195
M15
G01X47.918Y-28.845
M16
G05
G00X47.918Y-33.545
M15
G01X47.918Y-32.195
M16
G05
G00X57.618Y-30.195
M15
G01X57.618Y-28.845
M16
G05
G00X57.618Y-33.545
M15
G01X57.618Y-32.195
M16
G05
T0
M30
