G04 #@! TF.GenerationSoftware,KiCad,Pcbnew,(5.1.6)-1*
G04 #@! TF.CreationDate,2021-01-06T20:51:57+08:00*
G04 #@! TF.ProjectId,main_V1.0,6d61696e-5f56-4312-9e30-2e6b69636164,rev?*
G04 #@! TF.SameCoordinates,Original*
G04 #@! TF.FileFunction,Profile,NP*
%FSLAX46Y46*%
G04 Gerber Fmt 4.6, Leading zero omitted, Abs format (unit mm)*
G04 Created by KiCad (PCBNEW (5.1.6)-1) date 2021-01-06 20:51:57*
%MOMM*%
%LPD*%
G01*
G04 APERTURE LIST*
G04 #@! TA.AperFunction,Profile*
%ADD10C,0.050000*%
G04 #@! TD*
G04 #@! TA.AperFunction,Profile*
%ADD11C,0.120000*%
G04 #@! TD*
G04 APERTURE END LIST*
D10*
X30314900Y-10566400D02*
X32448500Y-11811000D01*
X41605200Y9000000D02*
X30314900Y-10566400D01*
X27711400Y-20002500D02*
X32448500Y-11811000D01*
X48868500Y-34789800D02*
X47000000Y-34800000D01*
X50720000Y9000000D02*
X41605200Y9000000D01*
X50720000Y-12200000D02*
X50720000Y9000000D01*
X48920000Y-12200000D02*
X50720000Y-12200000D01*
X48920000Y-15190000D02*
X48920000Y-12200000D01*
X52730000Y-19000000D02*
X48920000Y-15190000D01*
X55720000Y-19000000D02*
X52730000Y-19000000D01*
X55720000Y-17200000D02*
X55720000Y-19000000D01*
X89340000Y-17200000D02*
X55720000Y-17200000D01*
X89340000Y-17200000D02*
X89340000Y-19500000D01*
X101540000Y-19500000D02*
X89340000Y-19500000D01*
X101540000Y-34800000D02*
X101540000Y-19500000D01*
X56668500Y-34789800D02*
X101540000Y-34800000D01*
X47000000Y-20000000D02*
X47000000Y-34800000D01*
X27711400Y-20002500D02*
X47000000Y-20000000D01*
D11*
X48868500Y-29689800D02*
X48868500Y-34789800D01*
X56668500Y-29689800D02*
X56668500Y-34789800D01*
X48868500Y-29689800D02*
X56668500Y-29689800D01*
M02*
